{
.appVersion = "1056";
classes = (
{
automatic = 1;
code = "A Aacute Abreve Acircumflex Adieresis Agrave Amacron Aogonek Aring Aringacute Atilde AE AEacute B C Cacute Ccaron Ccedilla Cdotaccent D Eth Dcaron Dcroat E Eacute Ecaron Ecircumflex Edieresis Edotaccent Egrave Emacron Eogonek F G Gbreve Gcommaaccent Gdotaccent H Hbar I IJ Iacute Icircumflex Idieresis Idotaccent Igrave Imacron Iogonek J K Kcommaaccent L Lacute Lcaron Lcommaaccent Ldot Lslash M N Nacute Ncaron Ncommaaccent Eng Ntilde O Oacute Ocircumflex Odieresis Ograve Ohungarumlaut Omacron Oslash Oslashacute Otilde OE P Thorn Q R Racute Rcaron Rcommaaccent S Sacute Scaron Scedilla Scommaaccent T Tbar Tcaron Tcedilla Tcommaaccent U Uacute Ubreve Ucircumflex Udieresis Ugrave Uhungarumlaut Umacron Uogonek Uring V W Wacute Wcircumflex Wdieresis Wgrave X Y Yacute Ycircumflex Ydieresis Ygrave Z Zacute Zcaron Zdotaccent I.ss02 IJ.ss02 Iacute.ss02 Icircumflex.ss02 Idieresis.ss02 Idotaccent.ss02 Igrave.ss02 Imacron.ss02 Iogonek.ss02 J.ss02 R.ss03 Racute.ss03 Rcaron.ss03 Rcommaaccent.ss03";
name = Uppercase;
},
{
code = "zero zero.zero one two three four five six seven eight nine zero.tf zero.tf.zero one.tf two.tf three.tf four.tf five.tf six.tf seven.tf eight.tf nine.tf";
name = Numbers;
}
);
copyright = "Copyright 2016 Google Inc. & Colophon Foundry. Copyright 2017 Florian Karsten. All rights reserved.";
customParameters = (
{
name = vendorID;
value = FK;
},
{
name = license;
value = "This Font Software is licensed under the SIL Open Font License, Version 1.1. This license is available with a FAQ at: http://scripts.sil.org/OFL";
},
{
name = licenseURL;
value = "http://scripts.sil.org/OFL";
},
{
name = Axes;
value = (
{
Name = Weight;
Tag = wght;
}
);
}
);
date = "2018-01-01 15:34:44 +0000";
designer = "Florian Karsten (Space Text), Colophon Foundry (Space Mono)";
designerURL = "floriankarsten.com, colophon-foundry.org";
disablesNiceNames = 1;
familyName = "Space Text";
featurePrefixes = (
{
automatic = 1;

glyphs = (
{
glyphname = A;
lastChange = "2018-01-07 12:49:53 +0000";
layers = (
{
anchors = (
{
name = bottom;
position = "{551, 0}";
},
{
name = top;
position = "{310, 700}";
}
);
associatedMasterId = "CCC6267B-7D5D-4B2E-A229-3A2D752D6A18";
layerId = "A44D6E6F-A199-47AE-A6B4-2D2A45E69524";
name = MG;
paths = (
{
closed = 1;
nodes = (
"18 0 LINE",
"156 0 LINE",
"190 150 LINE",
"430 150 LINE",
"464 0 LINE",
"602 0 LINE",
"434 700 LINE",
"186 700 LINE"
);
},
{
closed = 1;
nodes = (
"301 634 LINE",
"319 634 LINE",
"401 276 LINE",
"218 276 LINE"
);
}
);
width = 620;
},
{
anchors = (
{
name = bottom;
position = "{543, 0}";
},
{
name = top;
position = "{310, 700}";
}
);
associatedMasterId = "CCC6267B-7D5D-4B2E-A229-3A2D752D6A18";
layerId = "CA800913-91D5-4891-8EC2-AF5E89D39EF3";
name = MG;
paths = (
{
closed = 1;
nodes = (
"18 0 LINE",
"108 0 LINE",
"159 174 LINE",
"461 174 LINE",
"512 0 LINE",
"602 0 LINE",
"389 700 LINE",
"231 700 LINE"
);
},
{
closed = 1;
nodes = (
"304 664 LINE",
"316 664 LINE",
"438 252 LINE",
"182 252 LINE"
);
}
);
width = 620;
},
{
anchors = (
{
name = bottom;
position = "{552, 0}";
},
{
name = top;
position = "{316, 700}";
}
);
layerId = "CCC6267B-7D5D-4B2E-A229-3A2D752D6A18";
paths = (
{
closed = 1;
nodes = (
"18 0 LINE",
"124 0 LINE",
"175 168 LINE",
"457 168 LINE",
"508 0 LINE",
"614 0 LINE",
"395 700 LINE",
"237 700 LINE"
);
},
{
closed = 1;
nodes = (
"310 612 LINE",
"322 612 LINE",
"430 260 LINE",
"202 260 LINE"
);
}
);
width = 632;
},
{
anchors = (
{
name = bottom;
position = "{557, 0}";
},
{
name = top;
position = "{304, 700}";
}
);
layerId = "A285862E-BE3D-4D67-A40D-0E28E121AD88";
paths = (
{
closed = 1;
nodes = (
"18 0 LINE",
"78 0 LINE",
"142 190 LINE",
"466 190 LINE",
"530 0 LINE",
"590 0 LINE",
"344 700 LINE",
"264 700 LINE"
);
},
{
closed = 1;
nodes = (
"298 648 LINE",
"310 648 LINE",
"449 238 LINE",
"159 238 LINE"
);
}
);
width = 608;
},
{
anchors = (
{
name = bottom;
position = "{545, 0}";
},
{
name = top;
position = "{304, 700}";
}
);
layerId = "5117E3E8-E17C-4812-BAF5-9E7064564A59";
paths = (
{
closed = 1;
nodes = (
"4 0 LINE",
"140 0 LINE",
"181 154 LINE",
"427 154 LINE",
"468 0 LINE",
"604 0 LINE",
"410 700 LINE",
"198 700 LINE"
);
},
{
closed = 1;
nodes = (
"298 590 LINE",
"310 590 LINE",
"395 276 LINE",
"213 276 LINE"
);
}
);
width = 608;
}
);
leftKerningGroup = A;
note = A;
rightKerningGroup = A;
unicode = 0041;
},
{
glyphname = AE;
lastChange = "2018-01-10 11:58:45 +0000";
layers = (
{
anchors = (
{
name = top;
position = "{340, 700}";
}
);
layerId = "CCC6267B-7D5D-4B2E-A229-3A2D752D6A18";
paths = (
{
closed = 1;
nodes = (
"290 260 LINE",
"191 260 LINE",
"278 606 LINE",
"290 606 LINE",
"290 700 LINE",
"208 700 LINE",
"18 0 LINE",
"124 0 LINE",
"169 168 LINE",
"290 168 LINE"
);
},
{
closed = 1;
nodes = (
"290 0 LINE",
"534 0 LINE",
"534 92 LINE",
"390 92 LINE",
"390 305 LINE",
"504 305 LINE",
"504 397 LINE",
"390 397 LINE",
"390 608 LINE",
"528 608 LINE",
"528 700 LINE",
"290 700 LINE"
);
}
);
width = 620;
},
{
anchors = (
{
name = top;
position = "{344, 700}";
}
);
layerId = "A285862E-BE3D-4D67-A40D-0E28E121AD88";
paths = (
{
closed = 1;
nodes = (
"310 238 LINE",
"163 238 LINE",
"298 650 LINE",
"310 650 LINE",
"310 700 LINE",
"259 700 LINE",
"20 0 LINE",
"82 0 LINE",
"146 190 LINE",
"310 190 LINE"
);
},
{
closed = 1;
nodes = (
"310 0 LINE",
"524 0 LINE",
"524 48 LINE",
"364 48 LINE",
"364 327 LINE",
"496 327 LINE",
"496 375 LINE",
"364 375 LINE",
"364 652 LINE",
"520 652 LINE",
"520 700 LINE",
"310 700 LINE"
);
}
);
width = 620;
},
{
anchors = (
{
name = top;
position = "{336, 700}";
}
);
layerId = "5117E3E8-E17C-4812-BAF5-9E7064564A59";
paths = (
{
closed = 1;
nodes = (
"286 276 LINE",
"213 276 LINE",
"274 574 LINE",
"286 574 LINE",
"286 700 LINE",
"177 700 LINE",
"18 0 LINE",
"156 0 LINE",
"188 154 LINE",
"286 154 LINE"
);
},
{
closed = 1;
nodes = (
"286 0 LINE",
"540 0 LINE",
"540 124 LINE",
"418 124 LINE",
"418 289 LINE",
"508 289 LINE",
"508 413 LINE",
"418 413 LINE",
"418 576 LINE",
"534 576 LINE",
"534 700 LINE",
"286 700 LINE"
);
}
);
width = 620;
}
);
leftKerningGroup = A;
note = AE;
rightKerningGroup = E;
unicode = 00C6;
},
{
glyphname = B;
lastChange = "2017-12-13 14:54:50 +0000";
layers = (
{
layerId = "CCC6267B-7D5D-4B2E-A229-3A2D752D6A18";
paths = (
{
closed = 1;
nodes = (
"72 0 LINE",
"363 0 LINE SMOOTH",
"483 0 OFFCURVE",
"570 71 OFFCURVE",
"570 189 CURVE SMOOTH",
"570 271 OFFCURVE",
"519 326 OFFCURVE",
"452 345 CURVE",
"452 357 LINE",
"522 375 OFFCURVE",
"568 430 OFFCURVE",
"568 512 CURVE SMOOTH",
"568 632 OFFCURVE",
"482 700 OFFCURVE",
"361 700 CURVE SMOOTH",
"72 700 LINE"
);
},
{
closed = 1;
nodes = (
"356 305 LINE SMOOTH",
"428 305 OFFCURVE",
"474 264 OFFCURVE",
"474 197 CURVE SMOOTH",
"474 132 OFFCURVE",
"425 92 OFFCURVE",
"354 92 CURVE SMOOTH",
"172 92 LINE",
"172 305 LINE"
);
},
{
closed = 1;
nodes = (
"352 608 LINE SMOOTH",
"423 608 OFFCURVE",
"472 568 OFFCURVE",
"472 504 CURVE SMOOTH",
"472 437 OFFCURVE",
"426 397 OFFCURVE",
"354 397 CURVE SMOOTH",
"172 397 LINE",
"172 608 LINE"
);
}
);
width = 614;
},
{
layerId = "A285862E-BE3D-4D67-A40D-0E28E121AD88";
paths = (
{
closed = 1;
nodes = (
"82 0 LINE",
"354 0 LINE SMOOTH",
"474 0 OFFCURVE",
"564 67 OFFCURVE",
"564 185 CURVE SMOOTH",
"564 280 OFFCURVE",
"497 334 OFFCURVE",
"437 346 CURVE",
"437 358 LINE",
"494 374 OFFCURVE",
"564 423 OFFCURVE",
"564 519 CURVE SMOOTH",
"564 631 OFFCURVE",
"475 700 OFFCURVE",
"358 700 CURVE SMOOTH",
"82 700 LINE"
);
},
{
closed = 1;
nodes = (
"350 328 LINE SMOOTH",
"456 328 OFFCURVE",
"510 273 OFFCURVE",
"510 189 CURVE SMOOTH",
"510 109 OFFCURVE",
"456 48 OFFCURVE",
"356 48 CURVE SMOOTH",
"136 48 LINE",
"136 328 LINE"
);
},
{
closed = 1;
nodes = (
"354 652 LINE SMOOTH",
"450 652 OFFCURVE",
"510 596 OFFCURVE",
"510 517 CURVE SMOOTH",
"510 435 OFFCURVE",
"454 376 OFFCURVE",
"356 376 CURVE SMOOTH",
"136 376 LINE",
"136 652 LINE"
);
}
);
width = 622;
},
{
layerId = "5117E3E8-E17C-4812-BAF5-9E7064564A59";
paths = (
{
closed = 1;
nodes = (
"62 0 LINE",
"381 0 LINE SMOOTH",
"501 0 OFFCURVE",
"588 73 OFFCURVE",
"588 189 CURVE SMOOTH",
"588 274 OFFCURVE",
"538 326 OFFCURVE",
"470 345 CURVE",
"470 357 LINE",
"538 376 OFFCURVE",
"588 428 OFFCURVE",
"588 512 CURVE SMOOTH",
"588 632 OFFCURVE",
"502 700 OFFCURVE",
"381 700 CURVE SMOOTH",
"62 700 LINE"
);
},
{
closed = 1;
nodes = (
"368 289 LINE SMOOTH",
"424 289 OFFCURVE",
"462 262 OFFCURVE",
"462 206 CURVE SMOOTH",
"462 150 OFFCURVE",
"424 124 OFFCURVE",
"368 124 CURVE SMOOTH",
"194 124 LINE",
"194 289 LINE"
);
},
{
closed = 1;
nodes = (
"368 576 LINE SMOOTH",
"424 576 OFFCURVE",
"462 551 OFFCURVE",
"462 495 CURVE SMOOTH",
"462 439 OFFCURVE",
"424 413 OFFCURVE",
"368 413 CURVE SMOOTH",
"194 413 LINE",
"194 576 LINE"
);
}
);
width = 626;
}
);
leftKerningGroup = H;
leftMetricsKey = I;
note = B.alt;
rightKerningGroup = B;
unicode = 0042;
},
{
glyphname = C;
lastChange = "2017-07-20 14:17:45 +0000";
layers = (
{
anchors = (
{
name = bottom;
position = "{306, 0}";
},
{
name = top;
position = "{306, 700}";
}
);
associatedMasterId = "CCC6267B-7D5D-4B2E-A229-3A2D752D6A18";
layerId = "0E229E00-8346-4D77-827D-C2A0A00BCEFF";
name = original;
paths = (
{
closed = 1;
nodes = (
"46 272 LINE SMOOTH",
"46 85 OFFCURVE",
"146 -14 OFFCURVE",
"306 -14 CURVE SMOOTH",
"473 -14 OFFCURVE",
"562 79 OFFCURVE",
"562 246 CURVE SMOOTH",
"562 264 LINE",
"430 264 LINE",
"430 246 LINE SMOOTH",
"430 157 OFFCURVE",
"397 106 OFFCURVE",
"306 106 CURVE SMOOTH",
"215 106 OFFCURVE",
"178 168 OFFCURVE",
"178 262 CURVE SMOOTH",
"178 438 LINE SMOOTH",
"178 524 OFFCURVE",
"219 594 OFFCURVE",
"306 594 CURVE SMOOTH",
"388 594 OFFCURVE",
"430 538 OFFCURVE",
"430 454 CURVE SMOOTH",
"430 436 LINE",
"562 436 LINE",
"562 454 LINE SMOOTH",
"562 618 OFFCURVE",
"469 714 OFFCURVE",
"306 714 CURVE SMOOTH",
"141 714 OFFCURVE",
"46 603 OFFCURVE",
"46 428 CURVE SMOOTH"
);
}
);
width = 608;
},
{
anchors = (
{
name = bottom;
position = "{319, 0}";
},
{
name = top;
position = "{320, 700}";
}
);
layerId = "CCC6267B-7D5D-4B2E-A229-3A2D752D6A18";
paths = (
{
closed = 1;
nodes = (
"48 272 LINE SMOOTH",
"48 90 OFFCURVE",
"150 -14 OFFCURVE",
"322 -14 CURVE SMOOTH",
"490 -14 OFFCURVE",
"584 86 OFFCURVE",
"584 242 CURVE SMOOTH",
"584 256 LINE",
"484 256 LINE",
"484 242 LINE SMOOTH",
"484 144 OFFCURVE",
"434 78 OFFCURVE",
"322 78 CURVE SMOOTH",
"210 78 OFFCURVE",
"148 146 OFFCURVE",
"148 268 CURVE SMOOTH",
"148 432 LINE SMOOTH",
"148 554 OFFCURVE",
"210 622 OFFCURVE",
"322 622 CURVE SMOOTH",
"434 622 OFFCURVE",
"484 555 OFFCURVE",
"484 458 CURVE SMOOTH",
"484 444 LINE",
"584 444 LINE",
"584 462 LINE SMOOTH",
"584 612 OFFCURVE",
"490 714 OFFCURVE",
"322 714 CURVE SMOOTH",
"150 714 OFFCURVE",
"48 610 OFFCURVE",
"48 428 CURVE SMOOTH"
);
}
);
width = 628;
},
{
anchors = (
{
name = bottom;
position = "{331, 0}";
},
{
name = top;
position = "{334, 700}";
}
);
layerId = "A285862E-BE3D-4D67-A40D-0E28E121AD88";
paths = (
{
closed = 1;
nodes = (
"64 283 LINE SMOOTH",
"64 95 OFFCURVE",
"164 -14 OFFCURVE",
"334 -14 CURVE SMOOTH",
"488 -14 OFFCURVE",
"584 79 OFFCURVE",
"584 233 CURVE SMOOTH",
"584 250 LINE",
"530 250 LINE",
"530 233 LINE SMOOTH",
"530 107 OFFCURVE",
"469 34 OFFCURVE",
"334 34 CURVE SMOOTH",
"198 34 OFFCURVE",
"118 125 OFFCURVE",
"118 281 CURVE SMOOTH",
"118 419 LINE SMOOTH",
"118 575 OFFCURVE",
"196 666 OFFCURVE",
"334 666 CURVE SMOOTH",
"460 666 OFFCURVE",
"530 590 OFFCURVE",
"530 464 CURVE SMOOTH",
"530 450 LINE",
"584 450 LINE",
"584 464 LINE SMOOTH",
"584 618 OFFCURVE",
"497 714 OFFCURVE",
"334 714 CURVE SMOOTH",
"167 714 OFFCURVE",
"64 605 OFFCURVE",
"64 417 CURVE SMOOTH"
);
}
);
width = 638;
},
{
anchors = (
{
name = bottom;
position = "{322, 0}";
},
{
name = top;
position = "{322, 700}";
}
);
layerId = "5117E3E8-E17C-4812-BAF5-9E7064564A59";
paths = (
{
closed = 1;
nodes = (
"34 270 LINE SMOOTH",
"34 84 OFFCURVE",
"152 -14 OFFCURVE",
"324 -14 CURVE SMOOTH",
"509 -14 OFFCURVE",
"600 85 OFFCURVE",
"600 240 CURVE SMOOTH",
"600 264 LINE",
"468 264 LINE",
"468 240 LINE SMOOTH",
"468 161 OFFCURVE",
"429 106 OFFCURVE",
"324 106 CURVE SMOOTH",
"221 106 OFFCURVE",
"166 170 OFFCURVE",
"166 266 CURVE SMOOTH",
"166 434 LINE SMOOTH",
"166 522 OFFCURVE",
"225 594 OFFCURVE",
"324 594 CURVE SMOOTH",
"420 594 OFFCURVE",
"468 540 OFFCURVE",
"468 460 CURVE SMOOTH",
"468 436 LINE",
"600 436 LINE",
"600 460 LINE SMOOTH",
"600 616 OFFCURVE",
"501 714 OFFCURVE",
"324 714 CURVE SMOOTH",
"147 714 OFFCURVE",
"34 604 OFFCURVE",
"34 430 CURVE SMOOTH"
);
}
);
width = 632;
}
);
leftKerningGroup = O;
leftMetricsKey = O;
note = C;
rightKerningGroup = O;
unicode = 0043;
},
{
glyphname = D;
lastChange = "2017-07-18 16:55:49 +0000";
layers = (
{
anchors = (
{
name = stroke;
position = "{140, 496}";
},
{
name = top;
position = "{285, 700}";
}
);
layerId = "CCC6267B-7D5D-4B2E-A229-3A2D752D6A18";
paths = (
{
closed = 1;
nodes = (
"72 0 LINE",
"288 0 LINE SMOOTH",
"466 0 OFFCURVE",
"572 90 OFFCURVE",
"572 272 CURVE SMOOTH",
"572 428 LINE SMOOTH",
"572 610 OFFCURVE",
"466 700 OFFCURVE",
"288 700 CURVE SMOOTH",
"72 700 LINE"
);
},
{
closed = 1;
nodes = (
"286 608 LINE SMOOTH",
"408 608 OFFCURVE",
"472 554 OFFCURVE",
"472 426 CURVE SMOOTH",
"472 274 LINE SMOOTH",
"472 146 OFFCURVE",
"408 92 OFFCURVE",
"286 92 CURVE SMOOTH",
"172 92 LINE",
"172 608 LINE"
);
}
);
width = 620;
},
{
anchors = (
{
name = stroke;
position = "{140, 496}";
},
{
name = top;
position = "{295, 700}";
}
);
layerId = "A285862E-BE3D-4D67-A40D-0E28E121AD88";
paths = (
{
closed = 1;
nodes = (
"82 0 LINE",
"289 0 LINE SMOOTH",
"465 0 OFFCURVE",
"570 82 OFFCURVE",
"570 279 CURVE SMOOTH",
"570 421 LINE SMOOTH",
"570 618 OFFCURVE",
"465 700 OFFCURVE",
"289 700 CURVE SMOOTH",
"82 700 LINE"
);
},
{
closed = 1;
nodes = (
"286 652 LINE SMOOTH",
"441 652 OFFCURVE",
"516 594 OFFCURVE",
"516 426 CURVE SMOOTH",
"516 274 LINE SMOOTH",
"516 106 OFFCURVE",
"445 48 OFFCURVE",
"286 48 CURVE SMOOTH",
"136 48 LINE",
"136 652 LINE"
);
}
);
width = 634;
},
{
anchors = (
{
name = stroke;
position = "{154, 496}";
},
{
name = top;
position = "{307, 700}";
}
);
layerId = "5117E3E8-E17C-4812-BAF5-9E7064564A59";
paths = (
{
closed = 1;
nodes = (
"62 0 LINE",
"302 0 LINE SMOOTH",
"490 0 OFFCURVE",
"590 93 OFFCURVE",
"590 284 CURVE SMOOTH",
"590 416 LINE SMOOTH",
"590 607 OFFCURVE",
"490 700 OFFCURVE",
"302 700 CURVE SMOOTH",
"62 700 LINE"
);
},
{
closed = 1;
nodes = (
"304 576 LINE SMOOTH",
"417 576 OFFCURVE",
"458 520 OFFCURVE",
"458 420 CURVE SMOOTH",
"458 280 LINE SMOOTH",
"458 180 OFFCURVE",
"417 124 OFFCURVE",
"304 124 CURVE SMOOTH",
"194 124 LINE",
"194 576 LINE"
);
}
);
width = 624;
}
);
leftKerningGroup = H;
leftMetricsKey = I;
note = D.alt;
rightKerningGroup = O;
rightMetricsKey = O;
unicode = 0044;
},
{
glyphname = E;
lastChange = "2018-01-06 10:19:07 +0000";
layers = (
{
anchors = (
{
name = bottom;
position = "{304, 0}";
},
{
name = top;
position = "{304, 700}";
}
);
associatedMasterId = "CCC6267B-7D5D-4B2E-A229-3A2D752D6A18";
layerId = "A6940450-5705-4009-80AF-C8914EB52DD1";
name = original;
paths = (
{
closed = 1;
nodes = (
"80 0 LINE",
"534 0 LINE",
"534 126 LINE",
"212 126 LINE",
"212 288 LINE",
"510 288 LINE",
"510 414 LINE",
"212 414 LINE",
"212 574 LINE",
"522 574 LINE",
"522 700 LINE",
"80 700 LINE"
);
}
);
width = 608;
},
{
anchors = (
{
name = bottom;
position = "{311, 0}";
},
{
name = top;
position = "{303, 700}";
}
);
layerId = "CCC6267B-7D5D-4B2E-A229-3A2D752D6A18";
paths = (
{
closed = 1;
nodes = (
"72 0 LINE",
"524 0 LINE",
"524 92 LINE",
"172 92 LINE",
"172 305 LINE",
"492 305 LINE",
"492 397 LINE",
"172 397 LINE",
"172 608 LINE",
"520 608 LINE",
"520 700 LINE",
"72 700 LINE"
);
}
);
width = 564;
},
{
anchors = (
{
name = bottom;
position = "{305, 0}";
},
{
name = top;
position = "{303, 700}";
}
);
layerId = "A285862E-BE3D-4D67-A40D-0E28E121AD88";
paths = (
{
closed = 1;
nodes = (
"82 0 LINE",
"514 0 LINE",
"514 48 LINE",
"136 48 LINE",
"136 327 LINE",
"482 327 LINE",
"482 375 LINE",
"136 375 LINE",
"136 652 LINE",
"510 652 LINE",
"510 700 LINE",
"82 700 LINE"
);
}
);
width = 562;
},
{
anchors = (
{
name = bottom;
position = "{306, 0}";
},
{
name = top;
position = "{297, 700}";
}
);
layerId = "5117E3E8-E17C-4812-BAF5-9E7064564A59";
paths = (
{
closed = 1;
nodes = (
"62 0 LINE",
"528 0 LINE",
"528 122 LINE",
"194 122 LINE",
"194 293 LINE",
"494 293 LINE",
"494 413 LINE",
"194 413 LINE",
"194 578 LINE",
"522 578 LINE",
"522 700 LINE",
"62 700 LINE"
);
}
);
width = 560;
}
);
leftKerningGroup = H;
leftMetricsKey = I;
note = E;
rightKerningGroup = E;
unicode = 0045;
},
{
glyphname = F;
lastChange = "2017-07-18 12:58:26 +0000";
layers = (
{
layerId = "CCC6267B-7D5D-4B2E-A229-3A2D752D6A18";
paths = (
{
closed = 1;
nodes = (
"72 0 LINE",
"172 0 LINE",
"172 305 LINE",
"490 305 LINE",
"490 397 LINE",
"172 397 LINE",
"172 608 LINE",
"508 608 LINE",
"508 700 LINE",
"72 700 LINE"
);
}
);
width = 530;
},
{
layerId = "A285862E-BE3D-4D67-A40D-0E28E121AD88";
paths = (
{
closed = 1;
nodes = (
"82 0 LINE",
"136 0 LINE",
"136 327 LINE",
"482 327 LINE",
"482 375 LINE",
"136 375 LINE",
"136 652 LINE",
"502 652 LINE",
"502 700 LINE",
"82 700 LINE"
);
}
);
width = 538;
},
{
layerId = "5117E3E8-E17C-4812-BAF5-9E7064564A59";
paths = (
{
closed = 1;
nodes = (
"62 0 LINE",
"194 0 LINE",
"194 289 LINE",
"488 289 LINE",
"488 413 LINE",
"194 413 LINE",
"194 576 LINE",
"508 576 LINE",
"508 700 LINE",
"62 700 LINE"
);
}
);
width = 532;
}
);
leftKerningGroup = H;
leftMetricsKey = I;
note = F;
rightKerningGroup = F;
unicode = 0046;
},
{
glyphname = G;
lastChange = "2017-11-11 15:31:28 +0000";
layers = (
{
anchors = (
{
name = bottom;
position = "{304, 0}";
},
{
name = top;
position = "{304, 700}";
}
);
associatedMasterId = "CCC6267B-7D5D-4B2E-A229-3A2D752D6A18";
layerId = "330D8CDC-367F-4645-B330-C39962F05B09";
name = original;
paths = (
{
closed = 1;
nodes = (
"42 268 LINE SMOOTH",
"42 108 OFFCURVE",
"124 -14 OFFCURVE",
"272 -14 CURVE SMOOTH",
"363 -14 OFFCURVE",
"404 26 OFFCURVE",
"420 78 CURVE",
"438 78 LINE",
"438 0 LINE",
"558 0 LINE",
"558 354 LINE",
"258 354 LINE",
"258 228 LINE",
"426 228 LINE",
"426 228 LINE",
"426 157 OFFCURVE",
"385 112 OFFCURVE",
"306 112 CURVE SMOOTH",
"218 112 OFFCURVE",
"174 166 OFFCURVE",
"174 274 CURVE SMOOTH",
"174 422 LINE SMOOTH",
"174 543 OFFCURVE",
"227 588 OFFCURVE",
"302 588 CURVE SMOOTH",
"381 588 OFFCURVE",
"426 544 OFFCURVE",
"426 460 CURVE SMOOTH",
"426 448 LINE",
"558 448 LINE",
"558 460 LINE SMOOTH",
"558 609 OFFCURVE",
"459 714 OFFCURVE",
"304 714 CURVE SMOOTH",
"139 714 OFFCURVE",
"42 600 OFFCURVE",
"42 432 CURVE SMOOTH"
);
}
);
width = 608;
},
{
anchors = (
{
name = bottom;
position = "{312, 0}";
},
{
name = top;
position = "{312, 700}";
}
);
associatedMasterId = "CCC6267B-7D5D-4B2E-A229-3A2D752D6A18";
layerId = "5145DE00-FEFF-45F6-AB7C-97998226D693";
name = upraveny;
paths = (
{
closed = 1;
nodes = (
"50 268 LINE SMOOTH",
"50 108 OFFCURVE",
"132 -14 OFFCURVE",
"280 -14 CURVE SMOOTH",
"371 -14 OFFCURVE",
"412 26 OFFCURVE",
"428 78 CURVE",
"446 78 LINE",
"446 0 LINE",
"566 0 LINE",
"566 354 LINE",
"266 354 LINE",
"266 228 LINE",
"434 228 LINE",
"434 228 LINE",
"434 157 OFFCURVE",
"393 112 OFFCURVE",
"314 112 CURVE SMOOTH",
"226 112 OFFCURVE",
"182 166 OFFCURVE",
"182 274 CURVE SMOOTH",
"182 422 LINE SMOOTH",
"182 543 OFFCURVE",
"239 588 OFFCURVE",
"318 588 CURVE SMOOTH",
"397 588 OFFCURVE",
"440 544 OFFCURVE",
"440 460 CURVE SMOOTH",
"440 448 LINE",
"572 448 LINE",
"572 460 LINE SMOOTH",
"572 609 OFFCURVE",
"475 714 OFFCURVE",
"320 714 CURVE SMOOTH",
"151 714 OFFCURVE",
"50 600 OFFCURVE",
"50 432 CURVE SMOOTH"
);
}
);
width = 620;
},
{
anchors = (
{
name = bottom;
position = "{312, 0}";
},
{
name = top;
position = "{309, 700}";
}
);
associatedMasterId = "CCC6267B-7D5D-4B2E-A229-3A2D752D6A18";
layerId = "51305EC3-D6B8-462D-B79E-D8942EC234CF";
name = upraveny;
paths = (
{
closed = 1;
nodes = (
"63 272 LINE SMOOTH",
"63 85 OFFCURVE",
"154 -14 OFFCURVE",
"305 -14 CURVE SMOOTH",
"381 -14 OFFCURVE",
"442 25 OFFCURVE",
"465 84 CURVE",
"477 84 LINE",
"477 0 LINE",
"555 0 LINE",
"555 336 LINE",
"243 336 LINE",
"243 258 LINE",
"471 258 LINE",
"471 246 LINE SMOOTH",
"471 131 OFFCURVE",
"411 64 OFFCURVE",
"311 64 CURVE SMOOTH",
"200 64 OFFCURVE",
"147 141 OFFCURVE",
"147 278 CURVE SMOOTH",
"147 422 LINE SMOOTH",
"147 550 OFFCURVE",
"201 636 OFFCURVE",
"309 636 CURVE SMOOTH",
"414 636 OFFCURVE",
"471 564 OFFCURVE",
"471 460 CURVE SMOOTH",
"471 448 LINE",
"555 448 LINE",
"555 460 LINE SMOOTH",
"555 609 OFFCURVE",
"465 714 OFFCURVE",
"309 714 CURVE SMOOTH",
"154 714 OFFCURVE",
"63 609 OFFCURVE",
"63 428 CURVE SMOOTH"
);
}
);
width = 620;
},
{
anchors = (
{
name = bottom;
position = "{325, 0}";
},
{
name = top;
position = "{318, 700}";
}
);
layerId = "CCC6267B-7D5D-4B2E-A229-3A2D752D6A18";
paths = (
{
closed = 1;
nodes = (
"48 90 OFFCURVE",
"150 -14 OFFCURVE",
"321 -14 CURVE SMOOTH",
"487 -14 OFFCURVE",
"578 86 OFFCURVE",
"578 242 CURVE SMOOTH",
"578 345 LINE",
"289 345 LINE",
"289 254 LINE",
"478 254 LINE",
"478 242 LINE SMOOTH",
"478 144 OFFCURVE",
"432 78 OFFCURVE",
"321 78 CURVE SMOOTH",
"210 78 OFFCURVE",
"148 146 OFFCURVE",
"148 268 CURVE SMOOTH",
"148 432 LINE SMOOTH",
"148 554 OFFCURVE",
"210 622 OFFCURVE",
"321 622 CURVE SMOOTH",
"432 622 OFFCURVE",
"478 557 OFFCURVE",
"478 458 CURVE SMOOTH",
"478 449 LINE",
"578 449 LINE",
"578 458 LINE SMOOTH",
"578 612 OFFCURVE",
"487 714 OFFCURVE",
"321 714 CURVE SMOOTH",
"150 714 OFFCURVE",
"48 610 OFFCURVE",
"48 428 CURVE SMOOTH",
"48 272 LINE SMOOTH"
);
}
);
width = 626;
},
{
anchors = (
{
name = bottom;
position = "{331, 0}";
},
{
name = top;
position = "{328, 700}";
}
);
layerId = "A285862E-BE3D-4D67-A40D-0E28E121AD88";
paths = (
{
closed = 1;
nodes = (
"64 95 OFFCURVE",
"162 -14 OFFCURVE",
"332 -14 CURVE SMOOTH",
"485 -14 OFFCURVE",
"580 79 OFFCURVE",
"580 233 CURVE SMOOTH",
"580 319 LINE",
"294 319 LINE",
"294 271 LINE",
"526 271 LINE",
"526 233 LINE SMOOTH",
"526 107 OFFCURVE",
"466 34 OFFCURVE",
"332 34 CURVE SMOOTH",
"196 34 OFFCURVE",
"118 125 OFFCURVE",
"118 281 CURVE SMOOTH",
"118 419 LINE SMOOTH",
"118 575 OFFCURVE",
"196 666 OFFCURVE",
"334 666 CURVE SMOOTH",
"459 666 OFFCURVE",
"526 590 OFFCURVE",
"526 464 CURVE SMOOTH",
"526 455 LINE",
"580 455 LINE",
"580 464 LINE SMOOTH",
"580 618 OFFCURVE",
"496 714 OFFCURVE",
"333 714 CURVE SMOOTH",
"167 714 OFFCURVE",
"64 605 OFFCURVE",
"64 417 CURVE SMOOTH",
"64 282 LINE SMOOTH"
);
}
);
width = 644;
},
{
anchors = (
{
name = bottom;
position = "{322, 0}";
},
{
name = top;
position = "{322, 700}";
}
);
layerId = "5117E3E8-E17C-4812-BAF5-9E7064564A59";
paths = (
{
closed = 1;
nodes = (
"34 84 OFFCURVE",
"152 -14 OFFCURVE",
"324 -14 CURVE SMOOTH",
"505 -14 OFFCURVE",
"602 79 OFFCURVE",
"602 246 CURVE SMOOTH",
"602 362 LINE",
"300 362 LINE",
"300 246 LINE",
"470 246 LINE",
"470 241 LINE SMOOTH",
"470 157 OFFCURVE",
"429 106 OFFCURVE",
"324 106 CURVE SMOOTH",
"221 106 OFFCURVE",
"166 170 OFFCURVE",
"166 266 CURVE SMOOTH",
"166 434 LINE SMOOTH",
"166 522 OFFCURVE",
"225 594 OFFCURVE",
"324 594 CURVE SMOOTH",
"420 594 OFFCURVE",
"470 538 OFFCURVE",
"470 454 CURVE SMOOTH",
"470 446 LINE",
"602 446 LINE",
"602 454 LINE SMOOTH",
"602 618 OFFCURVE",
"501 714 OFFCURVE",
"324 714 CURVE SMOOTH",
"147 714 OFFCURVE",
"34 604 OFFCURVE",
"34 430 CURVE SMOOTH",
"34 270 LINE SMOOTH"
);
}
);
width = 636;
}
);
leftKerningGroup = O;
leftMetricsKey = O;
note = G;
rightKerningGroup = O;
rightMetricsKey = O;
unicode = 0047;
},
{
glyphname = H;
lastChange = "2017-07-18 16:33:15 +0000";
layers = (
{
anchors = (
{
name = stroke;
position = "{324, 496}";
}
);
layerId = "CCC6267B-7D5D-4B2E-A229-3A2D752D6A18";
paths = (
{
closed = 1;
nodes = (
"72 0 LINE",
"172 0 LINE",
"172 305 LINE",
"476 305 LINE",
"476 0 LINE",
"576 0 LINE",
"576 700 LINE",
"476 700 LINE",
"476 397 LINE",
"172 397 LINE",
"172 700 LINE",
"72 700 LINE"
);
}
);
width = 648;
},
{
anchors = (
{
name = stroke;
position = "{320, 496}";
}
);
layerId = "A285862E-BE3D-4D67-A40D-0E28E121AD88";
paths = (
{
closed = 1;
nodes = (
"82 0 LINE",
"136 0 LINE",
"136 327 LINE",
"504 327 LINE",
"504 0 LINE",
"558 0 LINE",
"558 700 LINE",
"504 700 LINE",
"504 375 LINE",
"136 375 LINE",
"136 700 LINE",
"82 700 LINE"
);
}
);
width = 640;
},
{
anchors = (
{
name = stroke;
position = "{326, 496}";
}
);
layerId = "5117E3E8-E17C-4812-BAF5-9E7064564A59";
paths = (
{
closed = 1;
nodes = (
"62 0 LINE",
"194 0 LINE",
"194 289 LINE",
"458 289 LINE",
"458 0 LINE",
"590 0 LINE",
"590 700 LINE",
"458 700 LINE",
"458 413 LINE",
"194 413 LINE",
"194 700 LINE",
"62 700 LINE"
);
}
);
width = 652;
}
);
leftKerningGroup = H;
leftMetricsKey = I;
note = H;
rightKerningGroup = H;
rightMetricsKey = I;
unicode = 0048;
},
{
glyphname = I;
lastChange = "2017-11-11 21:08:41 +0000";
layers = (
{
anchors = (
{
name = bottom;
position = "{304, 0}";
},
{
name = top;
position = "{304, 700}";
}
);
associatedMasterId = "CCC6267B-7D5D-4B2E-A229-3A2D752D6A18";
layerId = "7F3A96DF-6844-4739-BF1A-81786C7F9B10";
name = original;
paths = (
{
closed = 1;
nodes = (
"82 622 LINE",
"262 622 LINE",
"262 78 LINE",
"82 78 LINE",
"82 0 LINE",
"526 0 LINE",
"526 78 LINE",
"346 78 LINE",
"346 622 LINE",
"526 622 LINE",
"526 700 LINE",
"82 700 LINE"
);
}
);
width = 608;
},
{
anchors = (
{
name = bottom;
position = "{304, 0}";
},
{
name = top;
position = "{304, 700}";
}
);
associatedMasterId = "CCC6267B-7D5D-4B2E-A229-3A2D752D6A18";
layerId = "EA075CB6-FB79-4795-8A38-91488EF287AD";
name = original;
paths = (
{
closed = 1;
nodes = (
"70 574 LINE",
"238 574 LINE",
"238 126 LINE",
"70 126 LINE",
"70 0 LINE",
"538 0 LINE",
"538 126 LINE",
"370 126 LINE",
"370 574 LINE",
"538 574 LINE",
"538 700 LINE",
"70 700 LINE"
);
}
);
width = 608;
},
{
anchors = (
{
name = bottom;
position = "{122, 0}";
},
{
name = top;
position = "{122, 700}";
}
);
layerId = "CCC6267B-7D5D-4B2E-A229-3A2D752D6A18";
paths = (
{
closed = 1;
nodes = (
"72 0 LINE",
"172 0 LINE",
"172 700 LINE",
"72 700 LINE"
);
}
);
width = 244;
},
{
anchors = (
{
name = bottom;
position = "{109, 0}";
},
{
name = top;
position = "{109, 700}";
}
);
layerId = "A285862E-BE3D-4D67-A40D-0E28E121AD88";
paths = (
{
closed = 1;
nodes = (
"82 0 LINE",
"136 0 LINE",
"136 700 LINE",
"82 700 LINE"
);
}
);
width = 218;
},
{
anchors = (
{
name = bottom;
position = "{128, 0}";
},
{
name = top;
position = "{128, 700}";
}
);
layerId = "5117E3E8-E17C-4812-BAF5-9E7064564A59";
paths = (
{
closed = 1;
nodes = (
"62 0 LINE",
"194 0 LINE",
"194 700 LINE",
"62 700 LINE"
);
}
);
width = 256;
}
);
leftKerningGroup = I;
note = I;
rightKerningGroup = I;
unicode = 0049;
},
{
glyphname = IJ;
lastChange = "2017-11-11 15:32:00 +0000";
layers = (
{
layerId = "CCC6267B-7D5D-4B2E-A229-3A2D752D6A18";
paths = (
{
closed = 1;
nodes = (
"70 355 LINE",
"170 355 LINE",
"170 700 LINE",
"70 700 LINE"
);
},
{
closed = 1;
nodes = (
"410 210 LINE SMOOTH",
"410 130 OFFCURVE",
"377 78 OFFCURVE",
"295 78 CURVE SMOOTH",
"212 78 OFFCURVE",
"170 130 OFFCURVE",
"170 210 CURVE SMOOTH",
"170 268 LINE",
"70 268 LINE",
"70 210 LINE SMOOTH",
"70 66 OFFCURVE",
"157 -14 OFFCURVE",
"296 -14 CURVE SMOOTH",
"433 -14 OFFCURVE",
"510 65 OFFCURVE",
"510 210 CURVE SMOOTH",
"510 700 LINE",
"410 700 LINE"
);
}
);
width = 580;
},
{
layerId = "A285862E-BE3D-4D67-A40D-0E28E121AD88";
paths = (
{
closed = 1;
nodes = (
"78 374 LINE",
"132 374 LINE",
"132 700 LINE",
"78 700 LINE"
);
},
{
closed = 1;
nodes = (
"442 210 LINE SMOOTH",
"442 108 OFFCURVE",
"407 34 OFFCURVE",
"294 34 CURVE SMOOTH",
"184 34 OFFCURVE",
"132 107 OFFCURVE",
"132 210 CURVE SMOOTH",
"132 227 LINE",
"78 227 LINE",
"78 210 LINE SMOOTH",
"78 63 OFFCURVE",
"159 -14 OFFCURVE",
"292 -14 CURVE SMOOTH",
"429 -14 OFFCURVE",
"496 65 OFFCURVE",
"496 210 CURVE SMOOTH",
"496 700 LINE",
"442 700 LINE"
);
}
);
width = 574;
},
{
layerId = "5117E3E8-E17C-4812-BAF5-9E7064564A59";
paths = (
{
closed = 1;
nodes = (
"58 342 LINE",
"190 342 LINE",
"190 700 LINE",
"58 700 LINE"
);
},
{
closed = 1;
nodes = (
"386 210 LINE SMOOTH",
"386 146 OFFCURVE",
"352 110 OFFCURVE",
"291 110 CURVE SMOOTH",
"226 110 OFFCURVE",
"190 147 OFFCURVE",
"190 210 CURVE SMOOTH",
"190 246 LINE",
"58 246 LINE",
"58 210 LINE SMOOTH",
"58 69 OFFCURVE",
"149 -14 OFFCURVE",
"295 -14 CURVE SMOOTH",
"434 -14 OFFCURVE",
"518 65 OFFCURVE",
"518 210 CURVE SMOOTH",
"518 700 LINE",
"386 700 LINE"
);
}
);
width = 576;
}
);
leftKerningGroup = U;
leftMetricsKey = U;
note = IJ;
rightKerningGroup = U;
rightMetricsKey = U;
unicode = 0132;
},
{
glyphname = J;
lastChange = "2017-11-11 15:33:12 +0000";
layers = (
{
layerId = "CCC6267B-7D5D-4B2E-A229-3A2D752D6A18";
paths = (
{
closed = 1;
nodes = (
"380 700 LINE",
"380 210 LINE",
"380 130 OFFCURVE",
"347 78 OFFCURVE",
"255 78 CURVE SMOOTH",
"162 78 OFFCURVE",
"120 130 OFFCURVE",
"120 210 CURVE SMOOTH",
"120 268 LINE",
"20 268 LINE",
"20 210 LINE SMOOTH",
"20 66 OFFCURVE",
"107 -14 OFFCURVE",
"256 -14 CURVE SMOOTH",
"403 -14 OFFCURVE",
"480 65 OFFCURVE",
"480 210 CURVE",
"480 700 LINE"
);
}
);
width = 550;
},
{
layerId = "A285862E-BE3D-4D67-A40D-0E28E121AD88";
paths = (
{
closed = 1;
nodes = (
"406 700 LINE",
"406 210 LINE SMOOTH",
"406 108 OFFCURVE",
"371 34 OFFCURVE",
"258 34 CURVE SMOOTH",
"148 34 OFFCURVE",
"96 107 OFFCURVE",
"96 210 CURVE SMOOTH",
"96 257 LINE",
"42 257 LINE",
"42 210 LINE SMOOTH",
"42 63 OFFCURVE",
"123 -14 OFFCURVE",
"256 -14 CURVE SMOOTH",
"393 -14 OFFCURVE",
"460 65 OFFCURVE",
"460 210 CURVE SMOOTH",
"460 700 LINE"
);
}
);
width = 538;
},
{
layerId = "5117E3E8-E17C-4812-BAF5-9E7064564A59";
paths = (
{
closed = 1;
nodes = (
"356 700 LINE",
"356 210 LINE SMOOTH",
"356 146 OFFCURVE",
"322 110 OFFCURVE",
"263 110 CURVE SMOOTH",
"200 110 OFFCURVE",
"164 147 OFFCURVE",
"164 210 CURVE SMOOTH",
"164 276 LINE",
"32 276 LINE",
"32 210 LINE SMOOTH",
"32 69 OFFCURVE",
"123 -14 OFFCURVE",
"267 -14 CURVE SMOOTH",
"404 -14 OFFCURVE",
"488 65 OFFCURVE",
"488 210 CURVE SMOOTH",
"488 700 LINE"
);
}
);
width = 546;
}
);
leftKerningGroup = J;
note = J;
rightKerningGroup = U;
rightMetricsKey = U;
unicode = 004A;
},
{
glyphname = K;
lastChange = "2017-12-23 17:28:04 +0000";
layers = (
{
anchors = (
{
name = bottom;
position = "{306, 0}";
}
);
associatedMasterId = "CCC6267B-7D5D-4B2E-A229-3A2D752D6A18";
layerId = "F0DE2E30-2C78-411E-96BD-1F6F7ADA50D0";
name = original;
paths = (
{
closed = 1;
nodes = (
"87 0 LINE",
"171 0 LINE",
"171 312 LINE",
"194 312 LINE",
"473 0 LINE",
"579 0 LINE",
"579 6 LINE",
"277 344 LINE",
"277 356 LINE",
"567 694 LINE",
"567 700 LINE",
"463 700 LINE",
"194 390 LINE",
"171 390 LINE",
"171 700 LINE",
"87 700 LINE"
);
}
);
width = 608;
},
{
anchors = (
{
name = bottom;
position = "{304, 0}";
}
);
associatedMasterId = "CCC6267B-7D5D-4B2E-A229-3A2D752D6A18";
layerId = "289B74CF-E844-441E-9061-DDCF7654C21D";
name = original;
paths = (
{
closed = 1;
nodes = (
"75 0 LINE",
"207 0 LINE",
"207 287 LINE",
"236 287 LINE",
"427 0 LINE",
"582 0 LINE",
"582 6 LINE",
"354 341 LINE",
"354 359 LINE",
"570 694 LINE",
"570 700 LINE",
"421 700 LINE",
"236 413 LINE",
"207 413 LINE",
"207 700 LINE",
"75 700 LINE"
);
}
);
width = 608;
},
{
anchors = (
{
name = bottom;
position = "{317, 0}";
}
);
layerId = "CCC6267B-7D5D-4B2E-A229-3A2D752D6A18";
paths = (
{
closed = 1;
nodes = (
"172 0 LINE",
"172 255 LINE",
"660 700 LINE",
"523 700 LINE",
"184 394 LINE",
"172 394 LINE",
"172 700 LINE",
"72 700 LINE",
"72 0 LINE"
);
},
{
closed = 1;
nodes = (
"265 384 LINE",
"537 0 LINE",
"655 0 LINE",
"336 449 LINE"
);
}
);
width = 660;
},
{
anchors = (
{
name = bottom;
position = "{328, 0}";
}
);
layerId = "A285862E-BE3D-4D67-A40D-0E28E121AD88";
paths = (
{
closed = 1;
nodes = (
"136 0 LINE",
"136 248 LINE",
"625 700 LINE",
"545 700 LINE",
"148 332 LINE",
"136 332 LINE",
"136 700 LINE",
"82 700 LINE",
"82 0 LINE"
);
},
{
closed = 1;
nodes = (
"273 397 LINE",
"555 0 LINE",
"620 0 LINE",
"312 433 LINE"
);
}
);
width = 627;
},
{
anchors = (
{
name = bottom;
position = "{329, 0}";
}
);
layerId = "5117E3E8-E17C-4812-BAF5-9E7064564A59";
paths = (
{
closed = 1;
nodes = (
"194 0 LINE",
"194 256 LINE",
"685 700 LINE",
"505 700 LINE",
"206 426 LINE",
"194 426 LINE",
"194 700 LINE",
"62 700 LINE",
"62 0 LINE"
);
},
{
closed = 1;
nodes = (
"263 363 LINE",
"526 0 LINE",
"675 0 LINE",
"353 448 LINE"
);
}
);
width = 674;
}
);
leftKerningGroup = H;
leftMetricsKey = I;
note = K;
rightKerningGroup = K;
unicode = 004B;
},
{
glyphname = L;
lastChange = "2017-07-18 16:26:55 +0000";
layers = (
{
anchors = (
{
name = bottom;
position = "{304, 0}";
},
{
name = caron;
position = "{212, 700}";
},
{
name = top;
position = "{146, 700}";
}
);
associatedMasterId = "CCC6267B-7D5D-4B2E-A229-3A2D752D6A18";
layerId = "10C60F84-A3CC-4258-91C5-52961061AA45";
name = original;
paths = (
{
closed = 1;
nodes = (
"80 0 LINE",
"530 0 LINE",
"530 126 LINE",
"212 126 LINE",
"212 700 LINE",
"80 700 LINE"
);
}
);
width = 608;
},
{
anchors = (
{
name = bottom;
position = "{306, 0}";
},
{
name = caron;
position = "{169, 700}";
},
{
name = top;
position = "{127, 700}";
}
);
associatedMasterId = "CCC6267B-7D5D-4B2E-A229-3A2D752D6A18";
layerId = "8FA3EB43-B387-4BE4-A7C7-65583D9D6DA4";
name = original;
paths = (
{
closed = 1;
nodes = (
"85 0 LINE",
"535 0 LINE",
"535 78 LINE",
"169 78 LINE",
"169 700 LINE",
"85 700 LINE"
);
}
);
width = 608;
},
{
anchors = (
{
name = bottom;
position = "{298, 0}";
},
{
name = caron;
position = "{172, 700}";
},
{
name = top;
position = "{122, 700}";
}
);
layerId = "CCC6267B-7D5D-4B2E-A229-3A2D752D6A18";
paths = (
{
closed = 1;
nodes = (
"72 0 LINE",
"516 0 LINE",
"516 92 LINE",
"172 92 LINE",
"172 700 LINE",
"72 700 LINE"
);
}
);
width = 536;
},
{
anchors = (
{
name = bottom;
position = "{312, 0}";
},
{
name = caron;
position = "{135, 700}";
},
{
name = top;
position = "{108, 700}";
}
);
layerId = "A285862E-BE3D-4D67-A40D-0E28E121AD88";
paths = (
{
closed = 1;
nodes = (
"82 0 LINE",
"518 0 LINE",
"518 48 LINE",
"136 48 LINE",
"136 700 LINE",
"82 700 LINE"
);
}
);
width = 540;
},
{
anchors = (
{
name = bottom;
position = "{290, 0}";
},
{
name = caron;
position = "{194, 700}";
},
{
name = top;
position = "{128, 700}";
}
);
layerId = "5117E3E8-E17C-4812-BAF5-9E7064564A59";
paths = (
{
closed = 1;
nodes = (
"62 0 LINE",
"518 0 LINE",
"518 122 LINE",
"194 122 LINE",
"194 700 LINE",
"62 700 LINE"
);
}
);
width = 536;
}
);
leftKerningGroup = H;
leftMetricsKey = I;
note = L;
rightKerningGroup = L;
unicode = 004C;
},
{
glyphname = Lslash;
lastChange = "2017-07-18 09:12:28 +0000";
layers = (
{
layerId = "CCC6267B-7D5D-4B2E-A229-3A2D752D6A18";
paths = (
{
closed = 1;
nodes = (
"115 362 LINE",
"20 315 LINE",
"61 234 LINE",
"115 261 LINE",
"115 0 LINE",
"553 0 LINE",
"553 94 LINE",
"215 94 LINE",
"215 312 LINE",
"314 362 LINE",
"273 443 LINE",
"215 413 LINE",
"215 700 LINE",
"115 700 LINE"
);
}
);
width = 620;
},
{
layerId = "A285862E-BE3D-4D67-A40D-0E28E121AD88";
paths = (
{
closed = 1;
nodes = (
"140 354 LINE",
"42 305 LINE",
"66 259 LINE",
"140 297 LINE",
"140 0 LINE",
"560 0 LINE",
"560 50 LINE",
"196 50 LINE",
"196 326 LINE",
"284 372 LINE",
"262 416 LINE",
"196 383 LINE",
"196 700 LINE",
"140 700 LINE"
);
}
);
width = 620;
},
{
layerId = "5117E3E8-E17C-4812-BAF5-9E7064564A59";
paths = (
{
closed = 1;
nodes = (
"96 368 LINE",
"4 322 LINE",
"58 215 LINE",
"96 234 LINE",
"96 0 LINE",
"546 0 LINE",
"546 126 LINE",
"228 126 LINE",
"228 301 LINE",
"335 355 LINE",
"281 462 LINE",
"228 435 LINE",
"228 700 LINE",
"96 700 LINE"
);
}
);
width = 620;
}
);
leftKerningGroup = H;
note = Lslash;
rightKerningGroup = L;
unicode = 0141;
},
{
glyphname = M;
lastChange = "2017-12-13 14:57:24 +0000";
layers = (
{
associatedMasterId = "CCC6267B-7D5D-4B2E-A229-3A2D752D6A18";
layerId = "1EA1F7FB-0D24-46C1-9572-5B2A5880868A";
name = original;
paths = (
{
closed = 1;
nodes = (
"20 0 LINE",
"140 0 LINE",
"140 468 LINE",
"128 628 LINE",
"152 628 LINE",
"206 0 LINE",
"404 0 LINE",
"456 628 LINE",
"480 628 LINE",
"468 468 LINE",
"468 0 LINE",
"588 0 LINE",
"588 700 LINE",
"356 700 LINE",
"316 174 LINE",
"316 72 LINE",
"292 72 LINE",
"292 174 LINE",
"252 700 LINE",
"20 700 LINE"
);
}
);
width = 608;
},
{
associatedMasterId = "CCC6267B-7D5D-4B2E-A229-3A2D752D6A18";
layerId = "93BA3D44-508A-49A8-AA80-7BED82B1DEEE";
name = original;
paths = (
{
closed = 1;
nodes = (
"44 0 LINE",
"122 0 LINE",
"122 664 LINE",
"122 664 LINE",
"134 664 LINE",
"228 0 LINE",
"380 0 LINE",
"474 664 LINE",
"486 664 LINE",
"486 664 LINE",
"486 0 LINE",
"564 0 LINE",
"564 700 LINE",
"404 700 LINE",
"310 36 LINE",
"310 36 LINE",
"298 36 LINE",
"298 36 LINE",
"204 700 LINE",
"44 700 LINE"
);
}
);
width = 608;
},
{
associatedMasterId = "CCC6267B-7D5D-4B2E-A229-3A2D752D6A18";
layerId = "BD6029D1-1BE4-459F-823A-DB41639C2848";
name = MG;
paths = (
{
closed = 1;
nodes = (
"66 0 LINE",
"194 0 LINE",
"194 504 LINE",
"178 628 LINE",
"202 628 LINE",
"298 0 LINE",
"482 0 LINE",
"578 628 LINE",
"602 628 LINE",
"586 504 LINE",
"586 0 LINE",
"714 0 LINE",
"714 700 LINE",
"476 700 LINE",
"402 204 LINE",
"402 72 LINE",
"378 72 LINE",
"378 204 LINE",
"304 700 LINE",
"66 700 LINE"
);
}
);
width = 780;
},
{
associatedMasterId = "CCC6267B-7D5D-4B2E-A229-3A2D752D6A18";
layerId = "26521D7B-3932-41D3-86BA-F5299844567E";
name = MG;
paths = (
{
closed = 1;
nodes = (
"74 0 LINE",
"158 0 LINE",
"158 664 LINE",
"158 664 LINE",
"170 664 LINE",
"310 0 LINE",
"470 0 LINE",
"610 664 LINE",
"622 664 LINE",
"622 664 LINE",
"622 0 LINE",
"706 0 LINE",
"706 700 LINE",
"536 700 LINE",
"396 36 LINE",
"396 36 LINE",
"384 36 LINE",
"384 36 LINE",
"244 700 LINE",
"74 700 LINE"
);
}
);
width = 780;
},
{
layerId = "CCC6267B-7D5D-4B2E-A229-3A2D752D6A18";
paths = (
{
closed = 1;
nodes = (
"72 0 LINE",
"172 0 LINE",
"172 594 LINE",
"184 594 LINE",
"361 0 LINE",
"511 0 LINE",
"688 594 LINE",
"700 594 LINE",
"700 0 LINE",
"800 0 LINE",
"800 700 LINE",
"620 700 LINE",
"442 104 LINE",
"430 104 LINE",
"252 700 LINE",
"72 700 LINE"
);
}
);
width = 872;
},
{
layerId = "A285862E-BE3D-4D67-A40D-0E28E121AD88";
paths = (
{
closed = 1;
nodes = (
"82 0 LINE",
"136 0 LINE",
"136 636 LINE",
"148 636 LINE",
"391 0 LINE",
"473 0 LINE",
"716 636 LINE",
"728 636 LINE",
"728 0 LINE",
"782 0 LINE",
"782 700 LINE",
"682 700 LINE",
"438 62 LINE",
"426 62 LINE",
"182 700 LINE",
"82 700 LINE"
);
}
);
width = 864;
},
{
layerId = "5117E3E8-E17C-4812-BAF5-9E7064564A59";
paths = (
{
closed = 1;
nodes = (
"62 0 LINE",
"190 0 LINE",
"190 560 LINE",
"202 560 LINE",
"347 0 LINE",
"541 0 LINE",
"686 560 LINE",
"698 560 LINE",
"698 0 LINE",
"826 0 LINE",
"826 700 LINE",
"596 700 LINE",
"450 138 LINE",
"438 138 LINE",
"292 700 LINE",
"62 700 LINE"
);
}
);
width = 888;
}
);
leftKerningGroup = H;
leftMetricsKey = I;
note = M;
rightKerningGroup = H;
rightMetricsKey = I;
unicode = 004D;
},
{
glyphname = N;
lastChange = "2017-12-13 14:58:00 +0000";
layers = (
{
anchors = (
{
name = bottom;
position = "{320, 0}";
},
{
name = top;
position = "{322, 700}";
}
);
associatedMasterId = "CCC6267B-7D5D-4B2E-A229-3A2D752D6A18";
layerId = "CAB2C593-8257-452D-AC49-3ACB7F11BF7E";
name = MG;
paths = (
{
closed = 1;
nodes = (
"66 0 LINE",
"198 0 LINE",
"198 634 LINE",
"216 634 LINE",
"316 0 LINE",
"574 0 LINE",
"574 700 LINE",
"442 700 LINE",
"442 66 LINE",
"424 66 LINE",
"324 700 LINE",
"66 700 LINE"
);
}
);
width = 640;
},
{
anchors = (
{
name = bottom;
position = "{322, 0}";
},
{
name = top;
position = "{320, 700}";
}
);
associatedMasterId = "CCC6267B-7D5D-4B2E-A229-3A2D752D6A18";
layerId = "66497D60-20F1-4E73-B3AD-FF9F26C81D77";
name = MG;
paths = (
{
closed = 1;
nodes = (
"74 0 LINE",
"158 0 LINE",
"158 664 LINE",
"170 664 LINE",
"396 0 LINE",
"566 0 LINE",
"566 700 LINE",
"482 700 LINE",
"482 36 LINE",
"470 36 LINE",
"244 700 LINE",
"74 700 LINE"
);
}
);
width = 640;
},
{
anchors = (
{
name = bottom;
position = "{326, 0}";
},
{
name = top;
position = "{326, 700}";
}
);
layerId = "CCC6267B-7D5D-4B2E-A229-3A2D752D6A18";
paths = (
{
closed = 1;
nodes = (
"72 0 LINE",
"172 0 LINE",
"172 610 LINE",
"184 610 LINE",
"400 0 LINE",
"586 0 LINE",
"586 700 LINE",
"486 700 LINE",
"486 89 LINE",
"474 89 LINE",
"256 700 LINE",
"72 700 LINE"
);
}
);
width = 658;
},
{
anchors = (
{
name = bottom;
position = "{328, 0}";
},
{
name = top;
position = "{330, 700}";
}
);
layerId = "A285862E-BE3D-4D67-A40D-0E28E121AD88";
paths = (
{
closed = 1;
nodes = (
"82 0 LINE",
"136 0 LINE",
"136 636 LINE",
"148 636 LINE",
"476 0 LINE",
"568 0 LINE",
"568 700 LINE",
"514 700 LINE",
"514 64 LINE",
"502 64 LINE",
"174 700 LINE",
"82 700 LINE"
);
}
);
width = 650;
},
{
anchors = (
{
name = bottom;
position = "{332, 0}";
},
{
name = top;
position = "{330, 700}";
}
);
layerId = "5117E3E8-E17C-4812-BAF5-9E7064564A59";
paths = (
{
closed = 1;
nodes = (
"62 0 LINE",
"194 0 LINE",
"194 576 LINE",
"206 576 LINE",
"366 0 LINE",
"600 0 LINE",
"600 700 LINE",
"468 700 LINE",
"468 124 LINE",
"456 124 LINE",
"296 700 LINE",
"62 700 LINE"
);
}
);
width = 662;
}
);
leftKerningGroup = H;
leftMetricsKey = I;
note = N;
rightKerningGroup = H;
rightMetricsKey = I;
unicode = 004E;
},
{
glyphname = Eng;
lastChange = "2018-01-06 10:20:01 +0000";
layers = (
{
layerId = "CCC6267B-7D5D-4B2E-A229-3A2D752D6A18";
paths = (
{
closed = 1;
nodes = (
"310 -200 LINE",
"501 -200 LINE SMOOTH",
"551 -200 OFFCURVE",
"586 -167 OFFCURVE",
"586 -114 CURVE SMOOTH",
"586 0 LINE",
"486 0 LINE",
"486 -85 LINE SMOOTH",
"486 -106 OFFCURVE",
"477 -116 OFFCURVE",
"458 -116 CURVE SMOOTH",
"310 -116 LINE"
);
},
{
closed = 1;
nodes = (
"72 0 LINE",
"172 0 LINE",
"172 610 LINE",
"186 610 LINE",
"398 0 LINE",
"586 0 LINE",
"586 700 LINE",
"486 700 LINE",
"486 90 LINE",
"472 90 LINE",
"258 700 LINE",
"72 700 LINE"
);
}
);
width = 658;
},
{
layerId = "A285862E-BE3D-4D67-A40D-0E28E121AD88";
paths = (
{
closed = 1;
nodes = (
"326 -200 LINE",
"437 -200 LINE SMOOTH",
"527 -200 OFFCURVE",
"568 -154 OFFCURVE",
"568 -70 CURVE SMOOTH",
"568 0 LINE",
"512 0 LINE",
"512 -84 LINE SMOOTH",
"512 -126 OFFCURVE",
"496 -150 OFFCURVE",
"444 -150 CURVE SMOOTH",
"326 -150 LINE"
);
},
{
closed = 1;
nodes = (
"82 0 LINE",
"136 0 LINE",
"136 640 LINE",
"146 640 LINE",
"476 0 LINE",
"568 0 LINE",
"568 700 LINE",
"514 700 LINE",
"514 60 LINE",
"504 60 LINE",
"174 700 LINE",
"82 700 LINE"
);
}
);
width = 650;
},
{
layerId = "5117E3E8-E17C-4812-BAF5-9E7064564A59";
paths = (
{
closed = 1;
nodes = (
"293 -200 LINE",
"499 -200 LINE SMOOTH",
"559 -200 OFFCURVE",
"600 -167 OFFCURVE",
"600 -98 CURVE SMOOTH",
"600 0 LINE",
"468 0 LINE",
"468 -53 LINE SMOOTH",
"468 -75 OFFCURVE",
"458 -86 OFFCURVE",
"438 -86 CURVE SMOOTH",
"293 -86 LINE"
);
},
{
closed = 1;
nodes = (
"62 0 LINE",
"194 0 LINE",
"194 578 LINE",
"208 578 LINE",
"362 0 LINE",
"600 0 LINE",
"600 700 LINE",
"468 700 LINE",
"468 122 LINE",
"454 122 LINE",
"300 700 LINE",
"62 700 LINE"
);
}
);
width = 662;
}
);
leftKerningGroup = H;
leftMetricsKey = N;
note = Eng;
rightKerningGroup = H;
rightMetricsKey = N;
unicode = 014A;
},
{
glyphname = O;
lastChange = "2018-01-05 16:33:53 +0000";
layers = (
{
anchors = (
{
name = bottom;
position = "{304, 0}";
},
{
name = top;
position = "{304, 700}";
}
);
associatedMasterId = "CCC6267B-7D5D-4B2E-A229-3A2D752D6A18";
layerId = "DDF579E7-3AFD-4AE1-8CF7-0B57AD438C7B";
name = original;
paths = (
{
closed = 1;
nodes = (
"38 272 LINE SMOOTH",
"38 85 OFFCURVE",
"139 -14 OFFCURVE",
"304 -14 CURVE SMOOTH",
"469 -14 OFFCURVE",
"570 85 OFFCURVE",
"570 272 CURVE SMOOTH",
"570 428 LINE SMOOTH",
"570 609 OFFCURVE",
"469 714 OFFCURVE",
"304 714 CURVE SMOOTH",
"139 714 OFFCURVE",
"38 609 OFFCURVE",
"38 428 CURVE SMOOTH"
);
},
{
closed = 1;
nodes = (
"170 529 OFFCURVE",
"213 594 OFFCURVE",
"304 594 CURVE SMOOTH",
"392 594 OFFCURVE",
"438 533 OFFCURVE",
"438 436 CURVE SMOOTH",
"438 264 LINE SMOOTH",
"438 169 OFFCURVE",
"403 106 OFFCURVE",
"304 106 CURVE SMOOTH",
"208 106 OFFCURVE",
"170 165 OFFCURVE",
"170 264 CURVE SMOOTH",
"170 436 LINE SMOOTH"
);
}
);
width = 608;
},
{
anchors = (
{
name = bottom;
position = "{321, 0}";
},
{
name = top;
position = "{320, 700}";
}
);
layerId = "CCC6267B-7D5D-4B2E-A229-3A2D752D6A18";
paths = (
{
closed = 1;
nodes = (
"48 272 LINE SMOOTH",
"48 92 OFFCURVE",
"150 -14 OFFCURVE",
"320 -14 CURVE SMOOTH",
"490 -14 OFFCURVE",
"592 92 OFFCURVE",
"592 272 CURVE SMOOTH",
"592 428 LINE SMOOTH",
"592 608 OFFCURVE",
"486 714 OFFCURVE",
"320 714 CURVE SMOOTH",
"150 714 OFFCURVE",
"48 608 OFFCURVE",
"48 428 CURVE SMOOTH"
);
},
{
closed = 1;
nodes = (
"148 554 OFFCURVE",
"204 622 OFFCURVE",
"320 622 CURVE SMOOTH",
"436 622 OFFCURVE",
"492 554 OFFCURVE",
"492 430 CURVE SMOOTH",
"492 270 LINE SMOOTH",
"492 146 OFFCURVE",
"436 78 OFFCURVE",
"320 78 CURVE SMOOTH",
"204 78 OFFCURVE",
"148 146 OFFCURVE",
"148 270 CURVE SMOOTH",
"148 430 LINE SMOOTH"
);
}
);
width = 640;
},
{
anchors = (
{
name = bottom;
position = "{322, 0}";
},
{
name = top;
position = "{322, 700}";
}
);
layerId = "5117E3E8-E17C-4812-BAF5-9E7064564A59";
paths = (
{
closed = 1;
nodes = (
"34 276 LINE SMOOTH",
"34 92 OFFCURVE",
"143 -14 OFFCURVE",
"322 -14 CURVE SMOOTH",
"501 -14 OFFCURVE",
"610 92 OFFCURVE",
"610 276 CURVE SMOOTH",
"610 424 LINE SMOOTH",
"610 603 OFFCURVE",
"501 714 OFFCURVE",
"322 714 CURVE SMOOTH",
"143 714 OFFCURVE",
"34 603 OFFCURVE",
"34 424 CURVE SMOOTH"
);
},
{
closed = 1;
nodes = (
"166 523 OFFCURVE",
"221 594 OFFCURVE",
"322 594 CURVE SMOOTH",
"420 594 OFFCURVE",
"478 527 OFFCURVE",
"478 428 CURVE SMOOTH",
"478 272 LINE SMOOTH",
"478 175 OFFCURVE",
"431 106 OFFCURVE",
"322 106 CURVE SMOOTH",
"216 106 OFFCURVE",
"166 171 OFFCURVE",
"166 272 CURVE SMOOTH",
"166 428 LINE SMOOTH"
);
}
);
width = 644;
},
{
anchors = (
{
name = bottom;
position = "{333, 0}";
},
{
name = top;
position = "{330, 700}";
}
);
layerId = "A285862E-BE3D-4D67-A40D-0E28E121AD88";
paths = (
{
closed = 1;
nodes = (
"64 272 LINE SMOOTH",
"64 84 OFFCURVE",
"168 -14 OFFCURVE",
"330 -14 CURVE SMOOTH",
"492 -14 OFFCURVE",
"596 84 OFFCURVE",
"596 272 CURVE SMOOTH",
"596 428 LINE SMOOTH",
"596 616 OFFCURVE",
"492 714 OFFCURVE",
"330 714 CURVE SMOOTH",
"168 714 OFFCURVE",
"64 616 OFFCURVE",
"64 428 CURVE SMOOTH"
);
},
{
closed = 1;
nodes = (
"118 578 OFFCURVE",
"196 666 OFFCURVE",
"330 666 CURVE SMOOTH",
"464 666 OFFCURVE",
"542 578 OFFCURVE",
"542 432 CURVE SMOOTH",
"542 268 LINE SMOOTH",
"542 122 OFFCURVE",
"464 34 OFFCURVE",
"330 34 CURVE SMOOTH",
"196 34 OFFCURVE",
"118 122 OFFCURVE",
"118 268 CURVE SMOOTH",
"118 432 LINE SMOOTH"
);
}
);
width = 660;
}
);
leftKerningGroup = O;
note = O;
rightKerningGroup = O;
unicode = 004F;
},
{
glyphname = OE;
lastChange = "2017-11-11 15:36:59 +0000";
layers = (
{
layerId = "CCC6267B-7D5D-4B2E-A229-3A2D752D6A18";
paths = (
{
closed = 1;
nodes = (
"290 90 LINE",
"200 90 OFFCURVE",
"154 156 OFFCURVE",
"154 276 CURVE SMOOTH",
"154 424 LINE SMOOTH",
"154 544 OFFCURVE",
"200 610 OFFCURVE",
"290 610 CURVE",
"290 700 LINE",
"142 700 OFFCURVE",
"54 596 OFFCURVE",
"54 418 CURVE SMOOTH",
"54 282 LINE SMOOTH",
"54 104 OFFCURVE",
"142 0 OFFCURVE",
"290 0 CURVE"
);
},
{
closed = 1;
nodes = (
"290 0 LINE",
"534 0 LINE",
"534 92 LINE",
"390 92 LINE",
"390 305 LINE",
"504 305 LINE",
"504 397 LINE",
"390 397 LINE",
"390 608 LINE",
"528 608 LINE",
"528 700 LINE",
"290 700 LINE"
);
}
);
width = 620;
},
{
layerId = "A285862E-BE3D-4D67-A40D-0E28E121AD88";
paths = (
{
closed = 1;
nodes = (
"310 46 LINE",
"184 46 OFFCURVE",
"116 134 OFFCURVE",
"116 280 CURVE SMOOTH",
"116 420 LINE SMOOTH",
"116 566 OFFCURVE",
"184 654 OFFCURVE",
"310 654 CURVE",
"310 700 LINE",
"156 700 OFFCURVE",
"62 602 OFFCURVE",
"62 414 CURVE SMOOTH",
"62 286 LINE SMOOTH",
"62 98 OFFCURVE",
"156 0 OFFCURVE",
"310 0 CURVE"
);
},
{
closed = 1;
nodes = (
"310 0 LINE",
"524 0 LINE",
"524 48 LINE",
"364 48 LINE",
"364 327 LINE",
"496 327 LINE",
"496 375 LINE",
"364 375 LINE",
"364 652 LINE",
"520 652 LINE",
"520 700 LINE",
"310 700 LINE"
);
}
);
width = 620;
},
{
layerId = "5117E3E8-E17C-4812-BAF5-9E7064564A59";
paths = (
{
closed = 1;
nodes = (
"286 120 LINE",
"204 120 OFFCURVE",
"178 179 OFFCURVE",
"178 278 CURVE SMOOTH",
"178 422 LINE SMOOTH",
"178 515 OFFCURVE",
"209 580 OFFCURVE",
"286 580 CURVE",
"286 700 LINE",
"135 700 OFFCURVE",
"46 595 OFFCURVE",
"46 414 CURVE SMOOTH",
"46 286 LINE SMOOTH",
"46 99 OFFCURVE",
"135 0 OFFCURVE",
"286 0 CURVE"
);
},
{
closed = 1;
nodes = (
"286 0 LINE",
"540 0 LINE",
"540 124 LINE",
"418 124 LINE",
"418 289 LINE",
"508 289 LINE",
"508 413 LINE",
"418 413 LINE",
"418 576 LINE",
"534 576 LINE",
"534 700 LINE",
"286 700 LINE"
);
}
);
width = 620;
}
);
leftKerningGroup = O;
note = OE;
rightKerningGroup = E;
unicode = 0152;
},
{
glyphname = P;
lastChange = "2017-12-13 09:00:42 +0000";
layers = (
{
layerId = "CCC6267B-7D5D-4B2E-A229-3A2D752D6A18";
paths = (
{
closed = 1;
nodes = (
"72 0 LINE",
"172 0 LINE",
"172 280 LINE",
"344 280 LINE SMOOTH",
"469 280 OFFCURVE",
"560 363 OFFCURVE",
"560 490 CURVE SMOOTH",
"560 617 OFFCURVE",
"472 700 OFFCURVE",
"344 700 CURVE SMOOTH",
"72 700 LINE"
);
},
{
closed = 1;
nodes = (
"333 608 LINE SMOOTH",
"416 608 OFFCURVE",
"460 566 OFFCURVE",
"460 490 CURVE SMOOTH",
"460 414 OFFCURVE",
"414 372 OFFCURVE",
"333 372 CURVE SMOOTH",
"172 372 LINE",
"172 608 LINE"
);
}
);
width = 586;
},
{
layerId = "A285862E-BE3D-4D67-A40D-0E28E121AD88";
paths = (
{
closed = 1;
nodes = (
"82 0 LINE",
"136 0 LINE",
"136 298 LINE",
"336 298 LINE SMOOTH",
"458 298 OFFCURVE",
"554 371 OFFCURVE",
"554 499 CURVE SMOOTH",
"554 627 OFFCURVE",
"458 700 OFFCURVE",
"336 700 CURVE SMOOTH",
"82 700 LINE"
);
},
{
closed = 1;
nodes = (
"330 652 LINE SMOOTH",
"438 652 OFFCURVE",
"500 596 OFFCURVE",
"500 499 CURVE SMOOTH",
"500 402 OFFCURVE",
"438 346 OFFCURVE",
"330 346 CURVE SMOOTH",
"136 346 LINE",
"136 652 LINE"
);
}
);
width = 588;
},
{
layerId = "5117E3E8-E17C-4812-BAF5-9E7064564A59";
paths = (
{
closed = 1;
nodes = (
"62 0 LINE",
"194 0 LINE",
"194 256 LINE",
"350 256 LINE SMOOTH",
"479 256 OFFCURVE",
"574 344 OFFCURVE",
"574 478 CURVE SMOOTH",
"574 612 OFFCURVE",
"482 700 OFFCURVE",
"350 700 CURVE SMOOTH",
"62 700 LINE"
);
},
{
closed = 1;
nodes = (
"337 576 LINE SMOOTH",
"400 576 OFFCURVE",
"442 538 OFFCURVE",
"442 478 CURVE SMOOTH",
"442 418 OFFCURVE",
"400 380 OFFCURVE",
"337 380 CURVE SMOOTH",
"194 380 LINE",
"194 576 LINE"
);
}
);
width = 590;
}
);
leftKerningGroup = H;
leftMetricsKey = I;
note = P;
rightKerningGroup = P;
unicode = 0050;
},
{
glyphname = Thorn;
lastChange = "2017-12-13 09:03:59 +0000";
layers = (
{
layerId = "CCC6267B-7D5D-4B2E-A229-3A2D752D6A18";
paths = (
{
closed = 1;
nodes = (
"72 0 LINE",
"172 0 LINE",
"172 150 LINE",
"344 150 LINE SMOOTH",
"469 150 OFFCURVE",
"560 233 OFFCURVE",
"560 360 CURVE SMOOTH",
"560 487 OFFCURVE",
"472 570 OFFCURVE",
"344 570 CURVE SMOOTH",
"172 570 LINE",
"172 700 LINE",
"72 700 LINE"
);
},
{
closed = 1;
nodes = (
"333 478 LINE SMOOTH",
"416 478 OFFCURVE",
"460 436 OFFCURVE",
"460 360 CURVE SMOOTH",
"460 284 OFFCURVE",
"414 242 OFFCURVE",
"333 242 CURVE SMOOTH",
"172 242 LINE",
"172 478 LINE"
);
}
);
width = 586;
},
{
layerId = "A285862E-BE3D-4D67-A40D-0E28E121AD88";
paths = (
{
closed = 1;
nodes = (
"82 0 LINE",
"136 0 LINE",
"136 159 LINE",
"336 159 LINE SMOOTH",
"458 159 OFFCURVE",
"554 232 OFFCURVE",
"554 360 CURVE SMOOTH",
"554 488 OFFCURVE",
"458 561 OFFCURVE",
"336 561 CURVE SMOOTH",
"136 561 LINE",
"136 700 LINE",
"82 700 LINE"
);
},
{
closed = 1;
nodes = (
"330 513 LINE SMOOTH",
"438 513 OFFCURVE",
"500 457 OFFCURVE",
"500 360 CURVE SMOOTH",
"500 263 OFFCURVE",
"438 207 OFFCURVE",
"330 207 CURVE SMOOTH",
"136 207 LINE",
"136 513 LINE"
);
}
);
width = 588;
},
{
layerId = "5117E3E8-E17C-4812-BAF5-9E7064564A59";
paths = (
{
closed = 1;
nodes = (
"62 0 LINE",
"194 0 LINE",
"194 138 LINE",
"350 138 LINE SMOOTH",
"479 138 OFFCURVE",
"574 226 OFFCURVE",
"574 360 CURVE SMOOTH",
"574 494 OFFCURVE",
"482 582 OFFCURVE",
"350 582 CURVE SMOOTH",
"194 582 LINE",
"194 700 LINE",
"62 700 LINE"
);
},
{
closed = 1;
nodes = (
"337 458 LINE SMOOTH",
"400 458 OFFCURVE",
"442 420 OFFCURVE",
"442 360 CURVE SMOOTH",
"442 300 OFFCURVE",
"400 262 OFFCURVE",
"337 262 CURVE SMOOTH",
"194 262 LINE",
"194 458 LINE"
);
}
);
width = 590;
}
);
leftKerningGroup = H;
leftMetricsKey = I;
note = Thorn;
rightMetricsKey = P;
unicode = 00DE;
},
{
glyphname = Q;
lastChange = "2017-12-13 15:01:47 +0000";
layers = (
{
layerId = "CCC6267B-7D5D-4B2E-A229-3A2D752D6A18";
paths = (
{
closed = 1;
nodes = (
"48 272 LINE SMOOTH",
"48 92 OFFCURVE",
"150 -14 OFFCURVE",
"320 -14 CURVE SMOOTH",
"490 -14 OFFCURVE",
"592 92 OFFCURVE",
"592 272 CURVE SMOOTH",
"592 428 LINE SMOOTH",
"592 608 OFFCURVE",
"486 714 OFFCURVE",
"320 714 CURVE SMOOTH",
"150 714 OFFCURVE",
"48 608 OFFCURVE",
"48 428 CURVE SMOOTH"
);
},
{
closed = 1;
nodes = (
"148 554 OFFCURVE",
"204 622 OFFCURVE",
"320 622 CURVE SMOOTH",
"436 622 OFFCURVE",
"492 554 OFFCURVE",
"492 430 CURVE SMOOTH",
"492 270 LINE SMOOTH",
"492 146 OFFCURVE",
"436 78 OFFCURVE",
"320 78 CURVE SMOOTH",
"204 78 OFFCURVE",
"148 146 OFFCURVE",
"148 270 CURVE SMOOTH",
"148 430 LINE SMOOTH"
);
},
{
closed = 1;
nodes = (
"270 -91 LINE SMOOTH",
"270 -141 OFFCURVE",
"304 -175 OFFCURVE",
"352 -175 CURVE SMOOTH",
"451 -175 LINE",
"451 -87 LINE",
"398 -87 LINE SMOOTH",
"380 -87 OFFCURVE",
"370 -77 OFFCURVE",
"370 -57 CURVE SMOOTH",
"370 0 LINE",
"270 0 LINE"
);
}
);
width = 640;
},
{
layerId = "A285862E-BE3D-4D67-A40D-0E28E121AD88";
paths = (
{
closed = 1;
nodes = (
"64 272 LINE SMOOTH",
"64 84 OFFCURVE",
"168 -14 OFFCURVE",
"330 -14 CURVE SMOOTH",
"492 -14 OFFCURVE",
"596 84 OFFCURVE",
"596 272 CURVE SMOOTH",
"596 428 LINE SMOOTH",
"596 616 OFFCURVE",
"492 714 OFFCURVE",
"330 714 CURVE SMOOTH",
"168 714 OFFCURVE",
"64 616 OFFCURVE",
"64 428 CURVE SMOOTH"
);
},
{
closed = 1;
nodes = (
"118 578 OFFCURVE",
"196 666 OFFCURVE",
"330 666 CURVE SMOOTH",
"464 666 OFFCURVE",
"542 578 OFFCURVE",
"542 432 CURVE SMOOTH",
"542 268 LINE SMOOTH",
"542 122 OFFCURVE",
"464 34 OFFCURVE",
"330 34 CURVE SMOOTH",
"196 34 OFFCURVE",
"118 122 OFFCURVE",
"118 268 CURVE SMOOTH",
"118 432 LINE SMOOTH"
);
},
{
closed = 1;
nodes = (
"303 -84 LINE SMOOTH",
"303 -126 OFFCURVE",
"327 -150 OFFCURVE",
"367 -150 CURVE SMOOTH",
"455 -150 LINE",
"455 -102 LINE",
"385 -102 LINE SMOOTH",
"367 -102 OFFCURVE",
"357 -92 OFFCURVE",
"357 -72 CURVE SMOOTH",
"357 0 LINE",
"303 0 LINE"
);
}
);
width = 660;
},
{
layerId = "5117E3E8-E17C-4812-BAF5-9E7064564A59";
paths = (
{
closed = 1;
nodes = (
"34 276 LINE SMOOTH",
"34 92 OFFCURVE",
"143 -14 OFFCURVE",
"322 -14 CURVE SMOOTH",
"501 -14 OFFCURVE",
"610 92 OFFCURVE",
"610 276 CURVE SMOOTH",
"610 424 LINE SMOOTH",
"610 603 OFFCURVE",
"501 714 OFFCURVE",
"322 714 CURVE SMOOTH",
"143 714 OFFCURVE",
"34 603 OFFCURVE",
"34 424 CURVE SMOOTH"
);
},
{
closed = 1;
nodes = (
"166 523 OFFCURVE",
"221 594 OFFCURVE",
"322 594 CURVE SMOOTH",
"420 594 OFFCURVE",
"478 527 OFFCURVE",
"478 428 CURVE SMOOTH",
"478 272 LINE SMOOTH",
"478 175 OFFCURVE",
"431 106 OFFCURVE",
"322 106 CURVE SMOOTH",
"216 106 OFFCURVE",
"166 171 OFFCURVE",
"166 272 CURVE SMOOTH",
"166 428 LINE SMOOTH"
);
},
{
closed = 1;
nodes = (
"256 -84 LINE SMOOTH",
"256 -140 OFFCURVE",
"298 -180 OFFCURVE",
"354 -180 CURVE SMOOTH",
"469 -180 LINE",
"469 -66 LINE",
"416 -66 LINE SMOOTH",
"398 -66 OFFCURVE",
"388 -56 OFFCURVE",
"388 -36 CURVE SMOOTH",
"388 0 LINE",
"256 0 LINE"
);
}
);
width = 644;
}
);
leftKerningGroup = O;
leftMetricsKey = O;
note = Q;
rightKerningGroup = O;
rightMetricsKey = O;
unicode = 0051;
},
{
glyphname = R;
lastChange = "2017-12-13 09:06:07 +0000";
layers = (
{
anchors = (
{
name = bottom;
position = "{311, 0}";
},
{
name = top;
position = "{303, 700}";
}
);
layerId = "CCC6267B-7D5D-4B2E-A229-3A2D752D6A18";
paths = (
{
closed = 1;
nodes = (
"72 0 LINE",
"172 0 LINE",
"172 286 LINE",
"364 286 LINE SMOOTH",
"489 286 OFFCURVE",
"580 368 OFFCURVE",
"580 493 CURVE SMOOTH",
"580 618 OFFCURVE",
"492 700 OFFCURVE",
"364 700 CURVE SMOOTH",
"72 700 LINE"
);
},
{
closed = 1;
nodes = (
"353 608 LINE SMOOTH",
"436 608 OFFCURVE",
"480 567 OFFCURVE",
"480 493 CURVE SMOOTH",
"480 419 OFFCURVE",
"434 378 OFFCURVE",
"353 378 CURVE SMOOTH",
"172 378 LINE",
"172 608 LINE"
);
},
{
closed = 1;
nodes = (
"458 0 LINE",
"568 0 LINE",
"398 316 LINE",
"294 316 LINE"
);
}
);
width = 616;
},
{
anchors = (
{
name = bottom;
position = "{313, 0}";
},
{
name = top;
position = "{314, 700}";
}
);
layerId = "A285862E-BE3D-4D67-A40D-0E28E121AD88";
paths = (
{
closed = 1;
nodes = (
"82 0 LINE",
"136 0 LINE",
"136 306 LINE",
"356 306 LINE SMOOTH",
"478 306 OFFCURVE",
"574 377 OFFCURVE",
"574 503 CURVE SMOOTH",
"574 629 OFFCURVE",
"478 700 OFFCURVE",
"356 700 CURVE SMOOTH",
"82 700 LINE"
);
},
{
closed = 1;
nodes = (
"350 652 LINE SMOOTH",
"458 652 OFFCURVE",
"520 598 OFFCURVE",
"520 503 CURVE SMOOTH",
"520 408 OFFCURVE",
"458 354 OFFCURVE",
"350 354 CURVE SMOOTH",
"136 354 LINE",
"136 652 LINE"
);
},
{
closed = 1;
nodes = (
"494 0 LINE",
"554 0 LINE",
"380 316 LINE",
"324 316 LINE"
);
}
);
width = 614;
},
{
anchors = (
{
name = bottom;
position = "{311, 0}";
},
{
name = top;
position = "{301, 700}";
}
);
layerId = "5117E3E8-E17C-4812-BAF5-9E7064564A59";
paths = (
{
closed = 1;
nodes = (
"62 0 LINE",
"194 0 LINE",
"194 259 LINE",
"370 259 LINE SMOOTH",
"499 259 OFFCURVE",
"594 346 OFFCURVE",
"594 479 CURVE SMOOTH",
"594 612 OFFCURVE",
"502 699 OFFCURVE",
"370 699 CURVE SMOOTH",
"62 699 LINE"
);
},
{
closed = 1;
nodes = (
"357 575 LINE SMOOTH",
"420 575 OFFCURVE",
"462 538 OFFCURVE",
"462 479 CURVE SMOOTH",
"462 420 OFFCURVE",
"420 383 OFFCURVE",
"357 383 CURVE SMOOTH",
"194 383 LINE",
"194 575 LINE"
);
},
{
closed = 1;
nodes = (
"440 0 LINE",
"586 0 LINE",
"420 316 LINE",
"282 316 LINE"
);
}
);
width = 626;
}
);
leftKerningGroup = H;
leftMetricsKey = I;
note = R;
rightKerningGroup = R;
unicode = 0052;
},
{
glyphname = S;
lastChange = "2018-01-06 13:33:00 +0000";
layers = (
{
anchors = (
{
name = bottom;
position = "{312, 0}";
},
{
name = top;
position = "{297, 700}";
}
);
layerId = "CCC6267B-7D5D-4B2E-A229-3A2D752D6A18";
paths = (
{
closed = 1;
nodes = (
"64 520 CURVE SMOOTH",
"64 390 OFFCURVE",
"155 343 OFFCURVE",
"280 316 CURVE SMOOTH",
"326 306 LINE SMOOTH",
"415 287 OFFCURVE",
"460 260 OFFCURVE",
"460 193 CURVE SMOOTH",
"460 126 OFFCURVE",
"404 76 OFFCURVE",
"311 76 CURVE SMOOTH",
"196 76 OFFCURVE",
"132 137 OFFCURVE",
"132 248 CURVE SMOOTH",
"132 272 LINE",
"32 272 LINE",
"32 240 LINE SMOOTH",
"32 86 OFFCURVE",
"139 -14 OFFCURVE",
"310 -14 CURVE SMOOTH",
"454 -14 OFFCURVE",
"560 67 OFFCURVE",
"560 196 CURVE SMOOTH",
"560 316 OFFCURVE",
"481 372 OFFCURVE",
"351 400 CURVE SMOOTH",
"305 410 LINE SMOOTH",
"206 432 OFFCURVE",
"164 457 OFFCURVE",
"164 521 CURVE SMOOTH",
"164 583 OFFCURVE",
"220 624 OFFCURVE",
"298 624 CURVE SMOOTH",
"390 624 OFFCURVE",
"454 576 OFFCURVE",
"454 486 CURVE SMOOTH",
"454 462 LINE",
"554 462 LINE",
"554 494 LINE SMOOTH",
"554 637 OFFCURVE",
"443 714 OFFCURVE",
"298 714 CURVE SMOOTH",
"168 714 OFFCURVE",
"64 639 OFFCURVE"
);
}
);
width = 604;
},
{
anchors = (
{
name = bottom;
position = "{320, 0}";
},
{
name = top;
position = "{308, 700}";
}
);
layerId = "A285862E-BE3D-4D67-A40D-0E28E121AD88";
paths = (
{
closed = 1;
nodes = (
"82 531 CURVE SMOOTH",
"82 416 OFFCURVE",
"158 371 OFFCURVE",
"271 344 CURVE SMOOTH",
"341 327 LINE SMOOTH",
"437 304 OFFCURVE",
"502 267 OFFCURVE",
"502 184 CURVE SMOOTH",
"502 98 OFFCURVE",
"433 34 OFFCURVE",
"315 34 CURVE SMOOTH",
"187 34 OFFCURVE",
"104 100 OFFCURVE",
"104 248 CURVE SMOOTH",
"104 272 LINE",
"50 272 LINE",
"50 245 LINE SMOOTH",
"50 79 OFFCURVE",
"146 -14 OFFCURVE",
"316 -14 CURVE SMOOTH",
"454 -14 OFFCURVE",
"556 63 OFFCURVE",
"556 184 CURVE SMOOTH",
"556 296 OFFCURVE",
"478 346 OFFCURVE",
"365 373 CURVE SMOOTH",
"295 390 LINE SMOOTH",
"197 414 OFFCURVE",
"136 443 OFFCURVE",
"136 531 CURVE SMOOTH",
"136 617 OFFCURVE",
"218 666 OFFCURVE",
"310 666 CURVE SMOOTH",
"412 666 OFFCURVE",
"504 615 OFFCURVE",
"504 505 CURVE SMOOTH",
"504 462 LINE",
"558 462 LINE",
"558 508 LINE SMOOTH",
"558 642 OFFCURVE",
"450 714 OFFCURVE",
"312 714 CURVE SMOOTH",
"182 714 OFFCURVE",
"82 639 OFFCURVE"
);
}
);
width = 614;
},
{
anchors = (
{
name = bottom;
position = "{317, 0}";
},
{
name = top;
position = "{303, 700}";
}
);
layerId = "5117E3E8-E17C-4812-BAF5-9E7064564A59";
paths = (
{
closed = 1;
nodes = (
"60 511 CURVE SMOOTH",
"60 384 OFFCURVE",
"141 335 OFFCURVE",
"291 302 CURVE SMOOTH",
"300 300 LINE SMOOTH",
"392 280 OFFCURVE",
"444 261 OFFCURVE",
"444 200 CURVE SMOOTH",
"444 149 OFFCURVE",
"404 104 OFFCURVE",
"319 104 CURVE SMOOTH",
"213 104 OFFCURVE",
"164 162 OFFCURVE",
"164 248 CURVE SMOOTH",
"164 264 LINE",
"34 264 LINE",
"34 242 LINE SMOOTH",
"34 78 OFFCURVE",
"144 -14 OFFCURVE",
"315 -14 CURVE SMOOTH",
"464 -14 OFFCURVE",
"574 65 OFFCURVE",
"574 206 CURVE SMOOTH",
"574 333 OFFCURVE",
"489 384 OFFCURVE",
"345 416 CURVE SMOOTH",
"336 418 LINE SMOOTH",
"252 437 OFFCURVE",
"190 449 OFFCURVE",
"190 514 CURVE SMOOTH",
"190 561 OFFCURVE",
"233 596 OFFCURVE",
"303 596 CURVE SMOOTH",
"383 596 OFFCURVE",
"434 561 OFFCURVE",
"434 482 CURVE SMOOTH",
"434 462 LINE",
"562 462 LINE",
"562 492 LINE SMOOTH",
"562 632 OFFCURVE",
"453 714 OFFCURVE",
"303 714 CURVE SMOOTH",
"167 714 OFFCURVE",
"60 636 OFFCURVE"
);
}
);
width = 616;
}
);
leftKerningGroup = S;
note = S;
rightKerningGroup = S;
unicode = 0053;
},
{
glyphname = T;
lastChange = "2018-01-05 12:52:24 +0000";
layers = (
{
anchors = (
{
name = bottom;
position = "{296, 0}";
},
{
name = stroke;
position = "{296, 496}";
},
{
name = top;
position = "{296, 700}";
}
);
layerId = "CCC6267B-7D5D-4B2E-A229-3A2D752D6A18";
paths = (
{
closed = 1;
nodes = (
"20 608 LINE",
"246 608 LINE",
"246 0 LINE",
"346 0 LINE",
"346 608 LINE",
"572 608 LINE",
"572 700 LINE",
"20 700 LINE"
);
}
);
width = 592;
},
{
anchors = (
{
name = bottom;
position = "{295, 0}";
},
{
name = stroke;
position = "{294, 496}";
},
{
name = top;
position = "{294, 700}";
}
);
layerId = "A285862E-BE3D-4D67-A40D-0E28E121AD88";
paths = (
{
closed = 1;
nodes = (
"22 652 LINE",
"267 652 LINE",
"267 0 LINE",
"321 0 LINE",
"321 652 LINE",
"566 652 LINE",
"566 700 LINE",
"22 700 LINE"
);
}
);
width = 588;
},
{
anchors = (
{
name = bottom;
position = "{292, 0}";
},
{
name = stroke;
position = "{292, 496}";
},
{
name = top;
position = "{292, 700}";
}
);
layerId = "5117E3E8-E17C-4812-BAF5-9E7064564A59";
paths = (
{
closed = 1;
nodes = (
"14 578 LINE",
"226 578 LINE",
"226 0 LINE",
"358 0 LINE",
"358 578 LINE",
"570 578 LINE",
"570 700 LINE",
"14 700 LINE"
);
}
);
width = 584;
}
);
leftKerningGroup = T;
note = T;
rightKerningGroup = T;
unicode = 0054;
},
{
glyphname = U;
lastChange = "2018-01-05 15:58:12 +0000";
layers = (
{
anchors = (
{
name = bottom;
position = "{333, 0}";
},
{
name = top;
position = "{332, 700}";
}
);
layerId = "CCC6267B-7D5D-4B2E-A229-3A2D752D6A18";
paths = (
{
closed = 1;
nodes = (
"70 236 LINE SMOOTH",
"70 74 OFFCURVE",
"166 -14 OFFCURVE",
"332 -14 CURVE SMOOTH",
"498 -14 OFFCURVE",
"594 74 OFFCURVE",
"594 236 CURVE SMOOTH",
"594 700 LINE",
"494 700 LINE",
"494 236 LINE SMOOTH",
"494 133 OFFCURVE",
"440 78 OFFCURVE",
"332 78 CURVE SMOOTH",
"224 78 OFFCURVE",
"170 133 OFFCURVE",
"170 236 CURVE SMOOTH",
"170 700 LINE",
"70 700 LINE"
);
}
);
width = 664;
},
{
anchors = (
{
name = bottom;
position = "{329, 0}";
},
{
name = top;
position = "{326, 700}";
}
);
layerId = "A285862E-BE3D-4D67-A40D-0E28E121AD88";
paths = (
{
closed = 1;
nodes = (
"78 227 LINE SMOOTH",
"78 62 OFFCURVE",
"180 -14 OFFCURVE",
"326 -14 CURVE SMOOTH",
"472 -14 OFFCURVE",
"574 62 OFFCURVE",
"574 227 CURVE SMOOTH",
"574 700 LINE",
"520 700 LINE",
"520 227 LINE SMOOTH",
"520 96 OFFCURVE",
"448 34 OFFCURVE",
"326 34 CURVE SMOOTH",
"204 34 OFFCURVE",
"132 96 OFFCURVE",
"132 227 CURVE SMOOTH",
"132 700 LINE",
"78 700 LINE"
);
}
);
width = 652;
},
{
anchors = (
{
name = bottom;
position = "{332, 0}";
},
{
name = top;
position = "{332, 700}";
}
);
layerId = "5117E3E8-E17C-4812-BAF5-9E7064564A59";
paths = (
{
closed = 1;
nodes = (
"58 248 LINE SMOOTH",
"58 88 OFFCURVE",
"157 -14 OFFCURVE",
"332 -14 CURVE SMOOTH",
"507 -14 OFFCURVE",
"606 88 OFFCURVE",
"606 248 CURVE SMOOTH",
"606 700 LINE",
"474 700 LINE",
"474 246 LINE SMOOTH",
"474 161 OFFCURVE",
"423 108 OFFCURVE",
"332 108 CURVE SMOOTH",
"241 108 OFFCURVE",
"190 161 OFFCURVE",
"190 246 CURVE SMOOTH",
"190 700 LINE",
"58 700 LINE"
);
}
);
width = 664;
}
);
leftKerningGroup = U;
note = U;
rightKerningGroup = U;
unicode = 0055;
},
{
glyphname = V;
lastChange = "2018-01-10 11:34:01 +0000";
layers = (
{
associatedMasterId = "CCC6267B-7D5D-4B2E-A229-3A2D752D6A18";
layerId = "B7562D3A-F81F-4F8C-8EE3-16D8F735AD43";
name = "Feb 12 17, 17:39";
paths = (
{
closed = 1;
nodes = (
"186 0 LINE",
"434 0 LINE",
"600 700 LINE",
"462 700 LINE",
"319 66 LINE",
"301 66 LINE",
"158 700 LINE",
"20 700 LINE"
);
}
);
width = 620;
},
{
layerId = "CCC6267B-7D5D-4B2E-A229-3A2D752D6A18";
paths = (
{
closed = 1;
nodes = (
"229 0 LINE",
"387 0 LINE",
"602 700 LINE",
"494 700 LINE",
"315 92 LINE",
"301 92 LINE",
"122 700 LINE",
"14 700 LINE"
);
}
);
width = 616;
},
{
layerId = "A285862E-BE3D-4D67-A40D-0E28E121AD88";
paths = (
{
closed = 1;
nodes = (
"265 0 LINE",
"343 0 LINE",
"588 700 LINE",
"530 700 LINE",
"309 54 LINE",
"299 54 LINE",
"78 700 LINE",
"20 700 LINE"
);
}
);
width = 608;
},
{
layerId = "5117E3E8-E17C-4812-BAF5-9E7064564A59";
paths = (
{
closed = 1;
nodes = (
"206 0 LINE",
"414 0 LINE",
"608 700 LINE",
"472 700 LINE",
"317 117 LINE",
"303 117 LINE",
"148 700 LINE",
"12 700 LINE"
);
}
);
width = 620;
}
);
leftKerningGroup = V;
note = V;
rightKerningGroup = V;
unicode = 0056;
},
{
glyphname = W;
lastChange = "2018-01-05 17:05:49 +0000";
layers = (
{
anchors = (
{
name = top;
position = "{304, 700}";
}
);
associatedMasterId = "CCC6267B-7D5D-4B2E-A229-3A2D752D6A18";
layerId = "5379184E-A7BF-4961-BF09-2A6EAF857066";
name = original;
paths = (
{
closed = 1;
nodes = (
"30 0 LINE",
"260 0 LINE",
"292 532 LINE",
"292 628 LINE",
"316 628 LINE",
"316 532 LINE",
"348 0 LINE",
"578 0 LINE",
"602 700 LINE",
"482 700 LINE",
"466 168 LINE",
"466 78 LINE",
"442 78 LINE",
"442 168 LINE",
"410 700 LINE",
"198 700 LINE",
"166 168 LINE",
"166 78 LINE",
"142 78 LINE",
"142 168 LINE",
"126 700 LINE",
"6 700 LINE"
);
}
);
width = 608;
},
{
anchors = (
{
name = top;
position = "{304, 700}";
}
);
associatedMasterId = "CCC6267B-7D5D-4B2E-A229-3A2D752D6A18";
layerId = "B9CC6B65-089C-4A55-8441-2FAF700CDE4B";
name = original;
paths = (
{
closed = 1;
nodes = (
"80 0 LINE",
"233 0 LINE",
"298 664 LINE",
"298 664 LINE",
"310 664 LINE",
"310 664 LINE",
"375 0 LINE",
"528 0 LINE",
"599 700 LINE",
"523 700 LINE",
"456 36 LINE",
"456 36 LINE",
"444 36 LINE",
"444 36 LINE",
"381 700 LINE",
"227 700 LINE",
"164 36 LINE",
"164 36 LINE",
"152 36 LINE",
"152 36 LINE",
"85 700 LINE",
"9 700 LINE"
);
}
);
width = 608;
},
{
anchors = (
{
name = top;
position = "{390, 700}";
}
);
associatedMasterId = "CCC6267B-7D5D-4B2E-A229-3A2D752D6A18";
layerId = "2B5CC13F-2D15-471F-AEC5-CF7C3F535023";
name = MG;
paths = (
{
closed = 1;
nodes = (
"90 0 LINE",
"318 0 LINE",
"378 532 LINE",
"378 628 LINE",
"402 628 LINE",
"402 532 LINE",
"462 0 LINE",
"690 0 LINE",
"750 700 LINE",
"618 700 LINE",
"578 168 LINE",
"578 78 LINE",
"554 78 LINE",
"554 168 LINE",
"494 700 LINE",
"286 700 LINE",
"226 168 LINE",
"226 78 LINE",
"202 78 LINE",
"202 168 LINE",
"162 700 LINE",
"30 700 LINE"
);
}
);
width = 780;
},
{
anchors = (
{
name = top;
position = "{390, 700}";
}
);
associatedMasterId = "CCC6267B-7D5D-4B2E-A229-3A2D752D6A18";
layerId = "8FFEE055-5846-4DBD-AD34-9E811C559262";
name = MG;
paths = (
{
closed = 1;
nodes = (
"126 0 LINE",
"289 0 LINE",
"384 664 LINE",
"384 664 LINE",
"396 664 LINE",
"396 664 LINE",
"491 0 LINE",
"654 0 LINE",
"748 700 LINE",
"664 700 LINE",
"576 36 LINE",
"576 36 LINE",
"564 36 LINE",
"564 36 LINE",
"471 700 LINE",
"309 700 LINE",
"216 36 LINE",
"216 36 LINE",
"204 36 LINE",
"204 36 LINE",
"116 700 LINE",
"32 700 LINE"
);
}
);
width = 780;
},
{
anchors = (
{
name = top;
position = "{408, 700}";
}
);
layerId = "CCC6267B-7D5D-4B2E-A229-3A2D752D6A18";
paths = (
{
closed = 1;
nodes = (
"124 0 LINE",
"298 0 LINE",
"401 610 LINE",
"415 610 LINE",
"518 0 LINE",
"692 0 LINE",
"788 700 LINE",
"686 700 LINE",
"607 90 LINE",
"593 90 LINE",
"490 700 LINE",
"326 700 LINE",
"223 90 LINE",
"209 90 LINE",
"130 700 LINE",
"28 700 LINE"
);
}
);
width = 816;
},
{
anchors = (
{
name = top;
position = "{436, 700}";
}
);
layerId = "A285862E-BE3D-4D67-A40D-0E28E121AD88";
paths = (
{
closed = 1;
nodes = (
"175 0 LINE",
"268 0 LINE",
"431 640 LINE",
"441 640 LINE",
"604 0 LINE",
"697 0 LINE",
"833 700 LINE",
"777 700 LINE",
"654 60 LINE",
"644 60 LINE",
"481 700 LINE",
"391 700 LINE",
"228 60 LINE",
"218 60 LINE",
"95 700 LINE",
"39 700 LINE"
);
}
);
width = 872;
},
{
anchors = (
{
name = top;
position = "{454, 700}";
}
);
layerId = "5117E3E8-E17C-4812-BAF5-9E7064564A59";
paths = (
{
closed = 1;
nodes = (
"125 0 LINE",
"342 0 LINE",
"447 572 LINE",
"461 572 LINE",
"566 0 LINE",
"783 0 LINE",
"892 700 LINE",
"760 700 LINE",
"677 128 LINE",
"663 128 LINE",
"558 700 LINE",
"350 700 LINE",
"245 128 LINE",
"231 128 LINE",
"148 700 LINE",
"16 700 LINE"
);
}
);
width = 908;
}
);
leftKerningGroup = W;
note = W;
rightKerningGroup = W;
unicode = 0057;
},
{
glyphname = X;
lastChange = "2018-01-05 15:56:53 +0000";
layers = (
{
layerId = "CCC6267B-7D5D-4B2E-A229-3A2D752D6A18";
paths = (
{
closed = 1;
nodes = (
"231 360 LINE",
"231 346 LINE",
"20 0 LINE",
"137 0 LINE",
"300 276 LINE",
"320 276 LINE",
"483 0 LINE",
"600 0 LINE",
"389 346 LINE",
"389 360 LINE",
"596 700 LINE",
"480 700 LINE",
"320 430 LINE",
"300 430 LINE",
"140 700 LINE",
"24 700 LINE"
);
}
);
width = 620;
},
{
layerId = "A285862E-BE3D-4D67-A40D-0E28E121AD88";
paths = (
{
closed = 1;
nodes = (
"265 357 LINE",
"265 349 LINE",
"32 0 LINE",
"98 0 LINE",
"303 312 LINE",
"317 312 LINE",
"522 0 LINE",
"588 0 LINE",
"355 349 LINE",
"355 357 LINE",
"584 700 LINE",
"518 700 LINE",
"317 394 LINE",
"303 394 LINE",
"102 700 LINE",
"36 700 LINE"
);
}
);
width = 620;
},
{
layerId = "5117E3E8-E17C-4812-BAF5-9E7064564A59";
paths = (
{
closed = 1;
nodes = (
"213 360 LINE",
"213 346 LINE",
"16 0 LINE",
"162 0 LINE",
"309 256 LINE",
"323 256 LINE",
"470 0 LINE",
"616 0 LINE",
"419 346 LINE",
"419 360 LINE",
"614 700 LINE",
"468 700 LINE",
"323 450 LINE",
"309 450 LINE",
"164 700 LINE",
"18 700 LINE"
);
}
);
width = 632;
}
);
leftKerningGroup = X;
note = X;
rightKerningGroup = X;
unicode = 0058;
},
{
glyphname = Y;
lastChange = "2018-01-05 15:58:32 +0000";
layers = (
{
anchors = (
{
name = top;
position = "{304, 700}";
}
);
layerId = "CCC6267B-7D5D-4B2E-A229-3A2D752D6A18";
paths = (
{
closed = 1;
nodes = (
"254 259 LINE",
"254 0 LINE",
"354 0 LINE",
"354 259 LINE",
"600 700 LINE",
"486 700 LINE",
"311 377 LINE",
"297 377 LINE",
"122 700 LINE",
"8 700 LINE"
);
}
);
width = 608;
},
{
anchors = (
{
name = top;
position = "{310, 700}";
}
);
layerId = "A285862E-BE3D-4D67-A40D-0E28E121AD88";
paths = (
{
closed = 1;
nodes = (
"283 278 LINE",
"283 0 LINE",
"337 0 LINE",
"337 278 LINE",
"592 700 LINE",
"528 700 LINE",
"315 342 LINE",
"305 342 LINE",
"92 700 LINE",
"28 700 LINE"
);
}
);
width = 620;
},
{
anchors = (
{
name = top;
position = "{310, 700}";
}
);
layerId = "5117E3E8-E17C-4812-BAF5-9E7064564A59";
paths = (
{
closed = 1;
nodes = (
"244 237 LINE",
"244 0 LINE",
"376 0 LINE",
"376 237 LINE",
"622 700 LINE",
"472 700 LINE",
"319 402 LINE",
"301 402 LINE",
"148 700 LINE",
"-2 700 LINE"
);
}
);
width = 620;
}
);
leftKerningGroup = Y;
note = Y;
rightKerningGroup = Y;
unicode = 0059;
},
{
glyphname = Z;
lastChange = "2018-01-05 12:24:33 +0000";
layers = (
{
anchors = (
{
name = bottom;
position = "{312, 0}";
},
{
name = top;
position = "{310, 700}";
}
);
associatedMasterId = "CCC6267B-7D5D-4B2E-A229-3A2D752D6A18";
layerId = "9B77E872-67BB-4597-A0A6-3BEF75A6A292";
name = original;
paths = (
{
closed = 1;
nodes = (
"81 622 LINE",
"477 622 LINE",
"477 610 LINE",
"57 126 LINE",
"57 0 LINE",
"561 0 LINE",
"561 78 LINE",
"129 78 LINE",
"129 90 LINE",
"549 574 LINE",
"549 700 LINE",
"81 700 LINE"
);
}
);
width = 620;
},
{
anchors = (
{
name = bottom;
position = "{310, 0}";
},
{
name = top;
position = "{310, 700}";
}
);
associatedMasterId = "CCC6267B-7D5D-4B2E-A229-3A2D752D6A18";
layerId = "4E62E396-3C35-4B68-871A-F9C91C404E45";
name = original;
paths = (
{
closed = 1;
nodes = (
"57 574 LINE",
"447 574 LINE",
"447 556 LINE",
"51 216 LINE",
"51 0 LINE",
"567 0 LINE",
"567 126 LINE",
"159 126 LINE",
"159 144 LINE",
"555 484 LINE",
"555 700 LINE",
"57 700 LINE"
);
}
);
width = 620;
},
{
anchors = (
{
name = bottom;
position = "{300, 0}";
},
{
name = top;
position = "{291, 700}";
}
);
layerId = "CCC6267B-7D5D-4B2E-A229-3A2D752D6A18";
paths = (
{
closed = 1;
nodes = (
"52 608 LINE",
"407 608 LINE",
"42 88 LINE",
"42 0 LINE",
"535 0 LINE",
"535 92 LINE",
"164 92 LINE",
"529 612 LINE",
"529 700 LINE",
"52 700 LINE"
);
}
);
width = 575;
},
{
anchors = (
{
name = bottom;
position = "{287, 0}";
},
{
name = top;
position = "{286, 700}";
}
);
layerId = "A285862E-BE3D-4D67-A40D-0E28E121AD88";
paths = (
{
closed = 1;
nodes = (
"60 652 LINE",
"469 652 LINE",
"48 44 LINE",
"48 0 LINE",
"544 0 LINE",
"544 48 LINE",
"112 48 LINE",
"533 656 LINE",
"533 700 LINE",
"60 700 LINE"
);
}
);
width = 586;
},
{
anchors = (
{
name = bottom;
position = "{310, 0}";
},
{
name = top;
position = "{302, 700}";
}
);
layerId = "5117E3E8-E17C-4812-BAF5-9E7064564A59";
paths = (
{
closed = 1;
nodes = (
"44 580 LINE",
"380 580 LINE",
"34 116 LINE",
"34 0 LINE",
"548 0 LINE",
"548 120 LINE",
"200 120 LINE",
"546 584 LINE",
"546 700 LINE",
"44 700 LINE"
);
}
);
width = 582;
}
);
leftKerningGroup = Z;
note = Z;
rightKerningGroup = Z;
unicode = 005A;
},
{
glyphname = I.ss02;
lastChange = "2017-11-11 15:41:50 +0000";
layers = (
{
anchors = (
{
name = bottom;
position = "{304, 0}";
},
{
name = top;
position = "{304, 700}";
}
);
associatedMasterId = "CCC6267B-7D5D-4B2E-A229-3A2D752D6A18";
layerId = "7F3A96DF-6844-4739-BF1A-81786C7F9B10";
name = original;
paths = (
{
closed = 1;
nodes = (
"82 622 LINE",
"262 622 LINE",
"262 78 LINE",
"82 78 LINE",
"82 0 LINE",
"526 0 LINE",
"526 78 LINE",
"346 78 LINE",
"346 622 LINE",
"526 622 LINE",
"526 700 LINE",
"82 700 LINE"
);
}
);
width = 608;
},
{
anchors = (
{
name = bottom;
position = "{304, 0}";
},
{
name = top;
position = "{304, 700}";
}
);
associatedMasterId = "CCC6267B-7D5D-4B2E-A229-3A2D752D6A18";
layerId = "EA075CB6-FB79-4795-8A38-91488EF287AD";
name = original;
paths = (
{
closed = 1;
nodes = (
"70 574 LINE",
"238 574 LINE",
"238 126 LINE",
"70 126 LINE",
"70 0 LINE",
"538 0 LINE",
"538 126 LINE",
"370 126 LINE",
"370 574 LINE",
"538 574 LINE",
"538 700 LINE",
"70 700 LINE"
);
}
);
width = 608;
},
{
anchors = (
{
name = bottom;
position = "{176, 0}";
},
{
name = top;
position = "{176, 700}";
}
);
layerId = "CCC6267B-7D5D-4B2E-A229-3A2D752D6A18";
paths = (
{
closed = 1;
nodes = (
"40 612 LINE",
"126 612 LINE",
"126 88 LINE",
"40 88 LINE",
"40 0 LINE",
"312 0 LINE",
"312 88 LINE",
"226 88 LINE",
"226 612 LINE",
"312 612 LINE",
"312 700 LINE",
"40 700 LINE"
);
}
);
width = 352;
},
{
anchors = (
{
name = bottom;
position = "{178, 0}";
},
{
name = top;
position = "{178, 700}";
}
);
layerId = "A285862E-BE3D-4D67-A40D-0E28E121AD88";
paths = (
{
closed = 1;
nodes = (
"42 652 LINE",
"151 652 LINE",
"151 48 LINE",
"42 48 LINE",
"42 0 LINE",
"314 0 LINE",
"314 48 LINE",
"205 48 LINE",
"205 652 LINE",
"314 652 LINE",
"314 700 LINE",
"42 700 LINE"
);
}
);
width = 356;
},
{
anchors = (
{
name = bottom;
position = "{196, 0}";
},
{
name = top;
position = "{196, 700}";
}
);
layerId = "5117E3E8-E17C-4812-BAF5-9E7064564A59";
paths = (
{
closed = 1;
nodes = (
"36 580 LINE",
"130 580 LINE",
"130 120 LINE",
"36 120 LINE",
"36 0 LINE",
"356 0 LINE",
"356 120 LINE",
"262 120 LINE",
"262 580 LINE",
"356 580 LINE",
"356 700 LINE",
"36 700 LINE"
);
}
);
width = 392;
}
);
leftKerningGroup = I.ss02;
note = I;
rightKerningGroup = I.ss02;
},
{
glyphname = IJ.ss02;
lastChange = "2017-11-11 15:43:22 +0000";
layers = (
{
layerId = "CCC6267B-7D5D-4B2E-A229-3A2D752D6A18";
paths = (
{
closed = 1;
nodes = (
"40 612 LINE",
"116 612 LINE",
"116 336 LINE",
"216 336 LINE",
"216 612 LINE",
"292 612 LINE",
"292 700 LINE",
"40 700 LINE"
);
},
{
closed = 1;
nodes = (
"376 612 LINE",
"476 612 LINE",
"476 210 LINE SMOOTH",
"476 130 OFFCURVE",
"443 78 OFFCURVE",
"351 78 CURVE SMOOTH",
"258 78 OFFCURVE",
"216 130 OFFCURVE",
"216 210 CURVE SMOOTH",
"216 248 LINE",
"116 248 LINE",
"116 210 LINE SMOOTH",
"116 66 OFFCURVE",
"203 -14 OFFCURVE",
"352 -14 CURVE SMOOTH",
"499 -14 OFFCURVE",
"576 65 OFFCURVE",
"576 210 CURVE SMOOTH",
"576 612 LINE",
"652 612 LINE",
"652 700 LINE",
"376 700 LINE"
);
}
);
width = 670;
},
{
layerId = "A285862E-BE3D-4D67-A40D-0E28E121AD88";
paths = (
{
closed = 1;
nodes = (
"42 652 LINE",
"132 652 LINE",
"132 343 LINE",
"186 343 LINE",
"186 652 LINE",
"276 652 LINE",
"276 700 LINE",
"42 700 LINE"
);
},
{
closed = 1;
nodes = (
"386 652 LINE",
"496 652 LINE",
"496 210 LINE SMOOTH",
"496 108 OFFCURVE",
"461 34 OFFCURVE",
"348 34 CURVE SMOOTH",
"238 34 OFFCURVE",
"186 107 OFFCURVE",
"186 210 CURVE SMOOTH",
"186 227 LINE",
"132 227 LINE",
"132 210 LINE SMOOTH",
"132 63 OFFCURVE",
"213 -14 OFFCURVE",
"346 -14 CURVE SMOOTH",
"483 -14 OFFCURVE",
"550 65 OFFCURVE",
"550 210 CURVE SMOOTH",
"550 652 LINE",
"640 652 LINE",
"640 700 LINE",
"386 700 LINE"
);
}
);
width = 716;
},
{
layerId = "5117E3E8-E17C-4812-BAF5-9E7064564A59";
paths = (
{
closed = 1;
nodes = (
"36 580 LINE",
"116 580 LINE",
"116 342 LINE",
"248 342 LINE",
"248 580 LINE",
"328 580 LINE",
"328 700 LINE",
"36 700 LINE"
);
},
{
closed = 1;
nodes = (
"396 580 LINE",
"476 580 LINE",
"476 210 LINE SMOOTH",
"476 146 OFFCURVE",
"436 110 OFFCURVE",
"365 110 CURVE SMOOTH",
"290 110 OFFCURVE",
"248 147 OFFCURVE",
"248 210 CURVE SMOOTH",
"248 260 LINE",
"116 260 LINE",
"116 210 LINE SMOOTH",
"116 69 OFFCURVE",
"213 -14 OFFCURVE",
"369 -14 CURVE SMOOTH",
"518 -14 OFFCURVE",
"608 65 OFFCURVE",
"608 210 CURVE SMOOTH",
"608 580 LINE",
"688 580 LINE",
"688 700 LINE",
"396 700 LINE"
);
}
);
width = 720;
}
);
leftMetricsKey = I.ss02;
note = IJ;
rightKerningGroup = J.ss02;
rightMetricsKey = J.ss02;
},
{
glyphname = J.ss02;
lastChange = "2017-11-11 15:44:00 +0000";
layers = (
{
layerId = "CCC6267B-7D5D-4B2E-A229-3A2D752D6A18";
paths = (
{
closed = 1;
nodes = (
"278 612 LINE",
"378 612 LINE",
"378 210 LINE SMOOTH",
"378 130 OFFCURVE",
"345 78 OFFCURVE",
"253 78 CURVE SMOOTH",
"160 78 OFFCURVE",
"118 130 OFFCURVE",
"118 210 CURVE SMOOTH",
"118 268 LINE",
"18 268 LINE",
"18 210 LINE SMOOTH",
"18 66 OFFCURVE",
"105 -14 OFFCURVE",
"254 -14 CURVE SMOOTH",
"401 -14 OFFCURVE",
"478 65 OFFCURVE",
"478 210 CURVE SMOOTH",
"478 612 LINE",
"554 612 LINE",
"554 700 LINE",
"278 700 LINE"
);
}
);
width = 572;
},
{
layerId = "A285862E-BE3D-4D67-A40D-0E28E121AD88";
paths = (
{
closed = 1;
nodes = (
"282 652 LINE",
"406 652 LINE",
"406 210 LINE SMOOTH",
"406 108 OFFCURVE",
"371 34 OFFCURVE",
"258 34 CURVE SMOOTH",
"148 34 OFFCURVE",
"96 107 OFFCURVE",
"96 210 CURVE SMOOTH",
"96 257 LINE",
"42 257 LINE",
"42 210 LINE SMOOTH",
"42 63 OFFCURVE",
"123 -14 OFFCURVE",
"256 -14 CURVE SMOOTH",
"393 -14 OFFCURVE",
"460 65 OFFCURVE",
"460 210 CURVE SMOOTH",
"460 652 LINE",
"530 652 LINE",
"530 700 LINE",
"282 700 LINE"
);
}
);
width = 606;
},
{
layerId = "5117E3E8-E17C-4812-BAF5-9E7064564A59";
paths = (
{
closed = 1;
nodes = (
"228 580 LINE",
"356 580 LINE",
"356 210 LINE SMOOTH",
"356 146 OFFCURVE",
"322 110 OFFCURVE",
"263 110 CURVE SMOOTH",
"200 110 OFFCURVE",
"164 147 OFFCURVE",
"164 210 CURVE SMOOTH",
"164 276 LINE",
"32 276 LINE",
"32 210 LINE SMOOTH",
"32 69 OFFCURVE",
"123 -14 OFFCURVE",
"267 -14 CURVE SMOOTH",
"404 -14 OFFCURVE",
"488 65 OFFCURVE",
"488 210 CURVE SMOOTH",
"488 580 LINE",
"568 580 LINE",
"568 700 LINE",
"228 700 LINE"
);
}
);
width = 600;
}
);
leftKerningGroup = J;
note = J;
rightKerningGroup = J.ss02;
},
{
glyphname = R.ss03;
lastChange = "2018-01-06 13:33:31 +0000";
layers = (
{
anchors = (
{
name = bottom;
position = "{311, 0}";
},
{
name = top;
position = "{303, 700}";
}
);
layerId = "CCC6267B-7D5D-4B2E-A229-3A2D752D6A18";
paths = (
{
closed = 1;
nodes = (
"72 0 LINE",
"172 0 LINE",
"172 280 LINE",
"402 280 LINE SMOOTH",
"442 280 OFFCURVE",
"456 260 OFFCURVE",
"456 226 CURVE SMOOTH",
"456 0 LINE",
"556 0 LINE",
"556 243 LINE SMOOTH",
"556 290 OFFCURVE",
"522 325 OFFCURVE",
"476 329 CURVE",
"476 343 LINE",
"521 364 OFFCURVE",
"578 407 OFFCURVE",
"578 504 CURVE SMOOTH",
"578 617 OFFCURVE",
"497 700 OFFCURVE",
"366 700 CURVE SMOOTH",
"72 700 LINE"
);
},
{
closed = 1;
nodes = (
"352 608 LINE SMOOTH",
"437 608 OFFCURVE",
"478 558 OFFCURVE",
"478 490 CURVE SMOOTH",
"478 422 OFFCURVE",
"437 372 OFFCURVE",
"352 372 CURVE SMOOTH",
"172 372 LINE",
"172 608 LINE"
);
}
);
width = 622;
},
{
anchors = (
{
name = bottom;
position = "{313, 0}";
},
{
name = top;
position = "{311, 700}";
}
);
layerId = "A285862E-BE3D-4D67-A40D-0E28E121AD88";
paths = (
{
closed = 1;
nodes = (
"82 0 LINE",
"136 0 LINE",
"136 302 LINE",
"416 302 LINE SMOOTH",
"464 302 OFFCURVE",
"488 278 OFFCURVE",
"488 234 CURVE SMOOTH",
"488 0 LINE",
"542 0 LINE",
"542 240 LINE SMOOTH",
"542 302 OFFCURVE",
"500 326 OFFCURVE",
"457 327 CURVE",
"457 337 LINE",
"520 354 OFFCURVE",
"576 411 OFFCURVE",
"576 504 CURVE SMOOTH",
"576 625 OFFCURVE",
"485 700 OFFCURVE",
"355 700 CURVE SMOOTH",
"82 700 LINE"
);
},
{
closed = 1;
nodes = (
"349 652 LINE SMOOTH",
"460 652 OFFCURVE",
"520 597 OFFCURVE",
"520 501 CURVE SMOOTH",
"520 405 OFFCURVE",
"460 350 OFFCURVE",
"349 350 CURVE SMOOTH",
"136 350 LINE",
"136 652 LINE"
);
}
);
width = 622;
},
{
anchors = (
{
name = bottom;
position = "{311, 0}";
},
{
name = top;
position = "{301, 700}";
}
);
layerId = "5117E3E8-E17C-4812-BAF5-9E7064564A59";
paths = (
{
closed = 1;
nodes = (
"62 0 LINE",
"194 0 LINE",
"194 264 LINE",
"378 264 LINE SMOOTH",
"417 264 OFFCURVE",
"432 242 OFFCURVE",
"432 210 CURVE SMOOTH",
"432 0 LINE",
"564 0 LINE",
"564 232 LINE SMOOTH",
"564 288 OFFCURVE",
"531 324 OFFCURVE",
"476 327 CURVE",
"476 341 LINE",
"538 366 OFFCURVE",
"584 418 OFFCURVE",
"584 501 CURVE SMOOTH",
"584 620 OFFCURVE",
"497 700 OFFCURVE",
"366 700 CURVE SMOOTH",
"62 700 LINE"
);
},
{
closed = 1;
nodes = (
"352 576 LINE SMOOTH",
"416 576 OFFCURVE",
"452 538 OFFCURVE",
"452 482 CURVE SMOOTH",
"452 426 OFFCURVE",
"416 388 OFFCURVE",
"352 388 CURVE SMOOTH",
"194 388 LINE",
"194 576 LINE"
);
}
);
width = 626;
}
);
leftKerningGroup = H;
leftMetricsKey = I;
note = R;
rightKerningGroup = R;
},
{
glyphname = a;
lastChange = "2018-01-07 12:49:07 +0000";
layers = (
{
anchors = (
{
name = top;
position = "{289, 496}";
}
);
associatedMasterId = "CCC6267B-7D5D-4B2E-A229-3A2D752D6A18";
layerId = "CA2E030E-3618-4245-8AB1-D6C0B8283B63";
name = original;
paths = (
{
closed = 1;
nodes = (
"184 330 LINE",
"199 366 OFFCURVE",
"234 390 OFFCURVE",
"278 390 CURVE SMOOTH",
"337 390 OFFCURVE",
"368 355 OFFCURVE",
"368 312 CURVE SMOOTH",
"368 306 LINE",
"234 306 LINE SMOOTH",
"138 306 OFFCURVE",
"64 242 OFFCURVE",
"64 148 CURVE SMOOTH",
"64 142 LINE SMOOTH",
"64 46 OFFCURVE",
"132 -14 OFFCURVE",
"238 -14 CURVE SMOOTH",
"314 -14 OFFCURVE",
"352 18 OFFCURVE",
"368 66 CURVE",
"386 66 LINE",
"386 66 LINE",
"389 19 OFFCURVE",
"426 0 OFFCURVE",
"474 0 CURVE SMOOTH",
"552 0 LINE",
"552 120 LINE",
"521 120 LINE SMOOTH",
"503 120 OFFCURVE",
"494 130 OFFCURVE",
"494 150 CURVE SMOOTH",
"494 318 LINE SMOOTH",
"494 429 OFFCURVE",
"407 510 OFFCURVE",
"287 510 CURVE SMOOTH",
"197 510 OFFCURVE",
"123 470 OFFCURVE",
"82 392 CURVE"
);
},
{
closed = 1;
nodes = (
"196 178 OFFCURVE",
"214 198 OFFCURVE",
"250 198 CURVE SMOOTH",
"368 198 LINE",
"368 198 LINE",
"368 146 OFFCURVE",
"329 106 OFFCURVE",
"262 106 CURVE SMOOTH",
"215 106 OFFCURVE",
"196 126 OFFCURVE",
"196 154 CURVE SMOOTH"
);
}
);
width = 608;
},
{
anchors = (
{
name = top;
position = "{290, 496}";
}
);
associatedMasterId = "CCC6267B-7D5D-4B2E-A229-3A2D752D6A18";
layerId = "507893F9-4710-477A-AB53-3444A9665291";
name = original;
paths = (
{
closed = 1;
nodes = (
"165 330 LINE",
"176 401 OFFCURVE",
"221 438 OFFCURVE",
"290 438 CURVE SMOOTH",
"367 438 OFFCURVE",
"418 392 OFFCURVE",
"418 320 CURVE SMOOTH",
"418 300 LINE",
"255 300 LINE SMOOTH",
"155 300 OFFCURVE",
"79 243 OFFCURVE",
"79 148 CURVE SMOOTH",
"79 136 LINE SMOOTH",
"79 47 OFFCURVE",
"153 -14 OFFCURVE",
"253 -14 CURVE SMOOTH",
"329 -14 OFFCURVE",
"379 24 OFFCURVE",
"406 84 CURVE",
"418 84 LINE",
"418 78 LINE",
"418 33 OFFCURVE",
"450 0 OFFCURVE",
"495 0 CURVE SMOOTH",
"548 0 LINE",
"548 72 LINE",
"523 72 LINE SMOOTH",
"505 72 OFFCURVE",
"496 82 OFFCURVE",
"496 102 CURVE SMOOTH",
"496 321 LINE SMOOTH",
"496 433 OFFCURVE",
"412 510 OFFCURVE",
"290 510 CURVE SMOOTH",
"184 510 OFFCURVE",
"109 449 OFFCURVE",
"91 348 CURVE"
);
},
{
closed = 1;
nodes = (
"156 201 OFFCURVE",
"196 228 OFFCURVE",
"264 228 CURVE SMOOTH",
"417 228 LINE",
"417 216 LINE",
"417 121 OFFCURVE",
"363 58 OFFCURVE",
"260 58 CURVE SMOOTH",
"193 58 OFFCURVE",
"156 93 OFFCURVE",
"156 142 CURVE SMOOTH"
);
}
);
width = 608;
},
{
anchors = (
{
name = bottom;
position = "{458, 0}";
},
{
name = top;
position = "{280, 496}";
}
);
layerId = "CCC6267B-7D5D-4B2E-A229-3A2D752D6A18";
paths = (
{
closed = 1;
nodes = (
"135 330 LINE",
"158 387 OFFCURVE",
"205 426 OFFCURVE",
"285 426 CURVE SMOOTH",
"365 426 OFFCURVE",
"412 386 OFFCURVE",
"412 319 CURVE SMOOTH",
"412 305 LINE",
"231 288 LINE SMOOTH",
"105 276 OFFCURVE",
"44 225 OFFCURVE",
"44 136 CURVE SMOOTH",
"44 48 OFFCURVE",
"115 -14 OFFCURVE",
"225 -14 CURVE SMOOTH",
"326 -14 OFFCURVE",
"377 33 OFFCURVE",
"398 77 CURVE",
"412 77 LINE",
"412 0 LINE",
"504 0 LINE",
"504 315 LINE SMOOTH",
"504 433 OFFCURVE",
"419 510 OFFCURVE",
"287 510 CURVE SMOOTH",
"167 510 OFFCURVE",
"89 443 OFFCURVE",
"54 367 CURVE"
);
},
{
closed = 1;
nodes = (
"139 190 OFFCURVE",
"184 210 OFFCURVE",
"241 215 CURVE SMOOTH",
"412 231 LINE",
"412 218 LINE SMOOTH",
"412 133 OFFCURVE",
"356 64 OFFCURVE",
"241 64 CURVE SMOOTH",
"176 64 OFFCURVE",
"139 94 OFFCURVE",
"139 140 CURVE SMOOTH"
);
}
);
width = 568;
},
{
anchors = (
{
name = bottom;
position = "{479, 0}";
},
{
name = top;
position = "{292, 496}";
}
);
layerId = "A285862E-BE3D-4D67-A40D-0E28E121AD88";
paths = (
{
closed = 1;
nodes = (
"104 334 LINE",
"140 410 OFFCURVE",
"194 464 OFFCURVE",
"293 464 CURVE SMOOTH",
"394 464 OFFCURVE",
"454 410 OFFCURVE",
"454 325 CURVE SMOOTH",
"454 283 LINE",
"225 262 LINE SMOOTH",
"132 253 OFFCURVE",
"56 212 OFFCURVE",
"56 131 CURVE SMOOTH",
"56 41 OFFCURVE",
"130 -14 OFFCURVE",
"240 -14 CURVE SMOOTH",
"357 -14 OFFCURVE",
"415 42 OFFCURVE",
"442 95 CURVE",
"454 95 LINE",
"454 0 LINE",
"504 0 LINE",
"504 321 LINE SMOOTH",
"504 436 OFFCURVE",
"427 510 OFFCURVE",
"295 510 CURVE SMOOTH",
"170 510 OFFCURVE",
"94 432 OFFCURVE",
"60 354 CURVE"
);
},
{
closed = 1;
nodes = (
"106 179 OFFCURVE",
"149 212 OFFCURVE",
"235 220 CURVE SMOOTH",
"454 240 LINE",
"454 232 LINE SMOOTH",
"454 103 OFFCURVE",
"364 30 OFFCURVE",
"242 30 CURVE SMOOTH",
"161 30 OFFCURVE",
"106 64 OFFCURVE",
"106 129 CURVE SMOOTH"
);
}
);
width = 580;
},
{
anchors = (
{
name = bottom;
position = "{445, 0}";
},
{
name = top;
position = "{277, 496}";
}
);
layerId = "5117E3E8-E17C-4812-BAF5-9E7064564A59";
paths = (
{
closed = 1;
nodes = (
"138 316 LINE",
"169 368 OFFCURVE",
"210 402 OFFCURVE",
"276 402 CURVE SMOOTH",
"344 402 OFFCURVE",
"380 365 OFFCURVE",
"380 318 CURVE SMOOTH",
"380 306 LINE",
"181 284 LINE SMOOTH",
"89 274 OFFCURVE",
"26 220 OFFCURVE",
"26 141 CURVE SMOOTH",
"26 46 OFFCURVE",
"100 -14 OFFCURVE",
"212 -14 CURVE SMOOTH",
"319 -14 OFFCURVE",
"356 38 OFFCURVE",
"368 60 CURVE",
"382 60 LINE",
"382 0 LINE",
"506 0 LINE",
"506 317 LINE SMOOTH",
"506 433 OFFCURVE",
"418 510 OFFCURVE",
"283 510 CURVE SMOOTH",
"162 510 OFFCURVE",
"95 456 OFFCURVE",
"36 382 CURVE"
);
},
{
closed = 1;
nodes = (
"158 177 OFFCURVE",
"181 194 OFFCURVE",
"228 200 CURVE SMOOTH",
"380 218 LINE",
"380 210 LINE SMOOTH",
"380 142 OFFCURVE",
"331 90 OFFCURVE",
"243 90 CURVE SMOOTH",
"187 90 OFFCURVE",
"158 114 OFFCURVE",
"158 148 CURVE SMOOTH"
);
}
);
width = 560;
}
);
leftKerningGroup = a;
note = a.alt;
rightKerningGroup = n;
rightMetricsKey = n;
unicode = 0061;
},
{
glyphname = ae;
lastChange = "2018-01-10 11:57:53 +0000";
layers = (
{
anchors = (
{
name = top;
position = "{285, 496}";
}
);
layerId = "CCC6267B-7D5D-4B2E-A229-3A2D752D6A18";
paths = (
{
closed = 1;
nodes = (
"240 290 LINE",
"236 290 LINE SMOOTH",
"141 290 OFFCURVE",
"44 249 OFFCURVE",
"44 146 CURVE SMOOTH",
"44 43 OFFCURVE",
"140 -14 OFFCURVE",
"281 -14 CURVE",
"240 74 LINE",
"228 74 LINE SMOOTH",
"182 74 OFFCURVE",
"137 95 OFFCURVE",
"137 144 CURVE SMOOTH",
"137 193 OFFCURVE",
"182 214 OFFCURVE",
"228 214 CURVE SMOOTH",
"240 214 LINE"
);
},
{
closed = 1;
nodes = (
"281 510 LINE",
"160 510 OFFCURVE",
"90 444 OFFCURVE",
"52 375 CURVE",
"125 329 LINE",
"148 380 OFFCURVE",
"194 419 OFFCURVE",
"240 424 CURVE"
);
},
{
closed = 1;
nodes = (
"281 510 LINE",
"240 496 LINE",
"240 0 LINE",
"281 -14 LINE",
"330 0 LINE",
"330 496 LINE"
);
},
{
closed = 1;
nodes = (
"285 428 LINE",
"379 428 OFFCURVE",
"441 376 OFFCURVE",
"443 290 CURVE",
"330 290 LINE",
"330 214 LINE",
"541 214 LINE",
"541 261 LINE SMOOTH",
"541 405 OFFCURVE",
"431 510 OFFCURVE",
"281 510 CURVE"
);
},
{
closed = 1;
nodes = (
"281 -14 LINE",
"407 -14 OFFCURVE",
"483 51 OFFCURVE",
"522 104 CURVE",
"452 156 LINE",
"420 95 OFFCURVE",
"365 68 OFFCURVE",
"285 68 CURVE"
);
}
);
width = 579;
},
{
anchors = (
{
name = top;
position = "{284, 496}";
}
);
layerId = "A285862E-BE3D-4D67-A40D-0E28E121AD88";
paths = (
{
closed = 1;
nodes = (
"259 281 LINE",
"250 281 LINE SMOOTH",
"139 281 OFFCURVE",
"56 231 OFFCURVE",
"56 139 CURVE SMOOTH",
"56 41 OFFCURVE",
"145 -14 OFFCURVE",
"282 -14 CURVE",
"259 33 LINE",
"248 33 LINE SMOOTH",
"174 33 OFFCURVE",
"106 68 OFFCURVE",
"106 135 CURVE SMOOTH",
"106 207 OFFCURVE",
"161 237 OFFCURVE",
"248 237 CURVE SMOOTH",
"259 237 LINE"
);
},
{
closed = 1;
nodes = (
"282 510 LINE",
"161 510 OFFCURVE",
"86 437 OFFCURVE",
"57 351 CURVE",
"107 334 LINE",
"129 423 OFFCURVE",
"195 459 OFFCURVE",
"259 462 CURVE"
);
},
{
closed = 1;
nodes = (
"282 510 LINE",
"259 496 LINE",
"259 0 LINE",
"282 -14 LINE",
"309 0 LINE",
"309 496 LINE"
);
},
{
closed = 1;
nodes = (
"284 464 LINE",
"388 464 OFFCURVE",
"466 400 OFFCURVE",
"470 281 CURVE",
"309 281 LINE",
"309 237 LINE",
"522 237 LINE",
"522 269 LINE SMOOTH",
"522 420 OFFCURVE",
"417 510 OFFCURVE",
"282 510 CURVE"
);
},
{
closed = 1;
nodes = (
"282 -14 LINE",
"409 -14 OFFCURVE",
"474 57 OFFCURVE",
"507 125 CURVE",
"459 144 LINE",
"431 81 OFFCURVE",
"382 32 OFFCURVE",
"284 32 CURVE"
);
}
);
width = 572;
},
{
anchors = (
{
name = top;
position = "{289, 496}";
}
);
layerId = "5117E3E8-E17C-4812-BAF5-9E7064564A59";
paths = (
{
closed = 1;
nodes = (
"230 299 LINE",
"208 299 LINE SMOOTH",
"114 299 OFFCURVE",
"26 253 OFFCURVE",
"26 155 CURVE SMOOTH",
"26 49 OFFCURVE",
"134 -14 OFFCURVE",
"285 -14 CURVE",
"230 98 LINE",
"210 98 LINE SMOOTH",
"177 98 OFFCURVE",
"148 121 OFFCURVE",
"148 155 CURVE SMOOTH",
"148 189 OFFCURVE",
"177 211 OFFCURVE",
"210 211 CURVE SMOOTH",
"230 211 LINE"
);
},
{
closed = 1;
nodes = (
"287 510 LINE",
"167 510 OFFCURVE",
"93 460 OFFCURVE",
"38 405 CURVE",
"119 329 LINE",
"142 362 OFFCURVE",
"190 393 OFFCURVE",
"230 396 CURVE"
);
},
{
closed = 1;
nodes = (
"287 510 LINE",
"230 496 LINE",
"230 0 LINE",
"285 -14 LINE",
"348 0 LINE",
"348 496 LINE"
);
},
{
closed = 1;
nodes = (
"289 400 LINE",
"383 400 OFFCURVE",
"429 360 OFFCURVE",
"438 299 CURVE",
"348 299 LINE",
"348 211 LINE",
"568 211 LINE",
"568 250 LINE SMOOTH",
"568 405 OFFCURVE",
"461 510 OFFCURVE",
"287 510 CURVE"
);
},
{
closed = 1;
nodes = (
"285 -14 LINE",
"432 -14 OFFCURVE",
"501 50 OFFCURVE",
"539 93 CURVE",
"448 170 LINE",
"420 127 OFFCURVE",
"384 96 OFFCURVE",
"289 96 CURVE"
);
}
);
width = 598;
}
);
leftKerningGroup = a;
leftMetricsKey = a;
note = ae;
rightKerningGroup = o;
rightMetricsKey = e;
unicode = 00E6;
},
{
glyphname = b;
lastChange = "2017-12-13 12:15:23 +0000";
layers = (
{
layerId = "CCC6267B-7D5D-4B2E-A229-3A2D752D6A18";
paths = (
{
closed = 1;
nodes = (
"70 0 LINE",
"162 0 LINE",
"162 78 LINE",
"176 78 LINE",
"203 33 OFFCURVE",
"248 -14 OFFCURVE",
"344 -14 CURVE SMOOTH",
"473 -14 OFFCURVE",
"574 94 OFFCURVE",
"574 248 CURVE SMOOTH",
"574 402 OFFCURVE",
"473 510 OFFCURVE",
"344 510 CURVE SMOOTH",
"248 510 OFFCURVE",
"203 463 OFFCURVE",
"176 418 CURVE",
"164 418 LINE",
"164 700 LINE",
"70 700 LINE"
);
},
{
closed = 1;
nodes = (
"414 426 OFFCURVE",
"480 362 OFFCURVE",
"480 248 CURVE SMOOTH",
"480 134 OFFCURVE",
"414 70 OFFCURVE",
"320 70 CURVE SMOOTH",
"224 70 OFFCURVE",
"164 138 OFFCURVE",
"164 248 CURVE SMOOTH",
"164 358 OFFCURVE",
"224 426 OFFCURVE",
"320 426 CURVE SMOOTH"
);
}
);
width = 612;
},
{
layerId = "A285862E-BE3D-4D67-A40D-0E28E121AD88";
paths = (
{
closed = 1;
nodes = (
"82 0 LINE",
"130 0 LINE",
"130 96 LINE",
"144 96 LINE",
"172 42 OFFCURVE",
"227 -14 OFFCURVE",
"336 -14 CURVE SMOOTH",
"469 -14 OFFCURVE",
"570 90 OFFCURVE",
"570 248 CURVE SMOOTH",
"570 406 OFFCURVE",
"469 510 OFFCURVE",
"336 510 CURVE SMOOTH",
"227 510 OFFCURVE",
"172 454 OFFCURVE",
"144 400 CURVE",
"132 400 LINE",
"132 700 LINE",
"82 700 LINE"
);
},
{
closed = 1;
nodes = (
"441 464 OFFCURVE",
"518 380 OFFCURVE",
"518 248 CURVE SMOOTH",
"518 116 OFFCURVE",
"441 32 OFFCURVE",
"327 32 CURVE SMOOTH",
"213 32 OFFCURVE",
"132 118 OFFCURVE",
"132 248 CURVE SMOOTH",
"132 378 OFFCURVE",
"213 464 OFFCURVE",
"327 464 CURVE SMOOTH"
);
}
);
width = 620;
},
{
layerId = "5117E3E8-E17C-4812-BAF5-9E7064564A59";
paths = (
{
closed = 1;
nodes = (
"60 0 LINE",
"184 0 LINE",
"184 70 LINE",
"198 70 LINE",
"224 28 OFFCURVE",
"268 -14 OFFCURVE",
"356 -14 CURVE SMOOTH",
"480 -14 OFFCURVE",
"584 96 OFFCURVE",
"584 248 CURVE SMOOTH",
"584 400 OFFCURVE",
"480 510 OFFCURVE",
"356 510 CURVE SMOOTH",
"268 510 OFFCURVE",
"224 468 OFFCURVE",
"198 426 CURVE",
"186 426 LINE",
"186 700 LINE",
"60 700 LINE"
);
},
{
closed = 1;
nodes = (
"398 398 OFFCURVE",
"458 344 OFFCURVE",
"458 248 CURVE SMOOTH",
"458 152 OFFCURVE",
"398 98 OFFCURVE",
"322 98 CURVE SMOOTH",
"244 98 OFFCURVE",
"186 154 OFFCURVE",
"186 248 CURVE SMOOTH",
"186 342 OFFCURVE",
"244 398 OFFCURVE",
"322 398 CURVE SMOOTH"
);
}
);
width = 614;
}
);
leftKerningGroup = h;
leftMetricsKey = l;
note = b;
rightKerningGroup = o;
rightMetricsKey = o;
unicode = 0062;
},
{
glyphname = c;
lastChange = "2018-01-05 12:19:25 +0000";
layers = (
{
anchors = (
{
name = bottom;
position = "{292, 0}";
},
{
name = top;
position = "{292, 496}";
}
);
layerId = "CCC6267B-7D5D-4B2E-A229-3A2D752D6A18";
paths = (
{
closed = 1;
nodes = (
"38 96 OFFCURVE",
"146 -14 OFFCURVE",
"294 -14 CURVE SMOOTH",
"439 -14 OFFCURVE",
"510 83 OFFCURVE",
"532 176 CURVE",
"439 194 LINE",
"426 131 OFFCURVE",
"388 72 OFFCURVE",
"294 72 CURVE SMOOTH",
"198 72 OFFCURVE",
"132 142 OFFCURVE",
"132 248 CURVE SMOOTH",
"132 354 OFFCURVE",
"198 424 OFFCURVE",
"292 424 CURVE SMOOTH",
"379 424 OFFCURVE",
"430 370 OFFCURVE",
"438 301 CURVE",
"530 320 LINE",
"510 429 OFFCURVE",
"424 510 OFFCURVE",
"292 510 CURVE SMOOTH",
"146 510 OFFCURVE",
"38 400 OFFCURVE",
"38 248 CURVE SMOOTH"
);
}
);
width = 564;
},
{
anchors = (
{
name = bottom;
position = "{301, 0}";
},
{
name = top;
position = "{301, 496}";
}
);
layerId = "A285862E-BE3D-4D67-A40D-0E28E121AD88";
paths = (
{
closed = 1;
nodes = (
"50 95 OFFCURVE",
"160 -14 OFFCURVE",
"301 -14 CURVE SMOOTH",
"426 -14 OFFCURVE",
"509 68 OFFCURVE",
"528 173 CURVE",
"478 183 LINE",
"463 95 OFFCURVE",
"405 32 OFFCURVE",
"301 32 CURVE SMOOTH",
"188 32 OFFCURVE",
"102 124 OFFCURVE",
"102 248 CURVE SMOOTH",
"102 372 OFFCURVE",
"187 464 OFFCURVE",
"300 464 CURVE SMOOTH",
"396 464 OFFCURVE",
"464 405 OFFCURVE",
"475 314 CURVE",
"525 324 LINE",
"509 427 OFFCURVE",
"422 510 OFFCURVE",
"300 510 CURVE SMOOTH",
"160 510 OFFCURVE",
"50 401 OFFCURVE",
"50 248 CURVE SMOOTH"
);
}
);
width = 574;
},
{
anchors = (
{
name = bottom;
position = "{294, 0}";
},
{
name = top;
position = "{292, 496}";
}
);
layerId = "5117E3E8-E17C-4812-BAF5-9E7064564A59";
paths = (
{
closed = 1;
nodes = (
"30 94 OFFCURVE",
"144 -14 OFFCURVE",
"288 -14 CURVE SMOOTH",
"427 -14 OFFCURVE",
"514 63 OFFCURVE",
"538 176 CURVE",
"414 207 LINE",
"401 144 OFFCURVE",
"366 102 OFFCURVE",
"290 102 CURVE SMOOTH",
"209 102 OFFCURVE",
"156 160 OFFCURVE",
"156 248 CURVE SMOOTH",
"156 336 OFFCURVE",
"214 394 OFFCURVE",
"290 394 CURVE SMOOTH",
"366 394 OFFCURVE",
"405 346 OFFCURVE",
"414 288 CURVE",
"538 320 LINE",
"512 433 OFFCURVE",
"426 510 OFFCURVE",
"288 510 CURVE SMOOTH",
"144 510 OFFCURVE",
"30 402 OFFCURVE",
"30 248 CURVE SMOOTH"
);
}
);
width = 560;
}
);
leftKerningGroup = o;
leftMetricsKey = o;
note = c;
rightKerningGroup = o;
unicode = 0063;
},
{
glyphname = d;
lastChange = "2017-12-13 12:15:15 +0000";
layers = (
{
anchors = (
{
name = caron;
position = "{542, 700}";
},
{
name = strokeB;
position = "{542, 496}";
}
);
layerId = "CCC6267B-7D5D-4B2E-A229-3A2D752D6A18";
paths = (
{
closed = 1;
nodes = (
"448 700 LINE",
"448 418 LINE",
"436 418 LINE",
"409 463 OFFCURVE",
"364 510 OFFCURVE",
"268 510 CURVE SMOOTH",
"139 510 OFFCURVE",
"38 402 OFFCURVE",
"38 248 CURVE SMOOTH",
"38 94 OFFCURVE",
"139 -14 OFFCURVE",
"268 -14 CURVE SMOOTH",
"364 -14 OFFCURVE",
"409 33 OFFCURVE",
"436 78 CURVE",
"450 78 LINE",
"450 0 LINE",
"542 0 LINE",
"542 700 LINE"
);
},
{
closed = 1;
nodes = (
"388 426 OFFCURVE",
"448 358 OFFCURVE",
"448 248 CURVE SMOOTH",
"448 138 OFFCURVE",
"388 70 OFFCURVE",
"292 70 CURVE SMOOTH",
"198 70 OFFCURVE",
"132 134 OFFCURVE",
"132 248 CURVE SMOOTH",
"132 362 OFFCURVE",
"198 426 OFFCURVE",
"292 426 CURVE SMOOTH"
);
}
);
width = 612;
},
{
anchors = (
{
name = caron;
position = "{538, 700}";
},
{
name = strokeB;
position = "{538, 496}";
}
);
layerId = "A285862E-BE3D-4D67-A40D-0E28E121AD88";
paths = (
{
closed = 1;
nodes = (
"488 700 LINE",
"488 400 LINE",
"476 400 LINE",
"448 454 OFFCURVE",
"393 510 OFFCURVE",
"284 510 CURVE SMOOTH",
"151 510 OFFCURVE",
"50 406 OFFCURVE",
"50 248 CURVE SMOOTH",
"50 90 OFFCURVE",
"151 -14 OFFCURVE",
"284 -14 CURVE SMOOTH",
"393 -14 OFFCURVE",
"448 42 OFFCURVE",
"476 96 CURVE",
"490 96 LINE",
"490 0 LINE",
"538 0 LINE",
"538 700 LINE"
);
},
{
closed = 1;
nodes = (
"407 464 OFFCURVE",
"488 378 OFFCURVE",
"488 248 CURVE SMOOTH",
"488 118 OFFCURVE",
"407 32 OFFCURVE",
"293 32 CURVE SMOOTH",
"179 32 OFFCURVE",
"102 116 OFFCURVE",
"102 248 CURVE SMOOTH",
"102 380 OFFCURVE",
"179 464 OFFCURVE",
"293 464 CURVE SMOOTH"
);
}
);
width = 620;
},
{
anchors = (
{
name = caron;
position = "{554, 700}";
},
{
name = strokeB;
position = "{554, 496}";
}
);
layerId = "5117E3E8-E17C-4812-BAF5-9E7064564A59";
paths = (
{
closed = 1;
nodes = (
"428 700 LINE",
"428 426 LINE",
"416 426 LINE",
"390 468 OFFCURVE",
"346 510 OFFCURVE",
"258 510 CURVE SMOOTH",
"134 510 OFFCURVE",
"30 400 OFFCURVE",
"30 248 CURVE SMOOTH",
"30 96 OFFCURVE",
"134 -14 OFFCURVE",
"258 -14 CURVE SMOOTH",
"346 -14 OFFCURVE",
"390 28 OFFCURVE",
"416 70 CURVE",
"430 70 LINE",
"430 0 LINE",
"554 0 LINE",
"554 700 LINE"
);
},
{
closed = 1;
nodes = (
"370 398 OFFCURVE",
"428 342 OFFCURVE",
"428 248 CURVE SMOOTH",
"428 154 OFFCURVE",
"370 98 OFFCURVE",
"292 98 CURVE SMOOTH",
"216 98 OFFCURVE",
"156 152 OFFCURVE",
"156 248 CURVE SMOOTH",
"156 344 OFFCURVE",
"216 398 OFFCURVE",
"292 398 CURVE SMOOTH"
);
}
);
width = 614;
}
);
leftKerningGroup = o;
leftMetricsKey = o;
note = d;
rightKerningGroup = l;
rightMetricsKey = l;
unicode = 0064;
},
{
glyphname = eth;
lastChange = "2017-12-13 13:57:12 +0000";
layers = (
{
layerId = "CCC6267B-7D5D-4B2E-A229-3A2D752D6A18";
paths = (
{
closed = 1;
nodes = (
"173 628 OFFCURVE",
"204 621 OFFCURVE",
"233 612 CURVE",
"216 571 LINE",
"291 542 LINE",
"308 581 LINE",
"361 551 OFFCURVE",
"401 507 OFFCURVE",
"420 448 CURVE",
"408 448 LINE",
"383 483 OFFCURVE",
"340 510 OFFCURVE",
"270 510 CURVE SMOOTH",
"136 510 OFFCURVE",
"38 402 OFFCURVE",
"38 248 CURVE SMOOTH",
"38 94 OFFCURVE",
"146 -14 OFFCURVE",
"289 -14 CURVE SMOOTH",
"434 -14 OFFCURVE",
"545 91 OFFCURVE",
"545 272 CURVE SMOOTH",
"545 438 OFFCURVE",
"484 590 OFFCURVE",
"341 664 CURVE",
"357 703 LINE",
"282 732 LINE",
"266 695 LINE",
"231 706 OFFCURVE",
"196 714 OFFCURVE",
"159 719 CURVE",
"141 631 LINE"
);
},
{
closed = 1;
nodes = (
"132 358 OFFCURVE",
"196 424 OFFCURVE",
"290 424 CURVE SMOOTH",
"384 424 OFFCURVE",
"448 358 OFFCURVE",
"448 248 CURVE SMOOTH",
"448 138 OFFCURVE",
"384 72 OFFCURVE",
"290 72 CURVE SMOOTH",
"196 72 OFFCURVE",
"132 138 OFFCURVE",
"132 248 CURVE SMOOTH"
);
}
);
width = 585;
},
{
layerId = "A285862E-BE3D-4D67-A40D-0E28E121AD88";
paths = (
{
closed = 1;
nodes = (
"198 655 OFFCURVE",
"236 646 OFFCURVE",
"272 632 CURVE",
"243 584 LINE",
"283 561 LINE",
"314 612 LINE",
"377 577 OFFCURVE",
"432 522 OFFCURVE",
"463 434 CURVE",
"451 434 LINE",
"414 481 OFFCURVE",
"367 510 OFFCURVE",
"288 510 CURVE SMOOTH",
"146 510 OFFCURVE",
"50 400 OFFCURVE",
"50 248 CURVE SMOOTH",
"50 96 OFFCURVE",
"146 -14 OFFCURVE",
"294 -14 CURVE SMOOTH",
"442 -14 OFFCURVE",
"539 93 OFFCURVE",
"539 253 CURVE SMOOTH",
"539 471 OFFCURVE",
"445 587 OFFCURVE",
"336 649 CURVE",
"367 699 LINE",
"327 722 LINE",
"295 669 LINE",
"252 688 OFFCURVE",
"210 700 OFFCURVE",
"172 706 CURVE",
"160 661 LINE"
);
},
{
closed = 1;
nodes = (
"100 370 OFFCURVE",
"175 464 OFFCURVE",
"294 464 CURVE SMOOTH",
"412 464 OFFCURVE",
"488 375 OFFCURVE",
"488 248 CURVE SMOOTH",
"488 123 OFFCURVE",
"412 32 OFFCURVE",
"294 32 CURVE SMOOTH",
"175 32 OFFCURVE",
"100 118 OFFCURVE",
"100 248 CURVE SMOOTH"
);
}
);
width = 591;
},
{
layerId = "5117E3E8-E17C-4812-BAF5-9E7064564A59";
paths = (
{
closed = 1;
nodes = (
"145 616 OFFCURVE",
"174 611 OFFCURVE",
"201 603 CURVE",
"188 561 LINE",
"286 532 LINE",
"298 570 LINE",
"347 546 OFFCURVE",
"389 510 OFFCURVE",
"408 450 CURVE",
"396 450 LINE",
"370 480 OFFCURVE",
"333 506 OFFCURVE",
"255 506 CURVE SMOOTH",
"134 506 OFFCURVE",
"30 404 OFFCURVE",
"30 248 CURVE SMOOTH",
"30 92 OFFCURVE",
"144 -14 OFFCURVE",
"289 -14 CURVE SMOOTH",
"436 -14 OFFCURVE",
"553 90 OFFCURVE",
"553 271 CURVE SMOOTH",
"553 474 OFFCURVE",
"476 604 OFFCURVE",
"333 681 CURVE",
"346 723 LINE",
"248 752 LINE",
"236 714 LINE",
"202 725 OFFCURVE",
"170 731 OFFCURVE",
"135 735 CURVE",
"115 621 LINE"
);
},
{
closed = 1;
nodes = (
"156 336 OFFCURVE",
"210 394 OFFCURVE",
"290 394 CURVE SMOOTH",
"370 394 OFFCURVE",
"424 336 OFFCURVE",
"424 248 CURVE SMOOTH",
"424 160 OFFCURVE",
"370 102 OFFCURVE",
"290 102 CURVE SMOOTH",
"210 102 OFFCURVE",
"156 160 OFFCURVE",
"156 248 CURVE SMOOTH"
);
}
);
width = 585;
}
);
leftKerningGroup = o;
leftMetricsKey = o;
note = eth;
rightKerningGroup = o;
unicode = 00F0;
},
{
glyphname = e;
lastChange = "2017-12-23 17:22:18 +0000";
layers = (
{
anchors = (
{
name = bottom;
position = "{287, 0}";
},
{
name = top;
position = "{288, 496}";
}
);
layerId = "CCC6267B-7D5D-4B2E-A229-3A2D752D6A18";
paths = (
{
closed = 1;
nodes = (
"38 102 OFFCURVE",
"142 -14 OFFCURVE",
"294 -14 CURVE SMOOTH",
"411 -14 OFFCURVE",
"474 51 OFFCURVE",
"511 111 CURVE",
"432 156 LINE",
"406 104 OFFCURVE",
"364 68 OFFCURVE",
"292 68 CURVE SMOOTH",
"204 68 OFFCURVE",
"142 124 OFFCURVE",
"136 214 CURVE",
"530 214 LINE",
"530 261 LINE SMOOTH",
"530 405 OFFCURVE",
"430 510 OFFCURVE",
"286 510 CURVE SMOOTH",
"144 510 OFFCURVE",
"38 398 OFFCURVE",
"38 252 CURVE SMOOTH"
);
},
{
closed = 1;
nodes = (
"143 379 OFFCURVE",
"200 428 OFFCURVE",
"286 428 CURVE SMOOTH",
"372 428 OFFCURVE",
"430 376 OFFCURVE",
"432 290 CURVE",
"136 290 LINE"
);
}
);
width = 568;
},
{
anchors = (
{
name = bottom;
position = "{294, 0}";
},
{
name = top;
position = "{296, 496}";
}
);
layerId = "A285862E-BE3D-4D67-A40D-0E28E121AD88";
paths = (
{
closed = 1;
nodes = (
"50 102 OFFCURVE",
"148 -14 OFFCURVE",
"299 -14 CURVE SMOOTH",
"428 -14 OFFCURVE",
"483 57 OFFCURVE",
"516 125 CURVE",
"468 144 LINE",
"440 81 OFFCURVE",
"393 32 OFFCURVE",
"299 32 CURVE SMOOTH",
"186 32 OFFCURVE",
"109 110 OFFCURVE",
"102 237 CURVE",
"531 237 LINE",
"531 269 LINE SMOOTH",
"531 420 OFFCURVE",
"430 510 OFFCURVE",
"296 510 CURVE SMOOTH",
"157 510 OFFCURVE",
"50 398 OFFCURVE",
"50 252 CURVE SMOOTH"
);
},
{
closed = 1;
nodes = (
"114 394 OFFCURVE",
"194 464 OFFCURVE",
"296 464 CURVE SMOOTH",
"399 464 OFFCURVE",
"475 400 OFFCURVE",
"479 281 CURVE",
"102 281 LINE"
);
}
);
width = 581;
},
{
anchors = (
{
name = bottom;
position = "{281, 0}";
},
{
name = top;
position = "{279, 496}";
}
);
layerId = "5117E3E8-E17C-4812-BAF5-9E7064564A59";
paths = (
{
closed = 1;
nodes = (
"30 98 OFFCURVE",
"137 -14 OFFCURVE",
"285 -14 CURVE SMOOTH",
"418 -14 OFFCURVE",
"476 56 OFFCURVE",
"510 108 CURVE",
"402 170 LINE",
"385 135 OFFCURVE",
"353 96 OFFCURVE",
"283 96 CURVE SMOOTH",
"211 96 OFFCURVE",
"164 147 OFFCURVE",
"161 211 CURVE",
"528 211 LINE",
"528 260 LINE SMOOTH",
"528 409 OFFCURVE",
"427 510 OFFCURVE",
"283 510 CURVE SMOOTH",
"137 510 OFFCURVE",
"30 402 OFFCURVE",
"30 252 CURVE SMOOTH"
);
},
{
closed = 1;
nodes = (
"170 358 OFFCURVE",
"211 400 OFFCURVE",
"282 400 CURVE SMOOTH",
"347 400 OFFCURVE",
"391 360 OFFCURVE",
"398 299 CURVE",
"162 299 LINE"
);
}
);
width = 558;
}
);
leftKerningGroup = o;
leftMetricsKey = o;
note = e;
rightKerningGroup = o;
rightMetricsKey = o;
unicode = 0065;
},
{
glyphname = f;
lastChange = "2018-01-05 12:17:30 +0000";
layers = (
{
associatedMasterId = "CCC6267B-7D5D-4B2E-A229-3A2D752D6A18";
layerId = "07F55A96-ECFC-4699-92C9-7698EA27416D";
name = original;
paths = (
{
closed = 1;
nodes = (
"80 424 LINE",
"233 424 LINE",
"233 0 LINE",
"311 0 LINE",
"311 424 LINE",
"518 424 LINE",
"518 496 LINE",
"311 496 LINE",
"311 598 LINE SMOOTH",
"311 618 OFFCURVE",
"320 628 OFFCURVE",
"338 628 CURVE SMOOTH",
"506 628 LINE",
"506 700 LINE",
"310 700 LINE SMOOTH",
"265 700 OFFCURVE",
"233 667 OFFCURVE",
"233 622 CURVE SMOOTH",
"233 496 LINE",
"80 496 LINE"
);
}
);
width = 608;
},
{
layerId = "CCC6267B-7D5D-4B2E-A229-3A2D752D6A18";
paths = (
{
closed = 1;
nodes = (
"14 414 LINE",
"150 414 LINE",
"150 0 LINE",
"244 0 LINE",
"244 414 LINE",
"384 414 LINE",
"384 496 LINE",
"244 496 LINE",
"244 590 LINE SMOOTH",
"244 610 OFFCURVE",
"252 618 OFFCURVE",
"270 618 CURVE SMOOTH",
"358 618 LINE",
"358 700 LINE",
"234 700 LINE SMOOTH",
"184 700 OFFCURVE",
"150 666 OFFCURVE",
"150 614 CURVE SMOOTH",
"150 496 LINE",
"14 496 LINE"
);
}
);
width = 398;
},
{
layerId = "A285862E-BE3D-4D67-A40D-0E28E121AD88";
paths = (
{
closed = 1;
nodes = (
"24 452 LINE",
"190 452 LINE",
"190 0 LINE",
"240 0 LINE",
"240 452 LINE",
"408 452 LINE",
"408 496 LINE",
"240 496 LINE",
"240 626 LINE SMOOTH",
"240 646 OFFCURVE",
"250 656 OFFCURVE",
"268 656 CURVE SMOOTH",
"382 656 LINE",
"382 700 LINE",
"254 700 LINE SMOOTH",
"214 700 OFFCURVE",
"190 676 OFFCURVE",
"190 634 CURVE SMOOTH",
"190 496 LINE",
"24 496 LINE"
);
}
);
width = 440;
},
{
layerId = "5117E3E8-E17C-4812-BAF5-9E7064564A59";
paths = (
{
closed = 1;
nodes = (
"22 386 LINE",
"148 386 LINE",
"148 0 LINE",
"274 0 LINE",
"274 386 LINE",
"404 386 LINE",
"404 496 LINE",
"274 496 LINE",
"274 560 LINE SMOOTH",
"274 580 OFFCURVE",
"284 590 OFFCURVE",
"302 590 CURVE SMOOTH",
"378 590 LINE",
"378 700 LINE",
"248 700 LINE SMOOTH",
"190 700 OFFCURVE",
"148 656 OFFCURVE",
"148 598 CURVE SMOOTH",
"148 496 LINE",
"22 496 LINE"
);
}
);
width = 428;
}
);
leftKerningGroup = t;
note = f;
rightKerningGroup = f;
unicode = 0066;
},
{
glyphname = g;
lastChange = "2018-01-06 10:21:47 +0000";
layers = (
{
anchors = (
{
name = top;
position = "{305, 496}";
}
);
layerId = "CCC6267B-7D5D-4B2E-A229-3A2D752D6A18";
paths = (
{
closed = 1;
nodes = (
"542 496 LINE",
"450 496 LINE",
"450 418 LINE",
"436 418 LINE",
"409 463 OFFCURVE",
"364 510 OFFCURVE",
"268 510 CURVE SMOOTH",
"139 510 OFFCURVE",
"38 405 OFFCURVE",
"38 254 CURVE SMOOTH",
"38 103 OFFCURVE",
"139 -2 OFFCURVE",
"268 -2 CURVE SMOOTH",
"364 -2 OFFCURVE",
"409 45 OFFCURVE",
"436 90 CURVE",
"448 90 LINE",
"448 0 LINE",
"542 0 LINE"
);
},
{
closed = 1;
nodes = (
"198 82 OFFCURVE",
"132 143 OFFCURVE",
"132 254 CURVE SMOOTH",
"132 365 OFFCURVE",
"198 426 OFFCURVE",
"292 426 CURVE SMOOTH",
"388 426 OFFCURVE",
"448 361 OFFCURVE",
"448 254 CURVE SMOOTH",
"448 147 OFFCURVE",
"388 82 OFFCURVE",
"292 82 CURVE SMOOTH"
);
},
{
closed = 1;
nodes = (
"82 -200 LINE",
"460 -200 LINE SMOOTH",
"508 -200 OFFCURVE",
"542 -166 OFFCURVE",
"542 -116 CURVE SMOOTH",
"542 0 LINE",
"448 0 LINE",
"448 -88 LINE SMOOTH",
"448 -108 OFFCURVE",
"438 -118 OFFCURVE",
"420 -118 CURVE SMOOTH",
"82 -118 LINE"
);
}
);
width = 612;
},
{
anchors = (
{
name = top;
position = "{312, 496}";
}
);
layerId = "A285862E-BE3D-4D67-A40D-0E28E121AD88";
paths = (
{
closed = 1;
nodes = (
"538 496 LINE",
"490 496 LINE",
"490 400 LINE",
"476 400 LINE",
"448 454 OFFCURVE",
"393 510 OFFCURVE",
"284 510 CURVE SMOOTH",
"151 510 OFFCURVE",
"50 408 OFFCURVE",
"50 252 CURVE SMOOTH",
"50 96 OFFCURVE",
"151 -6 OFFCURVE",
"284 -6 CURVE SMOOTH",
"393 -6 OFFCURVE",
"448 50 OFFCURVE",
"476 104 CURVE",
"488 104 LINE",
"488 0 LINE",
"538 0 LINE"
);
},
{
closed = 1;
nodes = (
"179 40 OFFCURVE",
"102 122 OFFCURVE",
"102 252 CURVE SMOOTH",
"102 382 OFFCURVE",
"179 464 OFFCURVE",
"293 464 CURVE SMOOTH",
"407 464 OFFCURVE",
"488 380 OFFCURVE",
"488 252 CURVE SMOOTH",
"488 124 OFFCURVE",
"407 40 OFFCURVE",
"293 40 CURVE SMOOTH"
);
},
{
closed = 1;
nodes = (
"90 -200 LINE",
"474 -200 LINE SMOOTH",
"514 -200 OFFCURVE",
"538 -176 OFFCURVE",
"538 -134 CURVE SMOOTH",
"538 0 LINE",
"488 0 LINE",
"488 -126 LINE SMOOTH",
"488 -146 OFFCURVE",
"478 -156 OFFCURVE",
"460 -156 CURVE SMOOTH",
"90 -156 LINE"
);
}
);
width = 620;
},
{
anchors = (
{
name = top;
position = "{310, 496}";
}
);
layerId = "5117E3E8-E17C-4812-BAF5-9E7064564A59";
paths = (
{
closed = 1;
nodes = (
"554 496 LINE",
"430 496 LINE",
"430 426 LINE",
"416 426 LINE",
"390 468 OFFCURVE",
"346 510 OFFCURVE",
"258 510 CURVE SMOOTH",
"134 510 OFFCURVE",
"30 404 OFFCURVE",
"30 256 CURVE SMOOTH",
"30 108 OFFCURVE",
"134 2 OFFCURVE",
"258 2 CURVE SMOOTH",
"346 2 OFFCURVE",
"390 44 OFFCURVE",
"416 86 CURVE",
"428 86 LINE",
"428 0 LINE",
"554 0 LINE"
);
},
{
closed = 1;
nodes = (
"216 114 OFFCURVE",
"156 164 OFFCURVE",
"156 256 CURVE SMOOTH",
"156 348 OFFCURVE",
"216 398 OFFCURVE",
"292 398 CURVE SMOOTH",
"370 398 OFFCURVE",
"428 346 OFFCURVE",
"428 256 CURVE SMOOTH",
"428 166 OFFCURVE",
"370 114 OFFCURVE",
"292 114 CURVE SMOOTH"
);
},
{
closed = 1;
nodes = (
"80 -200 LINE",
"456 -200 LINE SMOOTH",
"512 -200 OFFCURVE",
"554 -160 OFFCURVE",
"554 -104 CURVE SMOOTH",
"554 0 LINE",
"428 0 LINE",
"428 -60 LINE SMOOTH",
"428 -80 OFFCURVE",
"418 -90 OFFCURVE",
"400 -90 CURVE SMOOTH",
"80 -90 LINE"
);
}
);
width = 614;
}
);
leftKerningGroup = o;
leftMetricsKey = o;
note = g;
rightKerningGroup = u;
rightMetricsKey = u;
unicode = 0067;
},
{
glyphname = h;
lastChange = "2017-12-13 13:57:51 +0000";
layers = (
{
anchors = (
{
name = strokeA;
position = "{70, 496}";
}
);
layerId = "CCC6267B-7D5D-4B2E-A229-3A2D752D6A18";
paths = (
{
closed = 1;
nodes = (
"70 0 LINE",
"164 0 LINE",
"164 262 LINE SMOOTH",
"164 364 OFFCURVE",
"221 422 OFFCURVE",
"312 422 CURVE SMOOTH",
"392 422 OFFCURVE",
"438 378 OFFCURVE",
"438 293 CURVE SMOOTH",
"438 0 LINE",
"532 0 LINE",
"532 301 LINE SMOOTH",
"532 436 OFFCURVE",
"444 504 OFFCURVE",
"341 504 CURVE SMOOTH",
"244 504 OFFCURVE",
"199 459 OFFCURVE",
"176 413 CURVE",
"164 413 LINE",
"164 700 LINE",
"70 700 LINE"
);
}
);
width = 596;
},
{
anchors = (
{
name = strokeA;
position = "{82, 496}";
}
);
layerId = "A285862E-BE3D-4D67-A40D-0E28E121AD88";
paths = (
{
closed = 1;
nodes = (
"82 0 LINE",
"132 0 LINE",
"132 254 LINE SMOOTH",
"132 392 OFFCURVE",
"211 460 OFFCURVE",
"314 460 CURVE SMOOTH",
"407 460 OFFCURVE",
"468 414 OFFCURVE",
"468 304 CURVE SMOOTH",
"468 0 LINE",
"518 0 LINE",
"518 308 LINE SMOOTH",
"518 443 OFFCURVE",
"426 506 OFFCURVE",
"324 506 CURVE SMOOTH",
"222 506 OFFCURVE",
"171 455 OFFCURVE",
"144 404 CURVE",
"132 404 LINE",
"132 700 LINE",
"82 700 LINE"
);
}
);
width = 594;
},
{
anchors = (
{
name = strokeA;
position = "{60, 496}";
}
);
layerId = "5117E3E8-E17C-4812-BAF5-9E7064564A59";
paths = (
{
closed = 1;
nodes = (
"60 0 LINE",
"186 0 LINE",
"186 256 LINE SMOOTH",
"186 344 OFFCURVE",
"229 394 OFFCURVE",
"310 394 CURVE SMOOTH",
"382 394 OFFCURVE",
"422 353 OFFCURVE",
"422 284 CURVE SMOOTH",
"422 0 LINE",
"548 0 LINE",
"548 296 LINE SMOOTH",
"548 425 OFFCURVE",
"465 504 OFFCURVE",
"355 504 CURVE SMOOTH",
"264 504 OFFCURVE",
"218 462 OFFCURVE",
"198 416 CURVE",
"186 416 LINE",
"186 700 LINE",
"60 700 LINE"
);
}
);
width = 602;
}
);
leftKerningGroup = h;
leftMetricsKey = l;
note = h;
rightKerningGroup = n;
rightMetricsKey = n;
unicode = 0068;
},
{
glyphname = idotless;
lastChange = "2017-11-17 17:27:05 +0000";
layers = (
{
anchors = (
{
name = bottom;
position = "{310, 0}";
},
{
name = top;
position = "{304, 496}";
}
);
associatedMasterId = "CCC6267B-7D5D-4B2E-A229-3A2D752D6A18";
layerId = "83A76066-BDD1-4B8C-836D-2D9471CB45EC";
name = original;
paths = (
{
closed = 1;
nodes = (
"115 424 LINE",
"271 424 LINE",
"271 72 LINE",
"97 72 LINE",
"97 0 LINE",
"511 0 LINE",
"511 72 LINE",
"349 72 LINE",
"349 496 LINE",
"115 496 LINE"
);
}
);
width = 608;
},
{
anchors = (
{
name = bottom;
position = "{316, 0}";
},
{
name = top;
position = "{309, 496}";
}
);
associatedMasterId = "CCC6267B-7D5D-4B2E-A229-3A2D752D6A18";
layerId = "4153F2E1-4209-4560-906A-08ADC2807DE0";
name = original;
paths = (
{
closed = 1;
nodes = (
"97 376 LINE",
"253 376 LINE",
"253 120 LINE",
"85 120 LINE",
"85 0 LINE",
"523 0 LINE",
"523 120 LINE",
"379 120 LINE",
"379 496 LINE",
"97 496 LINE"
);
}
);
width = 608;
},
{
anchors = (
{
name = bottom;
position = "{117, 0}";
},
{
name = top;
position = "{117, 496}";
}
);
layerId = "CCC6267B-7D5D-4B2E-A229-3A2D752D6A18";
paths = (
{
closed = 1;
nodes = (
"70 496 LINE",
"70 0 LINE",
"164 0 LINE",
"164 496 LINE"
);
}
);
width = 234;
},
{
anchors = (
{
name = bottom;
position = "{107, 0}";
},
{
name = top;
position = "{107, 496}";
}
);
layerId = "A285862E-BE3D-4D67-A40D-0E28E121AD88";
paths = (
{
closed = 1;
nodes = (
"82 496 LINE",
"82 0 LINE",
"132 0 LINE",
"132 496 LINE"
);
}
);
width = 214;
},
{
anchors = (
{
name = bottom;
position = "{123, 0}";
},
{
name = top;
position = "{123, 496}";
}
);
layerId = "5117E3E8-E17C-4812-BAF5-9E7064564A59";
paths = (
{
closed = 1;
nodes = (
"60 496 LINE",
"60 0 LINE",
"186 0 LINE",
"186 496 LINE"
);
}
);
width = 246;
}
);
leftKerningGroup = n;
note = dotlessi;
rightKerningGroup = u;
unicode = 0131;
},
{
glyphname = jdotless;
lastChange = "2017-12-13 13:03:36 +0000";
layers = (
{
anchors = (
{
name = top;
position = "{370, 496}";
}
);
associatedMasterId = "CCC6267B-7D5D-4B2E-A229-3A2D752D6A18";
layerId = "95EBBE24-6DC2-4E5C-B22B-D2929A146C0A";
name = original;
paths = (
{
closed = 1;
nodes = (
"139 424 LINE",
"337 424 LINE",
"337 -98 LINE SMOOTH",
"337 -118 OFFCURVE",
"328 -128 OFFCURVE",
"310 -128 CURVE SMOOTH",
"115 -128 LINE",
"115 -200 LINE",
"338 -200 LINE SMOOTH",
"383 -200 OFFCURVE",
"415 -167 OFFCURVE",
"415 -122 CURVE SMOOTH",
"415 496 LINE",
"139 496 LINE"
);
}
);
width = 608;
},
{
anchors = (
{
name = top;
position = "{378, 496}";
}
);
associatedMasterId = "CCC6267B-7D5D-4B2E-A229-3A2D752D6A18";
layerId = "F43C583A-C58D-4C55-A3F2-EC93612AEA61";
name = original;
paths = (
{
closed = 1;
nodes = (
"130 376 LINE",
"322 376 LINE",
"322 -47 LINE SMOOTH",
"322 -69 OFFCURVE",
"312 -80 OFFCURVE",
"292 -80 CURVE SMOOTH",
"112 -80 LINE",
"112 -200 LINE",
"347 -200 LINE SMOOTH",
"407 -200 OFFCURVE",
"448 -167 OFFCURVE",
"448 -98 CURVE SMOOTH",
"448 496 LINE",
"130 496 LINE"
);
}
);
width = 608;
},
{
anchors = (
{
name = top;
position = "{117, 496}";
}
);
layerId = "CCC6267B-7D5D-4B2E-A229-3A2D752D6A18";
paths = (
{
closed = 1;
nodes = (
"70 496 LINE",
"70 -88 LINE SMOOTH",
"70 -108 OFFCURVE",
"60 -118 OFFCURVE",
"42 -118 CURVE SMOOTH",
"-44 -118 LINE",
"-44 -200 LINE",
"82 -200 LINE SMOOTH",
"130 -200 OFFCURVE",
"164 -166 OFFCURVE",
"164 -116 CURVE SMOOTH",
"164 496 LINE"
);
}
);
width = 234;
},
{
anchors = (
{
name = top;
position = "{115, 496}";
}
);
layerId = "A285862E-BE3D-4D67-A40D-0E28E121AD88";
paths = (
{
closed = 1;
nodes = (
"90 496 LINE",
"90 -126 LINE SMOOTH",
"90 -146 OFFCURVE",
"80 -156 OFFCURVE",
"62 -156 CURVE SMOOTH",
"-40 -156 LINE",
"-40 -200 LINE",
"76 -200 LINE SMOOTH",
"116 -200 OFFCURVE",
"140 -176 OFFCURVE",
"140 -134 CURVE SMOOTH",
"140 496 LINE"
);
}
);
width = 222;
},
{
anchors = (
{
name = top;
position = "{131, 496}";
}
);
layerId = "5117E3E8-E17C-4812-BAF5-9E7064564A59";
paths = (
{
closed = 1;
nodes = (
"68 496 LINE",
"68 -60 LINE SMOOTH",
"68 -80 OFFCURVE",
"58 -90 OFFCURVE",
"40 -90 CURVE SMOOTH",
"-46 -90 LINE",
"-46 -200 LINE",
"96 -200 LINE SMOOTH",
"152 -200 OFFCURVE",
"194 -160 OFFCURVE",
"194 -104 CURVE SMOOTH",
"194 496 LINE"
);
}
);
width = 254;
}
);
leftKerningGroup = n;
note = uni0237;
rightKerningGroup = u;
rightMetricsKey = idotless;
unicode = 0237;
},
{
glyphname = k;
lastChange = "2017-12-23 17:22:58 +0000";
layers = (
{
anchors = (
{
name = bottom;
position = "{309, 0}";
}
);
associatedMasterId = "CCC6267B-7D5D-4B2E-A229-3A2D752D6A18";
layerId = "0F8F4F52-2128-4901-8415-FD490F3D2E11";
name = original;
paths = (
{
closed = 1;
nodes = (
"135 0 LINE",
"213 0 LINE",
"213 218 LINE",
"232 218 LINE",
"443 0 LINE",
"539 0 LINE",
"539 6 LINE",
"309 245 LINE",
"309 263 LINE",
"515 490 LINE",
"515 496 LINE",
"419 496 LINE",
"230 290 LINE",
"213 290 LINE",
"213 700 LINE",
"135 700 LINE"
);
}
);
width = 608;
},
{
anchors = (
{
name = bottom;
position = "{309, 0}";
}
);
associatedMasterId = "CCC6267B-7D5D-4B2E-A229-3A2D752D6A18";
layerId = "839D04C8-720E-4533-A1D6-5A228E14C3BC";
name = original;
paths = (
{
closed = 1;
nodes = (
"116 0 LINE",
"242 0 LINE",
"242 194 LINE",
"266 194 LINE",
"408 0 LINE",
"552 0 LINE",
"552 6 LINE",
"376 245 LINE",
"376 263 LINE",
"536 490 LINE",
"536 496 LINE",
"398 496 LINE",
"266 314 LINE",
"242 314 LINE",
"242 700 LINE",
"116 700 LINE"
);
}
);
width = 608;
},
{
anchors = (
{
name = bottom;
position = "{296, 0}";
}
);
layerId = "CCC6267B-7D5D-4B2E-A229-3A2D752D6A18";
paths = (
{
closed = 1;
nodes = (
"164 0 LINE",
"164 163 LINE",
"562 496 LINE",
"424 496 LINE",
"176 287 LINE",
"164 287 LINE",
"164 700 LINE",
"70 700 LINE",
"70 0 LINE"
);
},
{
closed = 1;
nodes = (
"254 269 LINE",
"445 0 LINE",
"558 0 LINE",
"322 327 LINE"
);
}
);
width = 576;
},
{
anchors = (
{
name = bottom;
position = "{296, 0}";
}
);
layerId = "A285862E-BE3D-4D67-A40D-0E28E121AD88";
paths = (
{
closed = 1;
nodes = (
"132 0 LINE",
"132 162 LINE",
"535 496 LINE",
"452 496 LINE",
"144 234 LINE",
"132 234 LINE",
"132 700 LINE",
"82 700 LINE",
"82 0 LINE"
);
},
{
closed = 1;
nodes = (
"255 296 LINE",
"471 0 LINE",
"532 0 LINE",
"294 325 LINE"
);
}
);
width = 559;
},
{
anchors = (
{
name = bottom;
position = "{301, 0}";
}
);
layerId = "5117E3E8-E17C-4812-BAF5-9E7064564A59";
paths = (
{
closed = 1;
nodes = (
"186 0 LINE",
"186 171 LINE",
"576 496 LINE",
"400 496 LINE",
"198 326 LINE",
"186 326 LINE",
"186 700 LINE",
"60 700 LINE",
"60 0 LINE"
);
},
{
closed = 1;
nodes = (
"241 264 LINE",
"422 0 LINE",
"568 0 LINE",
"329 341 LINE"
);
}
);
width = 578;
}
);
leftKerningGroup = h;
leftMetricsKey = l;
note = k;
rightKerningGroup = k;
unicode = 006B;
},
{
glyphname = l;
lastChange = "2017-11-17 17:27:11 +0000";
layers = (
{
anchors = (
{
name = bottom;
position = "{304, 0}";
},
{
name = caron;
position = "{343, 700}";
},
{
name = top;
position = "{298, 700}";
}
);
associatedMasterId = "CCC6267B-7D5D-4B2E-A229-3A2D752D6A18";
layerId = "6B45736F-692C-4544-8617-0D2EFD8A6FD9";
name = original;
paths = (
{
closed = 1;
nodes = (
"91 628 LINE",
"265 628 LINE",
"265 72 LINE",
"85 72 LINE",
"85 0 LINE",
"523 0 LINE",
"523 72 LINE",
"343 72 LINE",
"343 700 LINE",
"91 700 LINE"
);
}
);
width = 608;
},
{
anchors = (
{
name = bottom;
position = "{304, 0}";
},
{
name = caron;
position = "{373, 700}";
},
{
name = top;
position = "{303, 700}";
}
);
associatedMasterId = "CCC6267B-7D5D-4B2E-A229-3A2D752D6A18";
layerId = "CDBF9733-62E5-4747-A743-B163FAA47D81";
name = original;
paths = (
{
closed = 1;
nodes = (
"79 580 LINE",
"247 580 LINE",
"247 120 LINE",
"73 120 LINE",
"73 0 LINE",
"535 0 LINE",
"535 120 LINE",
"373 120 LINE",
"373 700 LINE",
"79 700 LINE"
);
}
);
width = 608;
},
{
anchors = (
{
name = bottom;
position = "{117, 0}";
},
{
name = caron;
position = "{164, 700}";
},
{
name = top;
position = "{117, 700}";
}
);
layerId = "CCC6267B-7D5D-4B2E-A229-3A2D752D6A18";
paths = (
{
closed = 1;
nodes = (
"70 700 LINE",
"70 0 LINE",
"164 0 LINE",
"164 700 LINE"
);
}
);
width = 234;
},
{
anchors = (
{
name = bottom;
position = "{107, 0}";
},
{
name = caron;
position = "{132, 700}";
},
{
name = top;
position = "{107, 700}";
}
);
layerId = "A285862E-BE3D-4D67-A40D-0E28E121AD88";
paths = (
{
closed = 1;
nodes = (
"82 700 LINE",
"82 0 LINE",
"132 0 LINE",
"132 700 LINE"
);
}
);
width = 214;
},
{
anchors = (
{
name = bottom;
position = "{123, 0}";
},
{
name = caron;
position = "{186, 700}";
},
{
name = top;
position = "{123, 700}";
}
);
layerId = "5117E3E8-E17C-4812-BAF5-9E7064564A59";
paths = (
{
closed = 1;
nodes = (
"60 700 LINE",
"60 0 LINE",
"186 0 LINE",
"186 700 LINE"
);
}
);
width = 246;
}
);
leftKerningGroup = l;
note = l;
rightKerningGroup = l;
unicode = 006C;
},
{
glyphname = lslash;
lastChange = "2018-01-06 13:40:55 +0000";
layers = (
{
layerId = "CCC6267B-7D5D-4B2E-A229-3A2D752D6A18";
paths = (
{
closed = 1;
nodes = (
"115 700 LINE",
"115 0 LINE",
"209 0 LINE",
"209 700 LINE"
);
},
{
closed = 1;
nodes = (
"45 241 LINE",
"313 367 LINE",
"279 439 LINE",
"10 313 LINE"
);
}
);
width = 323;
},
{
layerId = "A285862E-BE3D-4D67-A40D-0E28E121AD88";
paths = (
{
closed = 1;
nodes = (
"121 700 LINE",
"121 0 LINE",
"171 0 LINE",
"171 700 LINE"
);
},
{
closed = 1;
nodes = (
"46 267 LINE",
"266 378 LINE",
"246 416 LINE",
"26 305 LINE"
);
}
);
width = 292;
},
{
layerId = "5117E3E8-E17C-4812-BAF5-9E7064564A59";
paths = (
{
closed = 1;
nodes = (
"111 700 LINE",
"111 0 LINE",
"237 0 LINE",
"237 700 LINE"
);
},
{
closed = 1;
nodes = (
"51 239 LINE",
"338 365 LINE",
"297 450 LINE",
"10 324 LINE"
);
}
);
width = 348;
}
);
leftKerningGroup = lslash;
note = lslash;
rightKerningGroup = laslash;
unicode = 0142;
},
{
glyphname = m;
lastChange = "2017-12-13 12:56:58 +0000";
layers = (
{
associatedMasterId = "CCC6267B-7D5D-4B2E-A229-3A2D752D6A18";
layerId = "44499529-68DA-4D6F-9D2D-B5FAF251906F";
name = original;
paths = (
{
closed = 1;
nodes = (
"34 0 LINE",
"160 0 LINE",
"160 342 LINE SMOOTH",
"160 374 OFFCURVE",
"178 390 OFFCURVE",
"202 390 CURVE SMOOTH",
"223 390 OFFCURVE",
"241 376 OFFCURVE",
"241 348 CURVE SMOOTH",
"241 0 LINE",
"367 0 LINE",
"367 342 LINE SMOOTH",
"367 374 OFFCURVE",
"383 390 OFFCURVE",
"410 390 CURVE SMOOTH",
"433 390 OFFCURVE",
"448 376 OFFCURVE",
"448 348 CURVE SMOOTH",
"448 0 LINE",
"574 0 LINE",
"574 384 LINE SMOOTH",
"574 463 OFFCURVE",
"531 510 OFFCURVE",
"464 510 CURVE SMOOTH",
"413 510 OFFCURVE",
"378 484 OFFCURVE",
"367 448 CURVE",
"349 448 LINE",
"338 484 OFFCURVE",
"306 510 OFFCURVE",
"262 510 CURVE SMOOTH",
"215 510 OFFCURVE",
"186 484 OFFCURVE",
"178 448 CURVE",
"160 448 LINE",
"160 496 LINE",
"34 496 LINE"
);
}
);
width = 608;
},
{
associatedMasterId = "CCC6267B-7D5D-4B2E-A229-3A2D752D6A18";
layerId = "AB31CD20-FD1E-4C68-893D-85BC235468BC";
name = original;
paths = (
{
closed = 1;
nodes = (
"46 0 LINE",
"124 0 LINE",
"124 342 LINE SMOOTH",
"124 398 OFFCURVE",
"151 436 OFFCURVE",
"199 436 CURVE SMOOTH",
"239 436 OFFCURVE",
"265 404 OFFCURVE",
"265 360 CURVE SMOOTH",
"265 0 LINE",
"343 0 LINE",
"343 336 LINE SMOOTH",
"343 404 OFFCURVE",
"373 436 OFFCURVE",
"417 436 CURVE SMOOTH",
"464 436 OFFCURVE",
"484 403 OFFCURVE",
"484 356 CURVE SMOOTH",
"484 0 LINE",
"562 0 LINE",
"562 382 LINE SMOOTH",
"562 458 OFFCURVE",
"520 510 OFFCURVE",
"445 510 CURVE SMOOTH",
"396 510 OFFCURVE",
"360 487 OFFCURVE",
"337 442 CURVE",
"325 442 LINE",
"313 482 OFFCURVE",
"281 510 OFFCURVE",
"233 510 CURVE SMOOTH",
"188 510 OFFCURVE",
"153 489 OFFCURVE",
"136 442 CURVE",
"124 442 LINE",
"124 496 LINE",
"46 496 LINE"
);
}
);
width = 608;
},
{
layerId = "CCC6267B-7D5D-4B2E-A229-3A2D752D6A18";
paths = (
{
closed = 1;
nodes = (
"70 0 LINE",
"164 0 LINE",
"164 312 LINE SMOOTH",
"164 386 OFFCURVE",
"213 424 OFFCURVE",
"276 424 CURVE SMOOTH",
"333 424 OFFCURVE",
"372 392 OFFCURVE",
"372 335 CURVE SMOOTH",
"372 0 LINE",
"466 0 LINE",
"466 312 LINE SMOOTH",
"466 386 OFFCURVE",
"512 424 OFFCURVE",
"573 424 CURVE SMOOTH",
"631 424 OFFCURVE",
"674 392 OFFCURVE",
"674 335 CURVE SMOOTH",
"674 0 LINE",
"768 0 LINE",
"768 341 LINE SMOOTH",
"768 442 OFFCURVE",
"689 504 OFFCURVE",
"602 504 CURVE SMOOTH",
"522 504 OFFCURVE",
"480 463 OFFCURVE",
"460 422 CURVE",
"446 422 LINE",
"422 467 OFFCURVE",
"381 504 OFFCURVE",
"310 504 CURVE SMOOTH",
"245 504 OFFCURVE",
"201 474 OFFCURVE",
"176 432 CURVE",
"162 432 LINE",
"162 496 LINE",
"70 496 LINE"
);
}
);
width = 832;
},
{
layerId = "A285862E-BE3D-4D67-A40D-0E28E121AD88";
paths = (
{
closed = 1;
nodes = (
"82 0 LINE",
"132 0 LINE",
"132 307 LINE SMOOTH",
"132 407 OFFCURVE",
"195 460 OFFCURVE",
"274 460 CURVE SMOOTH",
"354 460 OFFCURVE",
"400 411 OFFCURVE",
"400 340 CURVE SMOOTH",
"400 0 LINE",
"450 0 LINE",
"450 307 LINE SMOOTH",
"450 407 OFFCURVE",
"513 460 OFFCURVE",
"592 460 CURVE SMOOTH",
"672 460 OFFCURVE",
"718 411 OFFCURVE",
"718 340 CURVE SMOOTH",
"718 0 LINE",
"768 0 LINE",
"768 346 LINE SMOOTH",
"768 440 OFFCURVE",
"702 506 OFFCURVE",
"601 506 CURVE SMOOTH",
"531 506 OFFCURVE",
"476 477 OFFCURVE",
"445 413 CURVE",
"431 413 LINE",
"412 467 OFFCURVE",
"363 506 OFFCURVE",
"288 506 CURVE SMOOTH",
"216 506 OFFCURVE",
"170 477 OFFCURVE",
"144 429 CURVE",
"130 429 LINE",
"130 496 LINE",
"82 496 LINE"
);
}
);
width = 844;
},
{
layerId = "5117E3E8-E17C-4812-BAF5-9E7064564A59";
paths = (
{
closed = 1;
nodes = (
"60 0 LINE",
"186 0 LINE",
"186 302 LINE SMOOTH",
"186 364 OFFCURVE",
"224 394 OFFCURVE",
"276 394 CURVE SMOOTH",
"324 394 OFFCURVE",
"357 368 OFFCURVE",
"357 322 CURVE SMOOTH",
"357 0 LINE",
"483 0 LINE",
"483 302 LINE SMOOTH",
"483 364 OFFCURVE",
"521 394 OFFCURVE",
"573 394 CURVE SMOOTH",
"621 394 OFFCURVE",
"654 368 OFFCURVE",
"654 322 CURVE SMOOTH",
"654 0 LINE",
"780 0 LINE",
"780 332 LINE SMOOTH",
"780 435 OFFCURVE",
"707 504 OFFCURVE",
"616 504 CURVE SMOOTH",
"537 504 OFFCURVE",
"497 466 OFFCURVE",
"475 420 CURVE",
"461 420 LINE",
"440 470 OFFCURVE",
"393 504 OFFCURVE",
"329 504 CURVE SMOOTH",
"260 504 OFFCURVE",
"219 470 OFFCURVE",
"198 422 CURVE",
"184 422 LINE",
"184 496 LINE",
"60 496 LINE"
);
}
);
width = 834;
}
);
leftKerningGroup = n;
leftMetricsKey = idotless;
note = m;
rightKerningGroup = m;
rightMetricsKey = n;
unicode = 006D;
},
{
glyphname = n;
lastChange = "2017-12-13 12:54:14 +0000";
layers = (
{
anchors = (
{
name = bottom;
position = "{300, 0}";
},
{
name = top;
position = "{303, 496}";
}
);
layerId = "CCC6267B-7D5D-4B2E-A229-3A2D752D6A18";
paths = (
{
closed = 1;
nodes = (
"70 0 LINE",
"164 0 LINE",
"164 262 LINE SMOOTH",
"164 364 OFFCURVE",
"221 422 OFFCURVE",
"312 422 CURVE SMOOTH",
"392 422 OFFCURVE",
"438 378 OFFCURVE",
"438 293 CURVE SMOOTH",
"438 0 LINE",
"532 0 LINE",
"532 301 LINE SMOOTH",
"532 436 OFFCURVE",
"444 504 OFFCURVE",
"341 504 CURVE SMOOTH",
"244 504 OFFCURVE",
"199 459 OFFCURVE",
"176 413 CURVE",
"162 413 LINE",
"162 496 LINE",
"70 496 LINE"
);
}
);
width = 596;
},
{
anchors = (
{
name = bottom;
position = "{300, 0}";
},
{
name = top;
position = "{299, 496}";
}
);
layerId = "A285862E-BE3D-4D67-A40D-0E28E121AD88";
paths = (
{
closed = 1;
nodes = (
"82 0 LINE",
"132 0 LINE",
"132 254 LINE SMOOTH",
"132 392 OFFCURVE",
"211 460 OFFCURVE",
"314 460 CURVE SMOOTH",
"407 460 OFFCURVE",
"468 414 OFFCURVE",
"468 304 CURVE SMOOTH",
"468 0 LINE",
"518 0 LINE",
"518 308 LINE SMOOTH",
"518 443 OFFCURVE",
"426 506 OFFCURVE",
"324 506 CURVE SMOOTH",
"222 506 OFFCURVE",
"171 455 OFFCURVE",
"144 404 CURVE",
"130 404 LINE",
"130 496 LINE",
"82 496 LINE"
);
}
);
width = 594;
},
{
anchors = (
{
name = bottom;
position = "{305, 0}";
},
{
name = top;
position = "{297, 496}";
}
);
layerId = "5117E3E8-E17C-4812-BAF5-9E7064564A59";
paths = (
{
closed = 1;
nodes = (
"60 0 LINE",
"186 0 LINE",
"186 256 LINE SMOOTH",
"186 344 OFFCURVE",
"229 394 OFFCURVE",
"310 394 CURVE SMOOTH",
"382 394 OFFCURVE",
"422 353 OFFCURVE",
"422 284 CURVE SMOOTH",
"422 0 LINE",
"548 0 LINE",
"548 296 LINE SMOOTH",
"548 425 OFFCURVE",
"465 504 OFFCURVE",
"355 504 CURVE SMOOTH",
"264 504 OFFCURVE",
"218 462 OFFCURVE",
"198 416 CURVE",
"184 416 LINE",
"184 496 LINE",
"60 496 LINE"
);
}
);
width = 602;
}
);
leftKerningGroup = n;
leftMetricsKey = idotless;
note = n;
rightKerningGroup = n;
unicode = 006E;
},
{
glyphname = eng;
lastChange = "2017-11-17 17:40:29 +0000";
layers = (
{
layerId = "CCC6267B-7D5D-4B2E-A229-3A2D752D6A18";
paths = (
{
closed = 1;
nodes = (
"438 0 LINE",
"438 -85 LINE SMOOTH",
"438 -106 OFFCURVE",
"429 -116 OFFCURVE",
"410 -116 CURVE SMOOTH",
"324 -116 LINE",
"324 -200 LINE",
"447 -200 LINE SMOOTH",
"497 -200 OFFCURVE",
"532 -167 OFFCURVE",
"532 -114 CURVE SMOOTH",
"532 0 LINE"
);
},
{
closed = 1;
nodes = (
"70 0 LINE",
"164 0 LINE",
"164 268 LINE SMOOTH",
"164 370 OFFCURVE",
"221 428 OFFCURVE",
"312 428 CURVE SMOOTH",
"392 428 OFFCURVE",
"438 384 OFFCURVE",
"438 299 CURVE SMOOTH",
"438 0 LINE",
"532 0 LINE",
"532 306 LINE SMOOTH",
"532 441 OFFCURVE",
"446 510 OFFCURVE",
"343 510 CURVE SMOOTH",
"246 510 OFFCURVE",
"199 465 OFFCURVE",
"176 419 CURVE",
"162 419 LINE",
"162 496 LINE",
"70 496 LINE"
);
}
);
width = 596;
},
{
layerId = "A285862E-BE3D-4D67-A40D-0E28E121AD88";
paths = (
{
closed = 1;
nodes = (
"468 0 LINE",
"468 -128 LINE SMOOTH",
"468 -147 OFFCURVE",
"460 -156 OFFCURVE",
"443 -156 CURVE SMOOTH",
"338 -156 LINE",
"338 -200 LINE",
"455 -200 LINE SMOOTH",
"491 -200 OFFCURVE",
"518 -167 OFFCURVE",
"518 -136 CURVE SMOOTH",
"518 0 LINE"
);
},
{
closed = 1;
nodes = (
"82 0 LINE",
"132 0 LINE",
"132 258 LINE SMOOTH",
"132 390 OFFCURVE",
"201 464 OFFCURVE",
"314 464 CURVE SMOOTH",
"415 464 OFFCURVE",
"468 408 OFFCURVE",
"468 289 CURVE SMOOTH",
"468 0 LINE",
"518 0 LINE",
"518 296 LINE SMOOTH",
"518 448 OFFCURVE",
"433 510 OFFCURVE",
"324 510 CURVE SMOOTH",
"226 510 OFFCURVE",
"173 473 OFFCURVE",
"140 400 CURVE",
"130 400 LINE",
"130 496 LINE",
"82 496 LINE"
);
}
);
width = 594;
},
{
layerId = "5117E3E8-E17C-4812-BAF5-9E7064564A59";
paths = (
{
closed = 1;
nodes = (
"422 0 LINE",
"422 -53 LINE SMOOTH",
"422 -75 OFFCURVE",
"412 -86 OFFCURVE",
"392 -86 CURVE SMOOTH",
"308 -86 LINE",
"308 -200 LINE",
"447 -200 LINE SMOOTH",
"507 -200 OFFCURVE",
"548 -167 OFFCURVE",
"548 -98 CURVE SMOOTH",
"548 0 LINE"
);
},
{
closed = 1;
nodes = (
"60 0 LINE",
"186 0 LINE",
"186 260 LINE SMOOTH",
"186 344 OFFCURVE",
"227 398 OFFCURVE",
"310 398 CURVE SMOOTH",
"382 398 OFFCURVE",
"422 361 OFFCURVE",
"422 292 CURVE SMOOTH",
"422 0 LINE",
"548 0 LINE",
"548 310 LINE SMOOTH",
"548 437 OFFCURVE",
"469 510 OFFCURVE",
"355 510 CURVE SMOOTH",
"264 510 OFFCURVE",
"218 468 OFFCURVE",
"198 422 CURVE",
"184 422 LINE",
"184 496 LINE",
"60 496 LINE"
);
}
);
width = 602;
}
);
leftKerningGroup = n;
leftMetricsKey = n;
note = eng;
rightKerningGroup = n;
rightMetricsKey = n;
unicode = 014B;
},
{
glyphname = o;
lastChange = "2018-01-05 16:31:45 +0000";
layers = (
{
anchors = (
{
name = top;
position = "{290, 496}";
}
);
layerId = "CCC6267B-7D5D-4B2E-A229-3A2D752D6A18";
paths = (
{
closed = 1;
nodes = (
"38 94 OFFCURVE",
"146 -14 OFFCURVE",
"290 -14 CURVE SMOOTH",
"434 -14 OFFCURVE",
"542 94 OFFCURVE",
"542 248 CURVE SMOOTH",
"542 402 OFFCURVE",
"434 510 OFFCURVE",
"290 510 CURVE SMOOTH",
"146 510 OFFCURVE",
"38 402 OFFCURVE",
"38 248 CURVE SMOOTH"
);
},
{
closed = 1;
nodes = (
"132 358 OFFCURVE",
"196 424 OFFCURVE",
"290 424 CURVE SMOOTH",
"384 424 OFFCURVE",
"448 358 OFFCURVE",
"448 248 CURVE SMOOTH",
"448 138 OFFCURVE",
"384 72 OFFCURVE",
"290 72 CURVE SMOOTH",
"196 72 OFFCURVE",
"132 138 OFFCURVE",
"132 248 CURVE SMOOTH"
);
}
);
width = 580;
},
{
anchors = (
{
name = top;
position = "{294, 496}";
}
);
layerId = "A285862E-BE3D-4D67-A40D-0E28E121AD88";
paths = (
{
closed = 1;
nodes = (
"50 96 OFFCURVE",
"146 -14 OFFCURVE",
"294 -14 CURVE SMOOTH",
"442 -14 OFFCURVE",
"538 96 OFFCURVE",
"538 248 CURVE SMOOTH",
"538 400 OFFCURVE",
"442 510 OFFCURVE",
"294 510 CURVE SMOOTH",
"146 510 OFFCURVE",
"50 400 OFFCURVE",
"50 248 CURVE SMOOTH"
);
},
{
closed = 1;
nodes = (
"100 370 OFFCURVE",
"175 464 OFFCURVE",
"294 464 CURVE SMOOTH",
"412 464 OFFCURVE",
"488 375 OFFCURVE",
"488 248 CURVE SMOOTH",
"488 123 OFFCURVE",
"412 32 OFFCURVE",
"294 32 CURVE SMOOTH",
"175 32 OFFCURVE",
"100 118 OFFCURVE",
"100 248 CURVE SMOOTH"
);
}
);
width = 588;
},
{
anchors = (
{
name = top;
position = "{290, 496}";
}
);
layerId = "5117E3E8-E17C-4812-BAF5-9E7064564A59";
paths = (
{
closed = 1;
nodes = (
"30 92 OFFCURVE",
"144 -14 OFFCURVE",
"290 -14 CURVE SMOOTH",
"436 -14 OFFCURVE",
"550 92 OFFCURVE",
"550 248 CURVE SMOOTH",
"550 404 OFFCURVE",
"436 510 OFFCURVE",
"290 510 CURVE SMOOTH",
"144 510 OFFCURVE",
"30 404 OFFCURVE",
"30 248 CURVE SMOOTH"
);
},
{
closed = 1;
nodes = (
"156 336 OFFCURVE",
"210 394 OFFCURVE",
"290 394 CURVE SMOOTH",
"370 394 OFFCURVE",
"424 336 OFFCURVE",
"424 248 CURVE SMOOTH",
"424 160 OFFCURVE",
"370 102 OFFCURVE",
"290 102 CURVE SMOOTH",
"210 102 OFFCURVE",
"156 160 OFFCURVE",
"156 248 CURVE SMOOTH"
);
}
);
width = 580;
}
);
leftKerningGroup = o;
note = o;
rightKerningGroup = o;
unicode = 006F;
},
{
glyphname = oe;
lastChange = "2017-12-13 15:28:21 +0000";
layers = (
{
layerId = "CCC6267B-7D5D-4B2E-A229-3A2D752D6A18";
paths = (
{
closed = 1;
nodes = (
"261 496 LINE",
"261 0 LINE",
"351 0 LINE",
"351 496 LINE"
);
},
{
closed = 1;
nodes = (
"306 510 LINE",
"152 510 OFFCURVE",
"38 402 OFFCURVE",
"38 248 CURVE SMOOTH",
"38 94 OFFCURVE",
"152 -14 OFFCURVE",
"308 -14 CURVE",
"306 68 LINE",
"200 68 OFFCURVE",
"132 136 OFFCURVE",
"132 248 CURVE SMOOTH",
"132 360 OFFCURVE",
"200 428 OFFCURVE",
"306 428 CURVE"
);
},
{
closed = 1;
nodes = (
"306 428 LINE",
"400 428 OFFCURVE",
"462 376 OFFCURVE",
"464 290 CURVE",
"351 290 LINE",
"351 214 LINE",
"562 214 LINE",
"562 261 LINE SMOOTH",
"562 405 OFFCURVE",
"456 510 OFFCURVE",
"306 510 CURVE"
);
},
{
closed = 1;
nodes = (
"308 -14 LINE",
"434 -14 OFFCURVE",
"504 51 OFFCURVE",
"543 104 CURVE",
"473 156 LINE",
"441 95 OFFCURVE",
"386 68 OFFCURVE",
"306 68 CURVE"
);
}
);
width = 600;
},
{
layerId = "A285862E-BE3D-4D67-A40D-0E28E121AD88";
paths = (
{
closed = 1;
nodes = (
"273 496 LINE",
"273 0 LINE",
"323 0 LINE",
"323 496 LINE"
);
},
{
closed = 1;
nodes = (
"298 510 LINE",
"148 510 OFFCURVE",
"50 400 OFFCURVE",
"50 248 CURVE SMOOTH",
"50 96 OFFCURVE",
"148 -14 OFFCURVE",
"298 -14 CURVE",
"298 32 LINE",
"177 32 OFFCURVE",
"100 118 OFFCURVE",
"100 248 CURVE SMOOTH",
"100 370 OFFCURVE",
"177 464 OFFCURVE",
"298 464 CURVE"
);
},
{
closed = 1;
nodes = (
"298 464 LINE",
"402 464 OFFCURVE",
"480 400 OFFCURVE",
"484 281 CURVE",
"323 281 LINE",
"323 237 LINE",
"536 237 LINE",
"536 269 LINE SMOOTH",
"536 420 OFFCURVE",
"433 510 OFFCURVE",
"298 510 CURVE"
);
},
{
closed = 1;
nodes = (
"298 -14 LINE",
"427 -14 OFFCURVE",
"488 57 OFFCURVE",
"521 125 CURVE",
"473 144 LINE",
"445 81 OFFCURVE",
"396 32 OFFCURVE",
"298 32 CURVE"
);
}
);
width = 586;
},
{
layerId = "5117E3E8-E17C-4812-BAF5-9E7064564A59";
paths = (
{
closed = 1;
nodes = (
"261 496 LINE",
"261 0 LINE",
"379 0 LINE",
"379 496 LINE"
);
},
{
closed = 1;
nodes = (
"320 510 LINE",
"146 510 OFFCURVE",
"30 404 OFFCURVE",
"30 248 CURVE SMOOTH",
"30 92 OFFCURVE",
"146 -14 OFFCURVE",
"324 -14 CURVE",
"320 96 LINE",
"212 96 OFFCURVE",
"156 156 OFFCURVE",
"156 248 CURVE SMOOTH",
"156 340 OFFCURVE",
"212 400 OFFCURVE",
"320 400 CURVE"
);
},
{
closed = 1;
nodes = (
"320 400 LINE",
"414 400 OFFCURVE",
"460 360 OFFCURVE",
"469 299 CURVE",
"379 299 LINE",
"379 211 LINE",
"599 211 LINE",
"599 250 LINE SMOOTH",
"599 405 OFFCURVE",
"494 510 OFFCURVE",
"320 510 CURVE"
);
},
{
closed = 1;
nodes = (
"324 -14 LINE",
"467 -14 OFFCURVE",
"532 50 OFFCURVE",
"570 93 CURVE",
"479 170 LINE",
"451 127 OFFCURVE",
"415 96 OFFCURVE",
"320 96 CURVE"
);
}
);
width = 629;
}
);
leftKerningGroup = o;
leftMetricsKey = o;
note = oe;
rightKerningGroup = o;
rightMetricsKey = e;
unicode = 0153;
},
{
glyphname = p;
lastChange = "2017-12-13 12:16:22 +0000";
layers = (
{
layerId = "CCC6267B-7D5D-4B2E-A229-3A2D752D6A18";
paths = (
{
closed = 1;
nodes = (
"164 -200 LINE",
"164 78 LINE",
"176 78 LINE",
"203 33 OFFCURVE",
"248 -14 OFFCURVE",
"344 -14 CURVE SMOOTH",
"473 -14 OFFCURVE",
"574 94 OFFCURVE",
"574 248 CURVE SMOOTH",
"574 402 OFFCURVE",
"473 510 OFFCURVE",
"344 510 CURVE SMOOTH",
"248 510 OFFCURVE",
"203 463 OFFCURVE",
"176 418 CURVE",
"162 418 LINE",
"162 496 LINE",
"70 496 LINE",
"70 -200 LINE"
);
},
{
closed = 1;
nodes = (
"224 70 OFFCURVE",
"164 138 OFFCURVE",
"164 248 CURVE SMOOTH",
"164 358 OFFCURVE",
"224 426 OFFCURVE",
"320 426 CURVE SMOOTH",
"414 426 OFFCURVE",
"480 362 OFFCURVE",
"480 248 CURVE SMOOTH",
"480 134 OFFCURVE",
"414 70 OFFCURVE",
"320 70 CURVE SMOOTH"
);
}
);
width = 612;
},
{
layerId = "A285862E-BE3D-4D67-A40D-0E28E121AD88";
paths = (
{
closed = 1;
nodes = (
"132 -200 LINE",
"132 96 LINE",
"144 96 LINE",
"172 42 OFFCURVE",
"227 -14 OFFCURVE",
"336 -14 CURVE SMOOTH",
"469 -14 OFFCURVE",
"570 90 OFFCURVE",
"570 248 CURVE SMOOTH",
"570 406 OFFCURVE",
"469 510 OFFCURVE",
"336 510 CURVE SMOOTH",
"227 510 OFFCURVE",
"172 454 OFFCURVE",
"144 400 CURVE",
"130 400 LINE",
"130 496 LINE",
"82 496 LINE",
"82 -200 LINE"
);
},
{
closed = 1;
nodes = (
"213 32 OFFCURVE",
"132 118 OFFCURVE",
"132 248 CURVE SMOOTH",
"132 378 OFFCURVE",
"213 464 OFFCURVE",
"327 464 CURVE SMOOTH",
"441 464 OFFCURVE",
"518 380 OFFCURVE",
"518 248 CURVE SMOOTH",
"518 116 OFFCURVE",
"441 32 OFFCURVE",
"327 32 CURVE SMOOTH"
);
}
);
width = 620;
},
{
layerId = "5117E3E8-E17C-4812-BAF5-9E7064564A59";
paths = (
{
closed = 1;
nodes = (
"186 -200 LINE",
"186 70 LINE",
"198 70 LINE",
"224 28 OFFCURVE",
"268 -14 OFFCURVE",
"356 -14 CURVE SMOOTH",
"480 -14 OFFCURVE",
"584 96 OFFCURVE",
"584 248 CURVE SMOOTH",
"584 400 OFFCURVE",
"480 510 OFFCURVE",
"356 510 CURVE SMOOTH",
"268 510 OFFCURVE",
"224 468 OFFCURVE",
"198 426 CURVE",
"184 426 LINE",
"184 496 LINE",
"60 496 LINE",
"60 -200 LINE"
);
},
{
closed = 1;
nodes = (
"244 98 OFFCURVE",
"186 154 OFFCURVE",
"186 248 CURVE SMOOTH",
"186 342 OFFCURVE",
"244 398 OFFCURVE",
"322 398 CURVE SMOOTH",
"398 398 OFFCURVE",
"458 344 OFFCURVE",
"458 248 CURVE SMOOTH",
"458 152 OFFCURVE",
"398 98 OFFCURVE",
"322 98 CURVE SMOOTH"
);
}
);
width = 614;
}
);
leftKerningGroup = n;
leftMetricsKey = idotless;
note = p;
rightKerningGroup = o;
rightMetricsKey = o;
unicode = 0070;
},
{
glyphname = thorn;
lastChange = "2017-11-17 17:37:22 +0000";
layers = (
{
layerId = "CCC6267B-7D5D-4B2E-A229-3A2D752D6A18";
paths = (
{
closed = 1;
nodes = (
"70 -200 LINE",
"164 -200 LINE",
"164 75 LINE",
"178 75 LINE",
"208 19 OFFCURVE",
"272 -14 OFFCURVE",
"342 -14 CURVE SMOOTH",
"479 -14 OFFCURVE",
"567 89 OFFCURVE",
"567 238 CURVE SMOOTH",
"567 258 LINE SMOOTH",
"567 401 OFFCURVE",
"479 510 OFFCURVE",
"344 510 CURVE SMOOTH",
"270 510 OFFCURVE",
"210 478 OFFCURVE",
"178 420 CURVE",
"164 420 LINE",
"164 700 LINE",
"70 700 LINE"
);
},
{
closed = 1;
nodes = (
"164 348 OFFCURVE",
"228 421 OFFCURVE",
"318 421 CURVE SMOOTH",
"408 421 OFFCURVE",
"472 355 OFFCURVE",
"472 257 CURVE SMOOTH",
"472 239 LINE SMOOTH",
"472 142 OFFCURVE",
"411 75 OFFCURVE",
"318 75 CURVE SMOOTH",
"227 75 OFFCURVE",
"164 148 OFFCURVE",
"164 242 CURVE SMOOTH",
"164 254 LINE SMOOTH"
);
}
);
width = 605;
},
{
layerId = "A285862E-BE3D-4D67-A40D-0E28E121AD88";
paths = (
{
closed = 1;
nodes = (
"82 -200 LINE",
"132 -200 LINE",
"132 101 LINE",
"142 101 LINE",
"170 41 OFFCURVE",
"227 -14 OFFCURVE",
"336 -14 CURVE SMOOTH",
"469 -14 OFFCURVE",
"570 85 OFFCURVE",
"570 239 CURVE SMOOTH",
"570 257 LINE SMOOTH",
"570 411 OFFCURVE",
"469 510 OFFCURVE",
"336 510 CURVE SMOOTH",
"227 510 OFFCURVE",
"170 455 OFFCURVE",
"142 395 CURVE",
"132 395 LINE",
"132 700 LINE",
"82 700 LINE"
);
},
{
closed = 1;
nodes = (
"132 379 OFFCURVE",
"213 464 OFFCURVE",
"327 464 CURVE SMOOTH",
"441 464 OFFCURVE",
"518 382 OFFCURVE",
"518 254 CURVE SMOOTH",
"518 242 LINE SMOOTH",
"518 114 OFFCURVE",
"441 32 OFFCURVE",
"327 32 CURVE SMOOTH",
"213 32 OFFCURVE",
"132 117 OFFCURVE",
"132 243 CURVE SMOOTH",
"132 253 LINE SMOOTH"
);
}
);
width = 620;
},
{
layerId = "5117E3E8-E17C-4812-BAF5-9E7064564A59";
paths = (
{
closed = 1;
nodes = (
"60 -200 LINE",
"186 -200 LINE",
"186 72 LINE",
"204 72 LINE",
"236 11 OFFCURVE",
"288 -14 OFFCURVE",
"357 -14 CURVE SMOOTH",
"489 -14 OFFCURVE",
"572 92 OFFCURVE",
"572 239 CURVE SMOOTH",
"572 257 LINE SMOOTH",
"572 400 OFFCURVE",
"488 510 OFFCURVE",
"357 510 CURVE SMOOTH",
"280 510 OFFCURVE",
"231 479 OFFCURVE",
"204 424 CURVE",
"186 424 LINE",
"186 700 LINE",
"60 700 LINE"
);
},
{
closed = 1;
nodes = (
"186 335 OFFCURVE",
"239 390 OFFCURVE",
"316 390 CURVE SMOOTH",
"393 390 OFFCURVE",
"446 338 OFFCURVE",
"446 254 CURVE SMOOTH",
"446 242 LINE SMOOTH",
"446 158 OFFCURVE",
"393 106 OFFCURVE",
"316 106 CURVE SMOOTH",
"239 106 OFFCURVE",
"186 161 OFFCURVE",
"186 242 CURVE SMOOTH",
"186 254 LINE SMOOTH"
);
}
);
width = 602;
}
);
leftKerningGroup = h;
leftMetricsKey = l;
note = thorn;
rightKerningGroup = o;
rightMetricsKey = o;
unicode = 00FE;
},
{
glyphname = q;
lastChange = "2017-12-13 12:17:07 +0000";
layers = (
{
layerId = "CCC6267B-7D5D-4B2E-A229-3A2D752D6A18";
paths = (
{
closed = 1;
nodes = (
"542 496 LINE",
"450 496 LINE",
"450 418 LINE",
"436 418 LINE",
"409 463 OFFCURVE",
"364 510 OFFCURVE",
"268 510 CURVE SMOOTH",
"139 510 OFFCURVE",
"38 402 OFFCURVE",
"38 248 CURVE SMOOTH",
"38 94 OFFCURVE",
"139 -14 OFFCURVE",
"268 -14 CURVE SMOOTH",
"364 -14 OFFCURVE",
"409 33 OFFCURVE",
"436 78 CURVE",
"448 78 LINE",
"448 -200 LINE",
"542 -200 LINE"
);
},
{
closed = 1;
nodes = (
"198 70 OFFCURVE",
"132 134 OFFCURVE",
"132 248 CURVE SMOOTH",
"132 362 OFFCURVE",
"198 426 OFFCURVE",
"292 426 CURVE SMOOTH",
"388 426 OFFCURVE",
"448 358 OFFCURVE",
"448 248 CURVE SMOOTH",
"448 138 OFFCURVE",
"388 70 OFFCURVE",
"292 70 CURVE SMOOTH"
);
}
);
width = 612;
},
{
layerId = "A285862E-BE3D-4D67-A40D-0E28E121AD88";
paths = (
{
closed = 1;
nodes = (
"538 496 LINE",
"490 496 LINE",
"490 400 LINE",
"476 400 LINE",
"448 454 OFFCURVE",
"393 510 OFFCURVE",
"284 510 CURVE SMOOTH",
"151 510 OFFCURVE",
"50 406 OFFCURVE",
"50 248 CURVE SMOOTH",
"50 90 OFFCURVE",
"151 -14 OFFCURVE",
"284 -14 CURVE SMOOTH",
"393 -14 OFFCURVE",
"448 42 OFFCURVE",
"476 96 CURVE",
"488 96 LINE",
"488 -200 LINE",
"538 -200 LINE"
);
},
{
closed = 1;
nodes = (
"179 32 OFFCURVE",
"102 116 OFFCURVE",
"102 248 CURVE SMOOTH",
"102 380 OFFCURVE",
"179 464 OFFCURVE",
"293 464 CURVE SMOOTH",
"407 464 OFFCURVE",
"488 378 OFFCURVE",
"488 248 CURVE SMOOTH",
"488 118 OFFCURVE",
"407 32 OFFCURVE",
"293 32 CURVE SMOOTH"
);
}
);
width = 620;
},
{
layerId = "5117E3E8-E17C-4812-BAF5-9E7064564A59";
paths = (
{
closed = 1;
nodes = (
"554 496 LINE",
"430 496 LINE",
"430 426 LINE",
"416 426 LINE",
"390 468 OFFCURVE",
"346 510 OFFCURVE",
"258 510 CURVE SMOOTH",
"134 510 OFFCURVE",
"30 400 OFFCURVE",
"30 248 CURVE SMOOTH",
"30 96 OFFCURVE",
"134 -14 OFFCURVE",
"258 -14 CURVE SMOOTH",
"346 -14 OFFCURVE",
"390 28 OFFCURVE",
"416 70 CURVE",
"428 70 LINE",
"428 -200 LINE",
"554 -200 LINE"
);
},
{
closed = 1;
nodes = (
"216 98 OFFCURVE",
"156 152 OFFCURVE",
"156 248 CURVE SMOOTH",
"156 344 OFFCURVE",
"216 398 OFFCURVE",
"292 398 CURVE SMOOTH",
"370 398 OFFCURVE",
"428 342 OFFCURVE",
"428 248 CURVE SMOOTH",
"428 154 OFFCURVE",
"370 98 OFFCURVE",
"292 98 CURVE SMOOTH"
);
}
);
width = 614;
}
);
leftKerningGroup = o;
leftMetricsKey = o;
note = q;
rightKerningGroup = u;
rightMetricsKey = idotless;
unicode = 0071;
},
{
glyphname = r;
lastChange = "2017-12-13 12:33:19 +0000";
layers = (
{
anchors = (
{
name = bottom;
position = "{198, 0}";
},
{
name = top;
position = "{294, 496}";
}
);
associatedMasterId = "CCC6267B-7D5D-4B2E-A229-3A2D752D6A18";
layerId = "6CC17247-88CA-4997-AB6A-19C144A2CE41";
name = original;
paths = (
{
closed = 1;
nodes = (
"57 424 LINE",
"159 424 LINE",
"159 72 LINE",
"45 72 LINE",
"45 0 LINE",
"363 0 LINE",
"363 72 LINE",
"237 72 LINE",
"237 282 LINE SMOOTH",
"237 370 OFFCURVE",
"276 436 OFFCURVE",
"357 436 CURVE SMOOTH",
"421 436 OFFCURVE",
"471 398 OFFCURVE",
"471 306 CURVE",
"471 306 LINE",
"553 318 LINE",
"553 318 LINE",
"549 443 OFFCURVE",
"483 510 OFFCURVE",
"383 510 CURVE SMOOTH",
"323 510 OFFCURVE",
"274 485 OFFCURVE",
"249 430 CURVE",
"237 430 LINE",
"237 496 LINE",
"57 496 LINE"
);
}
);
width = 608;
},
{
anchors = (
{
name = bottom;
position = "{205, 0}";
},
{
name = top;
position = "{294, 496}";
}
);
associatedMasterId = "CCC6267B-7D5D-4B2E-A229-3A2D752D6A18";
layerId = "13639FBD-5500-4425-8DD3-D060DA05EEF9";
name = original;
paths = (
{
closed = 1;
nodes = (
"52 376 LINE",
"142 376 LINE",
"142 120 LINE",
"40 120 LINE",
"40 0 LINE",
"382 0 LINE",
"382 120 LINE",
"268 120 LINE",
"268 280 LINE SMOOTH",
"268 352 OFFCURVE",
"302 392 OFFCURVE",
"358 392 CURVE SMOOTH",
"414 392 OFFCURVE",
"442 357 OFFCURVE",
"442 302 CURVE",
"442 288 LINE",
"572 300 LINE",
"572 322 LINE SMOOTH",
"572 449 OFFCURVE",
"507 510 OFFCURVE",
"408 510 CURVE SMOOTH",
"345 510 OFFCURVE",
"299 479 OFFCURVE",
"280 424 CURVE",
"262 424 LINE",
"262 496 LINE",
"52 496 LINE"
);
}
);
width = 608;
},
{
anchors = (
{
name = bottom;
position = "{118, 0}";
},
{
name = top;
position = "{220, 496}";
}
);
layerId = "CCC6267B-7D5D-4B2E-A229-3A2D752D6A18";
paths = (
{
closed = 1;
nodes = (
"70 496 LINE",
"70 0 LINE",
"164 0 LINE",
"164 292 LINE SMOOTH",
"164 366 OFFCURVE",
"202 406 OFFCURVE",
"272 406 CURVE SMOOTH",
"358 406 LINE",
"358 498 LINE",
"300 498 LINE SMOOTH",
"229 498 OFFCURVE",
"189 468 OFFCURVE",
"172 416 CURVE",
"160 416 LINE",
"160 496 LINE"
);
}
);
width = 376;
},
{
anchors = (
{
name = bottom;
position = "{106, 0}";
},
{
name = top;
position = "{229, 496}";
}
);
layerId = "A285862E-BE3D-4D67-A40D-0E28E121AD88";
paths = (
{
closed = 1;
nodes = (
"82 496 LINE",
"82 0 LINE",
"132 0 LINE",
"132 319 LINE SMOOTH",
"132 410 OFFCURVE",
"179 452 OFFCURVE",
"255 452 CURVE SMOOTH",
"336 452 LINE",
"336 498 LINE",
"264 498 LINE SMOOTH",
"197 498 OFFCURVE",
"162 479 OFFCURVE",
"142 435 CURVE",
"130 435 LINE",
"130 496 LINE"
);
}
);
width = 360;
},
{
anchors = (
{
name = bottom;
position = "{125, 0}";
},
{
name = top;
position = "{206, 496}";
}
);
layerId = "5117E3E8-E17C-4812-BAF5-9E7064564A59";
paths = (
{
closed = 1;
nodes = (
"60 496 LINE",
"60 0 LINE",
"186 0 LINE",
"186 278 LINE SMOOTH",
"186 348 OFFCURVE",
"232 382 OFFCURVE",
"296 382 CURVE SMOOTH",
"370 382 LINE",
"370 498 LINE",
"320 498 LINE SMOOTH",
"257 498 OFFCURVE",
"215 479 OFFCURVE",
"196 424 CURVE",
"184 424 LINE",
"184 496 LINE"
);
}
);
width = 384;
}
);
leftKerningGroup = n;
leftMetricsKey = idotless;
note = r;
rightKerningGroup = r;
unicode = 0072;
},
{
glyphname = s;
lastChange = "2018-01-05 18:41:02 +0000";
layers = (
{
anchors = (
{
name = bottom;
position = "{312, 0}";
},
{
name = top;
position = "{295, 496}";
}
);
associatedMasterId = "CCC6267B-7D5D-4B2E-A229-3A2D752D6A18";
layerId = "BB10BC7A-B741-47EA-B0CD-FE72EFA10AB3";
name = original;
paths = (
{
closed = 1;
nodes = (
"112 362 LINE SMOOTH",
"112 275 OFFCURVE",
"175 231 OFFCURVE",
"290 223 CURVE SMOOTH",
"389 216 OFFCURVE",
"430 196 OFFCURVE",
"430 140 CURVE SMOOTH",
"430 88 OFFCURVE",
"381 58 OFFCURVE",
"308 58 CURVE SMOOTH",
"221 58 OFFCURVE",
"167 108 OFFCURVE",
"160 184 CURVE",
"86 166 LINE",
"94 54 OFFCURVE",
"185 -14 OFFCURVE",
"312 -14 CURVE SMOOTH",
"422 -14 OFFCURVE",
"508 39 OFFCURVE",
"508 140 CURVE SMOOTH",
"508 146 LINE SMOOTH",
"508 234 OFFCURVE",
"446 279 OFFCURVE",
"330 288 CURVE SMOOTH",
"251 294 OFFCURVE",
"188 308 OFFCURVE",
"188 368 CURVE SMOOTH",
"188 417 OFFCURVE",
"241 440 OFFCURVE",
"296 440 CURVE SMOOTH",
"368 440 OFFCURVE",
"415 402 OFFCURVE",
"422 338 CURVE",
"496 356 LINE",
"483 453 OFFCURVE",
"402 510 OFFCURVE",
"292 510 CURVE SMOOTH",
"200 510 OFFCURVE",
"112 460 OFFCURVE",
"112 368 CURVE SMOOTH"
);
}
);
width = 608;
},
{
anchors = (
{
name = bottom;
position = "{280, 0}";
},
{
name = top;
position = "{263, 496}";
}
);
associatedMasterId = "CCC6267B-7D5D-4B2E-A229-3A2D752D6A18";
layerId = "27579BE6-A750-497E-8E9A-448CC4A938AD";
name = original;
paths = (
{
closed = 1;
nodes = (
"74 352 LINE SMOOTH",
"74 257 OFFCURVE",
"145 209 OFFCURVE",
"257 201 CURVE SMOOTH",
"311 197 OFFCURVE",
"362 186 OFFCURVE",
"362 146 CURVE SMOOTH",
"362 114 OFFCURVE",
"327 100 OFFCURVE",
"280 100 CURVE SMOOTH",
"209 100 OFFCURVE",
"179 137 OFFCURVE",
"168 180 CURVE",
"52 142 LINE",
"72 41 OFFCURVE",
"164 -14 OFFCURVE",
"280 -14 CURVE SMOOTH",
"411 -14 OFFCURVE",
"486 49 OFFCURVE",
"486 148 CURVE SMOOTH",
"486 154 LINE SMOOTH",
"486 243 OFFCURVE",
"415 293 OFFCURVE",
"314 304 CURVE SMOOTH",
"250 311 OFFCURVE",
"198 318 OFFCURVE",
"198 356 CURVE SMOOTH",
"198 379 OFFCURVE",
"219 396 OFFCURVE",
"262 396 CURVE SMOOTH",
"309 396 OFFCURVE",
"338 374 OFFCURVE",
"350 338 CURVE",
"464 384 LINE",
"430 471 OFFCURVE",
"358 510 OFFCURVE",
"262 510 CURVE SMOOTH",
"161 510 OFFCURVE",
"74 453 OFFCURVE",
"74 358 CURVE SMOOTH"
);
}
);
width = 540;
},
{
anchors = (
{
name = bottom;
position = "{329, 0}";
},
{
name = top;
position = "{300, 496}";
}
);
associatedMasterId = "CCC6267B-7D5D-4B2E-A229-3A2D752D6A18";
layerId = "6356D96B-06B1-455B-BD7F-7FD36A2D85DE";
name = upraveny;
paths = (
{
closed = 1;
nodes = (
"88 350 LINE SMOOTH",
"88 263 OFFCURVE",
"140 215 OFFCURVE",
"309 201 CURVE SMOOTH",
"396 194 OFFCURVE",
"436 192 OFFCURVE",
"436 152 CURVE SMOOTH",
"436 113 OFFCURVE",
"387 98 OFFCURVE",
"334 98 CURVE SMOOTH",
"269 98 OFFCURVE",
"199 121 OFFCURVE",
"168 190 CURVE",
"52 147 LINE",
"91 56 OFFCURVE",
"180 -14 OFFCURVE",
"331 -14 CURVE SMOOTH",
"471 -14 OFFCURVE",
"560 50 OFFCURVE",
"560 150 CURVE SMOOTH",
"560 156 LINE SMOOTH",
"560 258 OFFCURVE",
"468 291 OFFCURVE",
"338 306 CURVE SMOOTH",
"249 316 OFFCURVE",
"212 317 OFFCURVE",
"212 354 CURVE SMOOTH",
"212 387 OFFCURVE",
"258 402 OFFCURVE",
"301 402 CURVE SMOOTH",
"343 402 OFFCURVE",
"406 390 OFFCURVE",
"434 328 CURVE",
"548 374 LINE",
"500 456 OFFCURVE",
"425 510 OFFCURVE",
"299 510 CURVE SMOOTH",
"168 510 OFFCURVE",
"88 442 OFFCURVE",
"88 356 CURVE SMOOTH"
);
}
);
width = 620;
},
{
anchors = (
{
name = bottom;
position = "{323, 0}";
},
{
name = top;
position = "{296, 496}";
}
);
associatedMasterId = "CCC6267B-7D5D-4B2E-A229-3A2D752D6A18";
layerId = "D8988D21-9D14-40E0-9288-73860B42AFDC";
name = "upraveny new";
paths = (
{
closed = 1;
nodes = (
"72 351 LINE SMOOTH",
"72 263 OFFCURVE",
"135 213 OFFCURVE",
"302 195 CURVE SMOOTH",
"395 185 OFFCURVE",
"450 188 OFFCURVE",
"450 148 CURVE SMOOTH",
"450 111 OFFCURVE",
"405 94 OFFCURVE",
"328 94 CURVE SMOOTH",
"251 94 OFFCURVE",
"180 121 OFFCURVE",
"134 185 CURVE",
"20 134 LINE",
"69 73 OFFCURVE",
"162 -14 OFFCURVE",
"325 -14 CURVE SMOOTH",
"481 -14 OFFCURVE",
"574 48 OFFCURVE",
"574 148 CURVE SMOOTH",
"574 154 LINE SMOOTH",
"574 253 OFFCURVE",
"486 288 OFFCURVE",
"340 303 CURVE SMOOTH",
"242 313 OFFCURVE",
"196 317 OFFCURVE",
"196 355 CURVE SMOOTH",
"196 385 OFFCURVE",
"239 404 OFFCURVE",
"292 404 CURVE SMOOTH",
"359 404 OFFCURVE",
"425 378 OFFCURVE",
"464 323 CURVE",
"571 378 LINE",
"519 443 OFFCURVE",
"433 510 OFFCURVE",
"292 510 CURVE SMOOTH",
"158 510 OFFCURVE",
"72 443 OFFCURVE",
"72 357 CURVE SMOOTH"
);
}
);
width = 620;
},
{
anchors = (
{
name = bottom;
position = "{277, 0}";
},
{
name = top;
position = "{260, 496}";
}
);
layerId = "CCC6267B-7D5D-4B2E-A229-3A2D752D6A18";
paths = (
{
closed = 1;
nodes = (
"60 270 OFFCURVE",
"133 233 OFFCURVE",
"243 217 CURVE SMOOTH",
"284 211 LINE SMOOTH",
"337 203 OFFCURVE",
"400 198 OFFCURVE",
"400 147 CURVE SMOOTH",
"400 99 OFFCURVE",
"350 66 OFFCURVE",
"280 66 CURVE SMOOTH",
"200 66 OFFCURVE",
"137 111 OFFCURVE",
"106 185 CURVE",
"22 140 LINE",
"60 68 OFFCURVE",
"138 -14 OFFCURVE",
"277 -14 CURVE SMOOTH",
"403 -14 OFFCURVE",
"493 52 OFFCURVE",
"493 150 CURVE SMOOTH",
"493 252 OFFCURVE",
"406 280 OFFCURVE",
"295 296 CURVE SMOOTH",
"254 302 LINE SMOOTH",
"201 310 OFFCURVE",
"153 316 OFFCURVE",
"153 364 CURVE SMOOTH",
"153 406 OFFCURVE",
"194 432 OFFCURVE",
"249 432 CURVE SMOOTH",
"307 432 OFFCURVE",
"366 405 OFFCURVE",
"420 335 CURVE",
"490 385 LINE",
"413 471 OFFCURVE",
"347 510 OFFCURVE",
"247 510 CURVE SMOOTH",
"147 510 OFFCURVE",
"60 456 OFFCURVE",
"60 363 CURVE SMOOTH"
);
}
);
width = 527;
},
{
anchors = (
{
name = bottom;
position = "{281, 0}";
},
{
name = top;
position = "{268, 496}";
}
);
layerId = "A285862E-BE3D-4D67-A40D-0E28E121AD88";
paths = (
{
closed = 1;
nodes = (
"73 283 OFFCURVE",
"147 250 OFFCURVE",
"247 235 CURVE SMOOTH",
"301 227 LINE SMOOTH",
"383 215 OFFCURVE",
"442 196 OFFCURVE",
"442 138 CURVE SMOOTH",
"442 76 OFFCURVE",
"380 32 OFFCURVE",
"284 32 CURVE SMOOTH",
"184 32 OFFCURVE",
"115 83 OFFCURVE",
"81 174 CURVE",
"35 155 LINE",
"68 71 OFFCURVE",
"147 -14 OFFCURVE",
"284 -14 CURVE SMOOTH",
"412 -14 OFFCURVE",
"492 51 OFFCURVE",
"492 139 CURVE SMOOTH",
"492 221 OFFCURVE",
"424 256 OFFCURVE",
"309 273 CURVE SMOOTH",
"255 281 LINE SMOOTH",
"182 292 OFFCURVE",
"123 311 OFFCURVE",
"123 375 CURVE SMOOTH",
"123 434 OFFCURVE",
"177 466 OFFCURVE",
"252 466 CURVE SMOOTH",
"330 466 OFFCURVE",
"402 428 OFFCURVE",
"451 351 CURVE",
"492 376 LINE",
"423 471 OFFCURVE",
"347 510 OFFCURVE",
"251 510 CURVE SMOOTH",
"152 510 OFFCURVE",
"73 458 OFFCURVE",
"73 373 CURVE SMOOTH"
);
}
);
width = 532;
},
{
anchors = (
{
name = bottom;
position = "{267, 0}";
},
{
name = top;
position = "{256, 496}";
}
);
layerId = "5117E3E8-E17C-4812-BAF5-9E7064564A59";
paths = (
{
closed = 1;
nodes = (
"42 264 OFFCURVE",
"105 221 OFFCURVE",
"244 202 CURVE SMOOTH",
"259 200 LINE SMOOTH",
"313 193 OFFCURVE",
"364 189 OFFCURVE",
"364 152 CURVE SMOOTH",
"364 113 OFFCURVE",
"317 92 OFFCURVE",
"268 92 CURVE SMOOTH",
"204 92 OFFCURVE",
"138 124 OFFCURVE",
"107 189 CURVE",
"6 126 LINE",
"52 56 OFFCURVE",
"128 -14 OFFCURVE",
"265 -14 CURVE SMOOTH",
"397 -14 OFFCURVE",
"488 57 OFFCURVE",
"488 154 CURVE SMOOTH",
"488 245 OFFCURVE",
"429 285 OFFCURVE",
"270 306 CURVE SMOOTH",
"255 308 LINE SMOOTH",
"203 315 OFFCURVE",
"166 321 OFFCURVE",
"166 357 CURVE SMOOTH",
"166 387 OFFCURVE",
"192 406 OFFCURVE",
"237 406 CURVE SMOOTH",
"303 406 OFFCURVE",
"353 368 OFFCURVE",
"391 323 CURVE",
"482 395 LINE",
"415 465 OFFCURVE",
"343 510 OFFCURVE",
"241 510 CURVE SMOOTH",
"126 510 OFFCURVE",
"42 448 OFFCURVE",
"42 356 CURVE SMOOTH"
);
}
);
width = 510;
}
);
leftKerningGroup = s;
note = s;
rightKerningGroup = s;
unicode = 0073;
},
{
glyphname = germandbls;
lastChange = "2017-12-29 15:24:27 +0000";
layers = (
{
layerId = "CCC6267B-7D5D-4B2E-A229-3A2D752D6A18";
paths = (
{
closed = 1;
nodes = (
"70 -200 LINE",
"164 -200 LINE",
"164 500 LINE SMOOTH",
"164 582 OFFCURVE",
"213 630 OFFCURVE",
"280 630 CURVE SMOOTH",
"353 630 OFFCURVE",
"396 581 OFFCURVE",
"396 516 CURVE SMOOTH",
"396 451 OFFCURVE",
"356 396 OFFCURVE",
"268 396 CURVE SMOOTH",
"235 396 LINE",
"235 314 LINE",
"296 314 LINE SMOOTH",
"390 314 OFFCURVE",
"460 273 OFFCURVE",
"460 186 CURVE SMOOTH",
"460 118 OFFCURVE",
"422 72 OFFCURVE",
"362 72 CURVE SMOOTH",
"315 72 OFFCURVE",
"283 102 OFFCURVE",
"268 126 CURVE",
"201 68 LINE",
"239 21 OFFCURVE",
"294 -14 OFFCURVE",
"364 -14 CURVE SMOOTH",
"477 -14 OFFCURVE",
"554 67 OFFCURVE",
"554 177 CURVE SMOOTH",
"554 275 OFFCURVE",
"489 346 OFFCURVE",
"392 362 CURVE",
"392 372 LINE",
"435 396 OFFCURVE",
"488 444 OFFCURVE",
"488 531 CURVE SMOOTH",
"488 631 OFFCURVE",
"409 714 OFFCURVE",
"288 714 CURVE SMOOTH",
"168 714 OFFCURVE",
"70 636 OFFCURVE",
"70 505 CURVE SMOOTH"
);
}
);
width = 582;
},
{
layerId = "A285862E-BE3D-4D67-A40D-0E28E121AD88";
paths = (
{
closed = 1;
nodes = (
"82 -200 LINE",
"132 -200 LINE",
"132 506 LINE SMOOTH",
"132 610 OFFCURVE",
"190 670 OFFCURVE",
"284 670 CURVE SMOOTH",
"364 670 OFFCURVE",
"429 619 OFFCURVE",
"429 530 CURVE SMOOTH",
"429 442 OFFCURVE",
"369 379 OFFCURVE",
"279 379 CURVE SMOOTH",
"221 379 LINE",
"221 335 LINE",
"303 335 LINE SMOOTH",
"400 335 OFFCURVE",
"484 283 OFFCURVE",
"484 181 CURVE SMOOTH",
"484 89 OFFCURVE",
"432 30 OFFCURVE",
"347 30 CURVE SMOOTH",
"281 30 OFFCURVE",
"239 62 OFFCURVE",
"213 98 CURVE",
"176 66 LINE",
"210 27 OFFCURVE",
"263 -14 OFFCURVE",
"346 -14 CURVE SMOOTH",
"465 -14 OFFCURVE",
"534 72 OFFCURVE",
"534 180 CURVE SMOOTH",
"534 290 OFFCURVE",
"455 350 OFFCURVE",
"372 360 CURVE",
"372 370 LINE",
"425 391 OFFCURVE",
"477 437 OFFCURVE",
"477 532 CURVE SMOOTH",
"477 639 OFFCURVE",
"398 714 OFFCURVE",
"286 714 CURVE SMOOTH",
"172 714 OFFCURVE",
"82 641 OFFCURVE",
"82 508 CURVE SMOOTH"
);
}
);
width = 568;
},
{
layerId = "5117E3E8-E17C-4812-BAF5-9E7064564A59";
paths = (
{
closed = 1;
nodes = (
"60 -200 LINE",
"186 -200 LINE",
"186 482 LINE SMOOTH",
"186 559 OFFCURVE",
"225 600 OFFCURVE",
"287 600 CURVE SMOOTH",
"346 600 OFFCURVE",
"380 559 OFFCURVE",
"380 509 CURVE SMOOTH",
"380 455 OFFCURVE",
"349 403 OFFCURVE",
"260 403 CURVE SMOOTH",
"240 403 LINE",
"240 293 LINE",
"326 293 LINE SMOOTH",
"410 293 OFFCURVE",
"462 254 OFFCURVE",
"462 189 CURVE SMOOTH",
"462 135 OFFCURVE",
"428 100 OFFCURVE",
"377 100 CURVE SMOOTH",
"339 100 OFFCURVE",
"309 122 OFFCURVE",
"292 143 CURVE",
"216 59 LINE",
"251 23 OFFCURVE",
"314 -14 OFFCURVE",
"386 -14 CURVE SMOOTH",
"507 -14 OFFCURVE",
"586 70 OFFCURVE",
"586 178 CURVE SMOOTH",
"586 286 OFFCURVE",
"510 358 OFFCURVE",
"407 366 CURVE",
"407 376 LINE",
"460 401 OFFCURVE",
"502 448 OFFCURVE",
"502 529 CURVE SMOOTH",
"502 636 OFFCURVE",
"417 714 OFFCURVE",
"290 714 CURVE SMOOTH",
"169 714 OFFCURVE",
"60 637 OFFCURVE",
"60 492 CURVE SMOOTH"
);
}
);
width = 604;
}
);
leftMetricsKey = l;
note = germandbls;
unicode = 00DF;
},
{
glyphname = t;
lastChange = "2018-01-05 16:00:05 +0000";
layers = (
{
anchors = (
{
name = bottom;
position = "{381, 0}";
},
{
name = caron;
position = "{302, 760}";
}
);
associatedMasterId = "CCC6267B-7D5D-4B2E-A229-3A2D752D6A18";
layerId = "B1491EB2-3EAA-47B2-84B3-8143020A1349";
name = original;
paths = (
{
closed = 1;
nodes = (
"68 424 LINE",
"224 424 LINE",
"224 78 LINE SMOOTH",
"224 33 OFFCURVE",
"256 0 OFFCURVE",
"301 0 CURVE SMOOTH",
"470 0 LINE",
"470 72 LINE",
"329 72 LINE SMOOTH",
"311 72 OFFCURVE",
"302 82 OFFCURVE",
"302 102 CURVE SMOOTH",
"302 424 LINE",
"494 424 LINE",
"494 496 LINE",
"302 496 LINE",
"302 700 LINE",
"224 700 LINE",
"224 496 LINE",
"68 496 LINE"
);
}
);
width = 608;
},
{
anchors = (
{
name = bottom;
position = "{381, 0}";
},
{
name = caron;
position = "{335, 745}";
}
);
associatedMasterId = "CCC6267B-7D5D-4B2E-A229-3A2D752D6A18";
layerId = "9AA09805-E2B9-4555-A652-3018FA6BDD40";
name = original;
paths = (
{
closed = 1;
nodes = (
"62 376 LINE",
"209 376 LINE",
"209 78 LINE SMOOTH",
"209 33 OFFCURVE",
"241 0 OFFCURVE",
"286 0 CURVE SMOOTH",
"496 0 LINE",
"496 120 LINE",
"362 120 LINE SMOOTH",
"344 120 OFFCURVE",
"335 130 OFFCURVE",
"335 150 CURVE SMOOTH",
"335 376 LINE",
"514 376 LINE",
"514 496 LINE",
"335 496 LINE",
"335 700 LINE",
"209 700 LINE",
"209 496 LINE",
"62 496 LINE"
);
}
);
width = 608;
},
{
anchors = (
{
name = bottom;
position = "{234, 0}";
},
{
name = caron;
position = "{244, 755}";
}
);
layerId = "CCC6267B-7D5D-4B2E-A229-3A2D752D6A18";
paths = (
{
closed = 1;
nodes = (
"14 414 LINE",
"150 414 LINE",
"150 84 LINE SMOOTH",
"150 34 OFFCURVE",
"184 0 OFFCURVE",
"232 0 CURVE SMOOTH",
"360 0 LINE",
"360 82 LINE",
"270 82 LINE SMOOTH",
"252 82 OFFCURVE",
"244 90 OFFCURVE",
"244 110 CURVE SMOOTH",
"244 414 LINE",
"388 414 LINE",
"388 496 LINE",
"244 496 LINE",
"244 660 LINE",
"150 660 LINE",
"150 496 LINE",
"14 496 LINE"
);
}
);
width = 416;
},
{
anchors = (
{
name = bottom;
position = "{253, 0}";
},
{
name = caron;
position = "{250, 759}";
}
);
layerId = "A285862E-BE3D-4D67-A40D-0E28E121AD88";
paths = (
{
closed = 1;
nodes = (
"14 452 LINE",
"180 452 LINE",
"180 66 LINE SMOOTH",
"180 24 OFFCURVE",
"204 0 OFFCURVE",
"244 0 CURVE SMOOTH",
"376 0 LINE",
"376 44 LINE",
"258 44 LINE SMOOTH",
"240 44 OFFCURVE",
"230 54 OFFCURVE",
"230 74 CURVE SMOOTH",
"230 452 LINE",
"404 452 LINE",
"404 496 LINE",
"230 496 LINE",
"230 670 LINE",
"180 670 LINE",
"180 496 LINE",
"14 496 LINE"
);
}
);
width = 444;
},
{
anchors = (
{
name = bottom;
position = "{218, 0}";
},
{
name = caron;
position = "{272, 745}";
}
);
layerId = "5117E3E8-E17C-4812-BAF5-9E7064564A59";
paths = (
{
closed = 1;
nodes = (
"10 386 LINE",
"136 386 LINE",
"136 96 LINE SMOOTH",
"136 40 OFFCURVE",
"178 0 OFFCURVE",
"234 0 CURVE SMOOTH",
"370 0 LINE",
"370 110 LINE",
"290 110 LINE SMOOTH",
"272 110 OFFCURVE",
"262 120 OFFCURVE",
"262 140 CURVE SMOOTH",
"262 386 LINE",
"398 386 LINE",
"398 496 LINE",
"262 496 LINE",
"262 650 LINE",
"136 650 LINE",
"136 496 LINE",
"10 496 LINE"
);
}
);
width = 432;
}
);
leftKerningGroup = t;
note = t;
rightKerningGroup = t;
unicode = 0074;
},
{
glyphname = tbar;
lastChange = "2017-12-13 15:43:59 +0000";
layers = (
{
layerId = "CCC6267B-7D5D-4B2E-A229-3A2D752D6A18";
paths = (
{
closed = 1;
nodes = (
"14 304 LINE",
"14 222 LINE",
"388 222 LINE",
"388 304 LINE"
);
},
{
closed = 1;
nodes = (
"14 414 LINE",
"150 414 LINE",
"150 84 LINE SMOOTH",
"150 34 OFFCURVE",
"184 0 OFFCURVE",
"232 0 CURVE SMOOTH",
"360 0 LINE",
"360 82 LINE",
"270 82 LINE SMOOTH",
"252 82 OFFCURVE",
"244 90 OFFCURVE",
"244 110 CURVE SMOOTH",
"244 414 LINE",
"388 414 LINE",
"388 496 LINE",
"244 496 LINE",
"244 700 LINE",
"150 700 LINE",
"150 496 LINE",
"14 496 LINE"
);
}
);
width = 416;
},
{
layerId = "A285862E-BE3D-4D67-A40D-0E28E121AD88";
paths = (
{
closed = 1;
nodes = (
"14 292 LINE",
"14 248 LINE",
"404 248 LINE",
"404 292 LINE"
);
},
{
closed = 1;
nodes = (
"14 452 LINE",
"180 452 LINE",
"180 66 LINE SMOOTH",
"180 24 OFFCURVE",
"204 0 OFFCURVE",
"244 0 CURVE SMOOTH",
"376 0 LINE",
"376 44 LINE",
"258 44 LINE SMOOTH",
"240 44 OFFCURVE",
"230 54 OFFCURVE",
"230 74 CURVE SMOOTH",
"230 452 LINE",
"404 452 LINE",
"404 496 LINE",
"230 496 LINE",
"230 700 LINE",
"180 700 LINE",
"180 496 LINE",
"14 496 LINE"
);
}
);
width = 444;
},
{
layerId = "5117E3E8-E17C-4812-BAF5-9E7064564A59";
paths = (
{
closed = 1;
nodes = (
"10 306 LINE",
"10 196 LINE",
"398 196 LINE",
"398 306 LINE"
);
},
{
closed = 1;
nodes = (
"10 386 LINE",
"136 386 LINE",
"136 96 LINE SMOOTH",
"136 40 OFFCURVE",
"178 0 OFFCURVE",
"234 0 CURVE SMOOTH",
"370 0 LINE",
"370 110 LINE",
"290 110 LINE SMOOTH",
"272 110 OFFCURVE",
"262 120 OFFCURVE",
"262 140 CURVE SMOOTH",
"262 386 LINE",
"398 386 LINE",
"398 496 LINE",
"262 496 LINE",
"262 700 LINE",
"136 700 LINE",
"136 496 LINE",
"10 496 LINE"
);
}
);
width = 432;
}
);
leftKerningGroup = t;
leftMetricsKey = t;
note = tbar;
rightKerningGroup = t;
rightMetricsKey = t;
unicode = 0167;
},
{
glyphname = u;
lastChange = "2017-12-13 12:54:21 +0000";
layers = (
{
anchors = (
{
name = bottom;
position = "{480, 0}";
},
{
name = top;
position = "{295, 496}";
}
);
layerId = "CCC6267B-7D5D-4B2E-A229-3A2D752D6A18";
paths = (
{
closed = 1;
nodes = (
"526 496 LINE",
"432 496 LINE",
"432 234 LINE SMOOTH",
"432 132 OFFCURVE",
"375 74 OFFCURVE",
"284 74 CURVE SMOOTH",
"204 74 OFFCURVE",
"158 118 OFFCURVE",
"158 203 CURVE SMOOTH",
"158 496 LINE",
"64 496 LINE",
"64 195 LINE SMOOTH",
"64 60 OFFCURVE",
"152 -8 OFFCURVE",
"255 -8 CURVE SMOOTH",
"352 -8 OFFCURVE",
"397 37 OFFCURVE",
"420 83 CURVE",
"434 83 LINE",
"434 0 LINE",
"526 0 LINE"
);
}
);
width = 596;
},
{
anchors = (
{
name = bottom;
position = "{488, 0}";
},
{
name = top;
position = "{296, 496}";
}
);
layerId = "A285862E-BE3D-4D67-A40D-0E28E121AD88";
paths = (
{
closed = 1;
nodes = (
"512 496 LINE",
"462 496 LINE",
"462 242 LINE SMOOTH",
"462 104 OFFCURVE",
"383 36 OFFCURVE",
"280 36 CURVE SMOOTH",
"187 36 OFFCURVE",
"126 82 OFFCURVE",
"126 192 CURVE SMOOTH",
"126 496 LINE",
"76 496 LINE",
"76 188 LINE SMOOTH",
"76 53 OFFCURVE",
"168 -10 OFFCURVE",
"270 -10 CURVE SMOOTH",
"372 -10 OFFCURVE",
"423 41 OFFCURVE",
"450 92 CURVE",
"464 92 LINE",
"464 0 LINE",
"512 0 LINE"
);
}
);
width = 594;
},
{
anchors = (
{
name = bottom;
position = "{480, 0}";
},
{
name = top;
position = "{299, 496}";
}
);
layerId = "5117E3E8-E17C-4812-BAF5-9E7064564A59";
paths = (
{
closed = 1;
nodes = (
"542 496 LINE",
"416 496 LINE",
"416 240 LINE SMOOTH",
"416 152 OFFCURVE",
"373 102 OFFCURVE",
"292 102 CURVE SMOOTH",
"220 102 OFFCURVE",
"180 143 OFFCURVE",
"180 212 CURVE SMOOTH",
"180 496 LINE",
"54 496 LINE",
"54 200 LINE SMOOTH",
"54 71 OFFCURVE",
"137 -8 OFFCURVE",
"247 -8 CURVE SMOOTH",
"338 -8 OFFCURVE",
"384 34 OFFCURVE",
"404 80 CURVE",
"418 80 LINE",
"418 0 LINE",
"542 0 LINE"
);
}
);
width = 602;
}
);
leftKerningGroup = u;
note = u;
rightKerningGroup = u;
rightMetricsKey = idotless;
unicode = 0075;
},
{
glyphname = v;
lastChange = "2018-01-05 18:45:33 +0000";
layers = (
{
associatedMasterId = "CCC6267B-7D5D-4B2E-A229-3A2D752D6A18";
layerId = "BB3E720D-8EC8-4D69-B10B-1C4F35EB9B8A";
name = MG;
paths = (
{
closed = 1;
nodes = (
"170 0 LINE",
"410 0 LINE",
"552 496 LINE",
"414 496 LINE",
"299 60 LINE",
"281 60 LINE",
"166 496 LINE",
"28 496 LINE"
);
}
);
width = 580;
},
{
associatedMasterId = "CCC6267B-7D5D-4B2E-A229-3A2D752D6A18";
layerId = "C1822E9D-62F9-4D0D-961A-255AE559887E";
name = MG;
paths = (
{
closed = 1;
nodes = (
"213 0 LINE",
"367 0 LINE",
"540 496 LINE",
"448 496 LINE",
"296 36 LINE",
"284 36 LINE",
"132 496 LINE",
"40 496 LINE"
);
}
);
width = 580;
},
{
layerId = "CCC6267B-7D5D-4B2E-A229-3A2D752D6A18";
paths = (
{
closed = 1;
nodes = (
"203 0 LINE",
"337 0 LINE",
"520 496 LINE",
"418 496 LINE",
"276 90 LINE",
"264 90 LINE",
"122 496 LINE",
"20 496 LINE"
);
}
);
width = 540;
},
{
layerId = "A285862E-BE3D-4D67-A40D-0E28E121AD88";
paths = (
{
closed = 1;
nodes = (
"228 0 LINE",
"296 0 LINE",
"492 496 LINE",
"438 496 LINE",
"268 52 LINE",
"256 52 LINE",
"86 496 LINE",
"32 496 LINE"
);
}
);
width = 524;
},
{
layerId = "5117E3E8-E17C-4812-BAF5-9E7064564A59";
paths = (
{
closed = 1;
nodes = (
"175 0 LINE",
"361 0 LINE",
"532 496 LINE",
"396 496 LINE",
"274 110 LINE",
"262 110 LINE",
"140 496 LINE",
"4 496 LINE"
);
}
);
width = 536;
}
);
leftKerningGroup = v;
note = v;
rightKerningGroup = v;
unicode = 0076;
},
{
glyphname = w;
lastChange = "2018-01-05 16:00:30 +0000";
layers = (
{
anchors = (
{
name = top;
position = "{304, 496}";
}
);
associatedMasterId = "CCC6267B-7D5D-4B2E-A229-3A2D752D6A18";
layerId = "C59A5975-C1D4-4FCB-9C19-8D11D9F77F9E";
name = original;
paths = (
{
closed = 1;
nodes = (
"46 0 LINE",
"264 0 LINE",
"292 376 LINE",
"292 436 LINE",
"316 436 LINE",
"316 376 LINE",
"344 0 LINE",
"562 0 LINE",
"595 496 LINE",
"479 496 LINE",
"457 120 LINE",
"457 60 LINE",
"433 60 LINE",
"433 120 LINE",
"408 496 LINE",
"200 496 LINE",
"175 120 LINE",
"175 60 LINE",
"151 60 LINE",
"151 120 LINE",
"129 496 LINE",
"13 496 LINE"
);
}
);
width = 608;
},
{
anchors = (
{
name = top;
position = "{304, 496}";
}
);
associatedMasterId = "CCC6267B-7D5D-4B2E-A229-3A2D752D6A18";
layerId = "8ABFC20F-6800-406A-9000-230D5E1B9145";
name = original;
paths = (
{
closed = 1;
nodes = (
"94 0 LINE",
"238 0 LINE",
"298 460 LINE",
"298 460 LINE",
"310 460 LINE",
"310 460 LINE",
"370 0 LINE",
"514 0 LINE",
"592 496 LINE",
"512 496 LINE",
"446 36 LINE",
"446 36 LINE",
"434 36 LINE",
"434 36 LINE",
"376 496 LINE",
"232 496 LINE",
"174 36 LINE",
"174 36 LINE",
"162 36 LINE",
"162 36 LINE",
"96 496 LINE",
"16 496 LINE"
);
}
);
width = 608;
},
{
anchors = (
{
name = top;
position = "{380, 496}";
}
);
associatedMasterId = "CCC6267B-7D5D-4B2E-A229-3A2D752D6A18";
layerId = "224467CD-8219-4548-A3E4-73F2D5CD77E4";
name = MG;
paths = (
{
closed = 1;
nodes = (
"148 0 LINE",
"292 0 LINE",
"384 460 LINE",
"384 460 LINE",
"396 460 LINE",
"396 460 LINE",
"488 0 LINE",
"632 0 LINE",
"734 496 LINE",
"652 496 LINE",
"564 36 LINE",
"564 36 LINE",
"552 36 LINE",
"552 36 LINE",
"462 496 LINE",
"318 496 LINE",
"228 36 LINE",
"228 36 LINE",
"216 36 LINE",
"216 36 LINE",
"128 496 LINE",
"46 496 LINE"
);
}
);
width = 780;
},
{
anchors = (
{
name = top;
position = "{377, 496}";
}
);
layerId = "CCC6267B-7D5D-4B2E-A229-3A2D752D6A18";
paths = (
{
closed = 1;
nodes = (
"139 0 LINE",
"279 0 LINE",
"370 398 LINE",
"384 398 LINE",
"473 0 LINE",
"615 0 LINE",
"724 496 LINE",
"626 496 LINE",
"549 98 LINE",
"535 98 LINE",
"446 496 LINE",
"308 496 LINE",
"219 98 LINE",
"205 98 LINE",
"128 496 LINE",
"30 496 LINE"
);
}
);
width = 754;
},
{
anchors = (
{
name = top;
position = "{398, 496}";
}
);
layerId = "A285862E-BE3D-4D67-A40D-0E28E121AD88";
paths = (
{
closed = 1;
nodes = (
"179 0 LINE",
"257 0 LINE",
"392 440 LINE",
"404 440 LINE",
"539 0 LINE",
"617 0 LINE",
"744 496 LINE",
"692 496 LINE",
"582 56 LINE",
"570 56 LINE",
"435 496 LINE",
"361 496 LINE",
"226 56 LINE",
"214 56 LINE",
"104 496 LINE",
"52 496 LINE"
);
}
);
width = 796;
},
{
anchors = (
{
name = top;
position = "{376, 496}";
}
);
layerId = "5117E3E8-E17C-4812-BAF5-9E7064564A59";
paths = (
{
closed = 1;
nodes = (
"112 0 LINE",
"292 0 LINE",
"370 388 LINE",
"382 388 LINE",
"460 0 LINE",
"640 0 LINE",
"738 496 LINE",
"612 496 LINE",
"553 108 LINE",
"541 108 LINE",
"463 496 LINE",
"289 496 LINE",
"211 108 LINE",
"199 108 LINE",
"140 496 LINE",
"14 496 LINE"
);
}
);
width = 752;
}
);
leftKerningGroup = w;
note = w;
rightKerningGroup = w;
unicode = 0077;
},
{
glyphname = x;
lastChange = "2018-01-05 18:45:39 +0000";
layers = (
{
layerId = "CCC6267B-7D5D-4B2E-A229-3A2D752D6A18";
paths = (
{
closed = 1;
nodes = (
"218 255 LINE",
"26 0 LINE",
"139 0 LINE",
"278 195 LINE",
"290 195 LINE",
"429 0 LINE",
"542 0 LINE",
"350 255 LINE",
"534 496 LINE",
"422 496 LINE",
"290 313 LINE",
"278 313 LINE",
"146 496 LINE",
"34 496 LINE"
);
}
);
width = 568;
},
{
layerId = "A285862E-BE3D-4D67-A40D-0E28E121AD88";
paths = (
{
closed = 1;
nodes = (
"249 254 LINE",
"48 0 LINE",
"114 0 LINE",
"285 218 LINE",
"297 218 LINE",
"468 0 LINE",
"534 0 LINE",
"333 254 LINE",
"526 496 LINE",
"461 496 LINE",
"297 288 LINE",
"285 288 LINE",
"121 496 LINE",
"56 496 LINE"
);
}
);
width = 582;
},
{
layerId = "5117E3E8-E17C-4812-BAF5-9E7064564A59";
paths = (
{
closed = 1;
nodes = (
"194 250 LINE",
"18 0 LINE",
"167 0 LINE",
"282 172 LINE",
"294 172 LINE",
"409 0 LINE",
"558 0 LINE",
"382 250 LINE",
"556 496 LINE",
"410 496 LINE",
"294 326 LINE",
"282 326 LINE",
"166 496 LINE",
"20 496 LINE"
);
}
);
width = 576;
}
);
leftKerningGroup = x;
note = x;
rightKerningGroup = x;
unicode = 0078;
},
{
glyphname = y;
lastChange = "2017-12-13 13:14:23 +0000";
layers = (
{
anchors = (
{
name = top;
position = "{278, 496}";
}
);
layerId = "CCC6267B-7D5D-4B2E-A229-3A2D752D6A18";
paths = (
{
closed = 1;
nodes = (
"151 -200 LINE",
"253 -200 LINE",
"534 496 LINE",
"432 496 LINE",
"281 108 LINE"
);
},
{
closed = 1;
nodes = (
"258 -103 LINE",
"253 -200 LINE",
"534 496 LINE",
"432 496 LINE",
"281 108 LINE",
"269 108 LINE",
"118 496 LINE",
"16 496 LINE"
);
}
);
width = 550;
},
{
anchors = (
{
name = top;
position = "{309, 496}";
}
);
associatedMasterId = "CCC6267B-7D5D-4B2E-A229-3A2D752D6A18";
layerId = "EE5E4D95-AD60-4ECD-9EC6-7D6FF6395D28";
name = display;
paths = (
{
closed = 1;
nodes = (
"446 -86 LINE",
"446 -106 OFFCURVE",
"437 -116 OFFCURVE",
"419 -116 CURVE SMOOTH",
"120 -116 LINE",
"120 -200 LINE",
"463 -200 LINE SMOOTH",
"508 -200 OFFCURVE",
"540 -167 OFFCURVE",
"540 -122 CURVE SMOOTH",
"540 0 LINE",
"446 0 LINE"
);
},
{
closed = 1;
nodes = (
"540 496 LINE",
"446 496 LINE",
"446 230 LINE SMOOTH",
"446 128 OFFCURVE",
"389 70 OFFCURVE",
"298 70 CURVE SMOOTH",
"218 70 OFFCURVE",
"172 114 OFFCURVE",
"172 199 CURVE SMOOTH",
"172 496 LINE",
"78 496 LINE",
"78 190 LINE SMOOTH",
"78 55 OFFCURVE",
"164 -14 OFFCURVE",
"267 -14 CURVE SMOOTH",
"364 -14 OFFCURVE",
"410 31 OFFCURVE",
"432 73 CURVE",
"446 73 LINE",
"446 0 LINE",
"540 0 LINE"
);
}
);
width = 620;
},
{
associatedMasterId = "CCC6267B-7D5D-4B2E-A229-3A2D752D6A18";
layerId = "7A507040-C041-4CC9-B34A-4C35E40EA22C";
name = favorit;
paths = (
{
closed = 1;
nodes = (
"245 -10 LINE",
"339 -10 LINE",
"552 496 LINE",
"447 496 LINE",
"299 130 LINE",
"285 130 LINE",
"137 496 LINE",
"32 496 LINE"
);
},
{
closed = 1;
nodes = (
"245 -10 LINE",
"245 -85 LINE SMOOTH",
"245 -106 OFFCURVE",
"235 -116 OFFCURVE",
"217 -116 CURVE SMOOTH",
"69 -116 LINE",
"69 -200 LINE",
"254 -200 LINE SMOOTH",
"304 -200 OFFCURVE",
"339 -167 OFFCURVE",
"339 -114 CURVE SMOOTH",
"339 -10 LINE"
);
}
);
width = 584;
},
{
anchors = (
{
name = top;
position = "{285, 496}";
}
);
associatedMasterId = "CCC6267B-7D5D-4B2E-A229-3A2D752D6A18";
layerId = "231C6C84-B154-4B39-8FA3-05F1E3003102";
name = fkgrotesk;
paths = (
{
closed = 1;
nodes = (
"245 -10 LINE",
"219 -89 LINE SMOOTH",
"212 -109 OFFCURVE",
"202 -116 OFFCURVE",
"180 -116 CURVE SMOOTH",
"63 -116 LINE",
"63 -200 LINE",
"208 -200 LINE SMOOTH",
"258 -200 OFFCURVE",
"296 -163 OFFCURVE",
"313 -114 CURVE SMOOTH",
"528 496 LINE"
);
},
{
closed = 1;
nodes = (
"263 -132 LINE",
"333 0 LINE",
"528 496 LINE",
"425 496 LINE",
"292 89 LINE",
"278 89 LINE",
"145 496 LINE",
"42 496 LINE"
);
}
);
width = 584;
},
{
anchors = (
{
name = top;
position = "{272, 496}";
}
);
layerId = "A285862E-BE3D-4D67-A40D-0E28E121AD88";
paths = (
{
closed = 1;
nodes = (
"174 -200 LINE",
"228 -200 LINE",
"514 496 LINE",
"460 496 LINE",
"277 44 LINE"
);
},
{
closed = 1;
nodes = (
"255 -52 LINE",
"228 -200 LINE",
"514 496 LINE",
"460 496 LINE",
"277 44 LINE",
"267 44 LINE",
"84 496 LINE",
"30 496 LINE"
);
}
);
width = 544;
},
{
anchors = (
{
name = top;
position = "{277, 496}";
}
);
layerId = "5117E3E8-E17C-4812-BAF5-9E7064564A59";
paths = (
{
closed = 1;
nodes = (
"148 -200 LINE",
"284 -200 LINE",
"549 496 LINE",
"413 496 LINE",
"283 120 LINE"
);
},
{
closed = 1;
nodes = (
"234 -106 LINE",
"284 -200 LINE",
"549 496 LINE",
"413 496 LINE",
"283 120 LINE",
"271 120 LINE",
"141 496 LINE",
"5 496 LINE"
);
}
);
width = 554;
}
);
leftKerningGroup = v;
note = y;
rightKerningGroup = v;
unicode = 0079;
},
{
glyphname = z;
lastChange = "2018-01-06 12:42:21 +0000";
layers = (
{
anchors = (
{
name = top;
position = "{263, 496}";
}
);
layerId = "CCC6267B-7D5D-4B2E-A229-3A2D752D6A18";
paths = (
{
closed = 1;
nodes = (
"58 416 LINE",
"345 416 LINE",
"48 74 LINE",
"48 0 LINE",
"474 0 LINE",
"474 80 LINE",
"169 80 LINE",
"466 422 LINE",
"466 496 LINE",
"58 496 LINE"
);
}
);
width = 516;
},
{
anchors = (
{
name = top;
position = "{260, 496}";
}
);
layerId = "A285862E-BE3D-4D67-A40D-0E28E121AD88";
paths = (
{
closed = 1;
nodes = (
"63 452 LINE",
"412 452 LINE",
"54 40 LINE",
"54 0 LINE",
"486 0 LINE",
"486 44 LINE",
"120 44 LINE",
"478 456 LINE",
"478 496 LINE",
"63 496 LINE"
);
}
);
width = 530;
},
{
anchors = (
{
name = top;
position = "{271, 496}";
}
);
layerId = "5117E3E8-E17C-4812-BAF5-9E7064564A59";
paths = (
{
closed = 1;
nodes = (
"58 386 LINE",
"322 386 LINE",
"48 102 LINE",
"48 0 LINE",
"498 0 LINE",
"498 110 LINE",
"216 110 LINE",
"490 394 LINE",
"490 496 LINE",
"58 496 LINE"
);
}
);
width = 540;
}
);
leftKerningGroup = z;
note = z;
rightKerningGroup = z;
unicode = 007A;
},
{
glyphname = germandbls.case;
lastChange = "2017-12-29 15:25:20 +0000";
layers = (
{
layerId = "CCC6267B-7D5D-4B2E-A229-3A2D752D6A18";
paths = (
{
closed = 1;
nodes = (
"70 0 LINE",
"170 0 LINE",
"170 494 LINE SMOOTH",
"170 573 OFFCURVE",
"216 608 OFFCURVE",
"284 608 CURVE SMOOTH",
"426 608 LINE",
"270 402 LINE",
"270 320 LINE",
"369 320 LINE SMOOTH",
"441 320 OFFCURVE",
"486 283 OFFCURVE",
"486 210 CURVE SMOOTH",
"486 138 OFFCURVE",
"428 92 OFFCURVE",
"352 92 CURVE SMOOTH",
"270 92 LINE",
"270 0 LINE",
"353 0 LINE SMOOTH",
"481 0 OFFCURVE",
"584 83 OFFCURVE",
"584 211 CURVE SMOOTH",
"584 327 OFFCURVE",
"507 404 OFFCURVE",
"384 408 CURVE",
"540 614 LINE",
"540 700 LINE",
"278 700 LINE SMOOTH",
"153 700 OFFCURVE",
"70 625 OFFCURVE",
"70 496 CURVE SMOOTH"
);
}
);
width = 608;
},
{
layerId = "A285862E-BE3D-4D67-A40D-0E28E121AD88";
paths = (
{
closed = 1;
nodes = (
"78 0 LINE",
"132 0 LINE",
"132 500 LINE SMOOTH",
"132 600 OFFCURVE",
"187 652 OFFCURVE",
"284 652 CURVE SMOOTH",
"455 652 LINE",
"261 426 LINE",
"261 382 LINE",
"335 382 LINE SMOOTH",
"448 382 OFFCURVE",
"506 318 OFFCURVE",
"506 221 CURVE SMOOTH",
"506 106 OFFCURVE",
"426 48 OFFCURVE",
"301 48 CURVE SMOOTH",
"261 48 LINE",
"261 0 LINE",
"308 0 LINE SMOOTH",
"462 0 OFFCURVE",
"562 87 OFFCURVE",
"562 222 CURVE SMOOTH",
"562 351 OFFCURVE",
"486 430 OFFCURVE",
"328 430 CURVE",
"522 656 LINE",
"522 700 LINE",
"284 700 LINE SMOOTH",
"158 700 OFFCURVE",
"78 633 OFFCURVE",
"78 496 CURVE SMOOTH"
);
}
);
width = 594;
},
{
layerId = "5117E3E8-E17C-4812-BAF5-9E7064564A59";
paths = (
{
closed = 1;
nodes = (
"58 0 LINE",
"190 0 LINE",
"190 492 LINE SMOOTH",
"190 556 OFFCURVE",
"228 578 OFFCURVE",
"284 578 CURVE SMOOTH",
"397 578 LINE",
"278 408 LINE",
"278 290 LINE",
"362 290 LINE SMOOTH",
"421 290 OFFCURVE",
"452 256 OFFCURVE",
"452 207 CURVE SMOOTH",
"452 158 OFFCURVE",
"421 124 OFFCURVE",
"362 124 CURVE SMOOTH",
"278 124 LINE",
"278 0 LINE",
"367 0 LINE SMOOTH",
"495 0 OFFCURVE",
"584 81 OFFCURVE",
"584 207 CURVE SMOOTH",
"584 332 OFFCURVE",
"494 384 OFFCURVE",
"410 392 CURVE",
"540 584 LINE",
"540 700 LINE",
"278 700 LINE SMOOTH",
"150 700 OFFCURVE",
"58 624 OFFCURVE",
"58 496 CURVE SMOOTH"
);
}
);
width = 604;
}
);
note = uni1E9E;
unicode = 1E9E;
},
{
glyphname = a.ss01;
lastChange = "2017-12-13 13:15:18 +0000";
layers = (
{
anchors = (
{
name = bottom;
position = "{497, 0}";
},
{
name = top;
position = "{308, 496}";
}
);
layerId = "CCC6267B-7D5D-4B2E-A229-3A2D752D6A18";
paths = (
{
closed = 1;
nodes = (
"542 496 LINE",
"450 496 LINE",
"450 418 LINE",
"436 418 LINE",
"409 463 OFFCURVE",
"364 510 OFFCURVE",
"268 510 CURVE SMOOTH",
"139 510 OFFCURVE",
"38 402 OFFCURVE",
"38 248 CURVE SMOOTH",
"38 94 OFFCURVE",
"139 -14 OFFCURVE",
"268 -14 CURVE SMOOTH",
"364 -14 OFFCURVE",
"409 33 OFFCURVE",
"436 78 CURVE",
"450 78 LINE",
"450 0 LINE",
"542 0 LINE"
);
},
{
closed = 1;
nodes = (
"198 70 OFFCURVE",
"132 134 OFFCURVE",
"132 248 CURVE SMOOTH",
"132 362 OFFCURVE",
"198 426 OFFCURVE",
"292 426 CURVE SMOOTH",
"388 426 OFFCURVE",
"448 358 OFFCURVE",
"448 248 CURVE SMOOTH",
"448 138 OFFCURVE",
"388 70 OFFCURVE",
"292 70 CURVE SMOOTH"
);
}
);
width = 612;
},
{
anchors = (
{
name = bottom;
position = "{514, 0}";
},
{
name = top;
position = "{320, 496}";
}
);
layerId = "A285862E-BE3D-4D67-A40D-0E28E121AD88";
paths = (
{
closed = 1;
nodes = (
"538 496 LINE",
"490 496 LINE",
"490 400 LINE",
"476 400 LINE",
"448 454 OFFCURVE",
"393 510 OFFCURVE",
"284 510 CURVE SMOOTH",
"151 510 OFFCURVE",
"50 406 OFFCURVE",
"50 248 CURVE SMOOTH",
"50 90 OFFCURVE",
"151 -14 OFFCURVE",
"284 -14 CURVE SMOOTH",
"393 -14 OFFCURVE",
"448 42 OFFCURVE",
"476 96 CURVE",
"490 96 LINE",
"490 0 LINE",
"538 0 LINE"
);
},
{
closed = 1;
nodes = (
"179 32 OFFCURVE",
"102 116 OFFCURVE",
"102 248 CURVE SMOOTH",
"102 380 OFFCURVE",
"179 464 OFFCURVE",
"293 464 CURVE SMOOTH",
"407 464 OFFCURVE",
"488 378 OFFCURVE",
"488 248 CURVE SMOOTH",
"488 118 OFFCURVE",
"407 32 OFFCURVE",
"293 32 CURVE SMOOTH"
);
}
);
width = 620;
},
{
anchors = (
{
name = bottom;
position = "{492, 0}";
},
{
name = top;
position = "{306, 496}";
}
);
layerId = "5117E3E8-E17C-4812-BAF5-9E7064564A59";
paths = (
{
closed = 1;
nodes = (
"554 496 LINE",
"430 496 LINE",
"430 426 LINE",
"416 426 LINE",
"390 468 OFFCURVE",
"346 510 OFFCURVE",
"258 510 CURVE SMOOTH",
"134 510 OFFCURVE",
"30 400 OFFCURVE",
"30 248 CURVE SMOOTH",
"30 96 OFFCURVE",
"134 -14 OFFCURVE",
"258 -14 CURVE SMOOTH",
"346 -14 OFFCURVE",
"390 28 OFFCURVE",
"416 70 CURVE",
"430 70 LINE",
"430 0 LINE",
"554 0 LINE"
);
},
{
closed = 1;
nodes = (
"216 98 OFFCURVE",
"156 152 OFFCURVE",
"156 248 CURVE SMOOTH",
"156 344 OFFCURVE",
"216 398 OFFCURVE",
"292 398 CURVE SMOOTH",
"370 398 OFFCURVE",
"428 342 OFFCURVE",
"428 248 CURVE SMOOTH",
"428 154 OFFCURVE",
"370 98 OFFCURVE",
"292 98 CURVE SMOOTH"
);
}
);
width = 614;
}
);
leftKerningGroup = o;
leftMetricsKey = o;
note = a;
rightKerningGroup = u;
rightMetricsKey = u;
},
{
glyphname = f_f.liga;
lastChange = "2017-12-13 13:18:59 +0000";
layers = (
{
layerId = "CCC6267B-7D5D-4B2E-A229-3A2D752D6A18";
paths = (
{
closed = 1;
nodes = (
"14 414 LINE",
"150 414 LINE",
"150 0 LINE",
"244 0 LINE",
"244 414 LINE",
"384 414 LINE",
"384 496 LINE",
"244 496 LINE",
"244 590 LINE SMOOTH",
"244 610 OFFCURVE",
"252 618 OFFCURVE",
"270 618 CURVE SMOOTH",
"358 618 LINE",
"358 700 LINE",
"234 700 LINE SMOOTH",
"184 700 OFFCURVE",
"150 666 OFFCURVE",
"150 614 CURVE SMOOTH",
"150 496 LINE",
"14 496 LINE"
);
},
{
closed = 1;
nodes = (
"308 414 LINE",
"444 414 LINE",
"444 0 LINE",
"538 0 LINE",
"538 414 LINE",
"678 414 LINE",
"678 496 LINE",
"538 496 LINE",
"538 590 LINE SMOOTH",
"538 610 OFFCURVE",
"546 618 OFFCURVE",
"564 618 CURVE SMOOTH",
"652 618 LINE",
"652 700 LINE",
"528 700 LINE SMOOTH",
"478 700 OFFCURVE",
"444 666 OFFCURVE",
"444 614 CURVE SMOOTH",
"444 496 LINE",
"308 496 LINE"
);
}
);
width = 692;
},
{
layerId = "A285862E-BE3D-4D67-A40D-0E28E121AD88";
paths = (
{
closed = 1;
nodes = (
"24 452 LINE",
"190 452 LINE",
"190 0 LINE",
"240 0 LINE",
"240 452 LINE",
"408 452 LINE",
"408 496 LINE",
"240 496 LINE",
"240 626 LINE SMOOTH",
"240 646 OFFCURVE",
"250 656 OFFCURVE",
"268 656 CURVE SMOOTH",
"382 656 LINE",
"382 700 LINE",
"254 700 LINE SMOOTH",
"214 700 OFFCURVE",
"190 676 OFFCURVE",
"190 634 CURVE SMOOTH",
"190 496 LINE",
"24 496 LINE"
);
},
{
closed = 1;
nodes = (
"314 452 LINE",
"480 452 LINE",
"480 0 LINE",
"530 0 LINE",
"530 452 LINE",
"698 452 LINE",
"698 496 LINE",
"530 496 LINE",
"530 626 LINE SMOOTH",
"530 646 OFFCURVE",
"540 656 OFFCURVE",
"558 656 CURVE SMOOTH",
"672 656 LINE",
"672 700 LINE",
"544 700 LINE SMOOTH",
"504 700 OFFCURVE",
"480 676 OFFCURVE",
"480 634 CURVE SMOOTH",
"480 496 LINE",
"314 496 LINE"
);
}
);
width = 730;
},
{
layerId = "5117E3E8-E17C-4812-BAF5-9E7064564A59";
paths = (
{
closed = 1;
nodes = (
"22 386 LINE",
"148 386 LINE",
"148 0 LINE",
"274 0 LINE",
"274 386 LINE",
"404 386 LINE",
"404 496 LINE",
"274 496 LINE",
"274 560 LINE SMOOTH",
"274 580 OFFCURVE",
"284 590 OFFCURVE",
"302 590 CURVE SMOOTH",
"378 590 LINE",
"378 700 LINE",
"248 700 LINE SMOOTH",
"190 700 OFFCURVE",
"148 656 OFFCURVE",
"148 598 CURVE SMOOTH",
"148 496 LINE",
"22 496 LINE"
);
},
{
closed = 1;
nodes = (
"328 386 LINE",
"454 386 LINE",
"454 0 LINE",
"580 0 LINE",
"580 386 LINE",
"710 386 LINE",
"710 496 LINE",
"580 496 LINE",
"580 560 LINE SMOOTH",
"580 580 OFFCURVE",
"590 590 OFFCURVE",
"608 590 CURVE SMOOTH",
"684 590 LINE",
"684 700 LINE",
"554 700 LINE SMOOTH",
"496 700 OFFCURVE",
"454 656 OFFCURVE",
"454 598 CURVE SMOOTH",
"454 496 LINE",
"328 496 LINE"
);
}
);
width = 734;
}
);
leftKerningGroup = t;
leftMetricsKey = f;
note = fi;
rightKerningGroup = f;
rightMetricsKey = f;
},
{
glyphname = f_f_i.liga;
lastChange = "2017-12-13 13:22:04 +0000";
layers = (
{
components = (
{
name = i;
transform = "{1, 0, 0, 1, 668, 0}";
}
);
layerId = "CCC6267B-7D5D-4B2E-A229-3A2D752D6A18";
paths = (
{
closed = 1;
nodes = (
"14 414 LINE",
"150 414 LINE",
"150 0 LINE",
"244 0 LINE",
"244 414 LINE",
"384 414 LINE",
"384 496 LINE",
"244 496 LINE",
"244 590 LINE SMOOTH",
"244 610 OFFCURVE",
"252 618 OFFCURVE",
"270 618 CURVE SMOOTH",
"358 618 LINE",
"358 700 LINE",
"234 700 LINE SMOOTH",
"184 700 OFFCURVE",
"150 666 OFFCURVE",
"150 614 CURVE SMOOTH",
"150 496 LINE",
"14 496 LINE"
);
},
{
closed = 1;
nodes = (
"308 414 LINE",
"444 414 LINE",
"444 0 LINE",
"538 0 LINE",
"538 414 LINE",
"832 414 LINE",
"832 496 LINE",
"538 496 LINE",
"538 590 LINE SMOOTH",
"538 610 OFFCURVE",
"546 618 OFFCURVE",
"564 618 CURVE SMOOTH",
"642 618 LINE",
"642 700 LINE",
"528 700 LINE SMOOTH",
"478 700 OFFCURVE",
"444 666 OFFCURVE",
"444 614 CURVE SMOOTH",
"444 496 LINE",
"308 496 LINE"
);
}
);
width = 902;
},
{
components = (
{
name = i;
transform = "{1, 0, 0, 1, 688, 0}";
}
);
layerId = "A285862E-BE3D-4D67-A40D-0E28E121AD88";
paths = (
{
closed = 1;
nodes = (
"24 452 LINE",
"190 452 LINE",
"190 0 LINE",
"240 0 LINE",
"240 452 LINE",
"408 452 LINE",
"408 496 LINE",
"240 496 LINE",
"240 626 LINE SMOOTH",
"240 646 OFFCURVE",
"250 656 OFFCURVE",
"268 656 CURVE SMOOTH",
"382 656 LINE",
"382 700 LINE",
"254 700 LINE SMOOTH",
"214 700 OFFCURVE",
"190 676 OFFCURVE",
"190 634 CURVE SMOOTH",
"190 496 LINE",
"24 496 LINE"
);
},
{
closed = 1;
nodes = (
"314 452 LINE",
"480 452 LINE",
"480 0 LINE",
"530 0 LINE",
"530 452 LINE",
"820 452 LINE",
"820 496 LINE",
"530 496 LINE",
"530 626 LINE SMOOTH",
"530 646 OFFCURVE",
"540 656 OFFCURVE",
"558 656 CURVE SMOOTH",
"666 656 LINE",
"666 700 LINE",
"544 700 LINE SMOOTH",
"504 700 OFFCURVE",
"480 676 OFFCURVE",
"480 634 CURVE SMOOTH",
"480 496 LINE",
"314 496 LINE"
);
}
);
width = 902;
},
{
components = (
{
name = i;
transform = "{1, 0, 0, 1, 700, 0}";
}
);
layerId = "5117E3E8-E17C-4812-BAF5-9E7064564A59";
paths = (
{
closed = 1;
nodes = (
"22 386 LINE",
"148 386 LINE",
"148 0 LINE",
"274 0 LINE",
"274 386 LINE",
"404 386 LINE",
"404 496 LINE",
"274 496 LINE",
"274 560 LINE SMOOTH",
"274 580 OFFCURVE",
"284 590 OFFCURVE",
"302 590 CURVE SMOOTH",
"378 590 LINE",
"378 700 LINE",
"248 700 LINE SMOOTH",
"190 700 OFFCURVE",
"148 656 OFFCURVE",
"148 598 CURVE SMOOTH",
"148 496 LINE",
"22 496 LINE"
);
},
{
closed = 1;
nodes = (
"328 386 LINE",
"454 386 LINE",
"454 0 LINE",
"580 0 LINE",
"580 386 LINE",
"886 386 LINE",
"886 496 LINE",
"580 496 LINE",
"580 560 LINE SMOOTH",
"580 580 OFFCURVE",
"590 590 OFFCURVE",
"608 590 CURVE SMOOTH",
"670 590 LINE",
"670 700 LINE",
"554 700 LINE SMOOTH",
"496 700 OFFCURVE",
"454 656 OFFCURVE",
"454 598 CURVE SMOOTH",
"454 496 LINE",
"328 496 LINE"
);
}
);
width = 946;
}
);
leftKerningGroup = t;
leftMetricsKey = f;
note = fi;
rightKerningGroup = i;
rightMetricsKey = i;
},
{
glyphname = f_f_j.liga;
lastChange = "2018-01-06 13:25:44 +0000";
layers = (
{
components = (
{
name = j;
transform = "{1, 0, 0, 1, 668, 0}";
}
);
layerId = "CCC6267B-7D5D-4B2E-A229-3A2D752D6A18";
paths = (
{
closed = 1;
nodes = (
"14 414 LINE",
"150 414 LINE",
"150 0 LINE",
"244 0 LINE",
"244 414 LINE",
"384 414 LINE",
"384 496 LINE",
"244 496 LINE",
"244 590 LINE SMOOTH",
"244 610 OFFCURVE",
"252 618 OFFCURVE",
"270 618 CURVE SMOOTH",
"358 618 LINE",
"358 700 LINE",
"234 700 LINE SMOOTH",
"184 700 OFFCURVE",
"150 666 OFFCURVE",
"150 614 CURVE SMOOTH",
"150 496 LINE",
"14 496 LINE"
);
},
{
closed = 1;
nodes = (
"308 414 LINE",
"444 414 LINE",
"444 0 LINE",
"538 0 LINE",
"538 414 LINE",
"832 414 LINE",
"832 496 LINE",
"538 496 LINE",
"538 590 LINE SMOOTH",
"538 610 OFFCURVE",
"546 618 OFFCURVE",
"564 618 CURVE SMOOTH",
"642 618 LINE",
"642 700 LINE",
"528 700 LINE SMOOTH",
"478 700 OFFCURVE",
"444 666 OFFCURVE",
"444 614 CURVE SMOOTH",
"444 496 LINE",
"308 496 LINE"
);
}
);
width = 902;
},
{
components = (
{
name = j;
transform = "{1, 0, 0, 1, 688, 0}";
}
);
layerId = "A285862E-BE3D-4D67-A40D-0E28E121AD88";
paths = (
{
closed = 1;
nodes = (
"24 452 LINE",
"190 452 LINE",
"190 0 LINE",
"240 0 LINE",
"240 452 LINE",
"408 452 LINE",
"408 496 LINE",
"240 496 LINE",
"240 626 LINE SMOOTH",
"240 646 OFFCURVE",
"250 656 OFFCURVE",
"268 656 CURVE SMOOTH",
"382 656 LINE",
"382 700 LINE",
"254 700 LINE SMOOTH",
"214 700 OFFCURVE",
"190 676 OFFCURVE",
"190 634 CURVE SMOOTH",
"190 496 LINE",
"24 496 LINE"
);
},
{
closed = 1;
nodes = (
"314 452 LINE",
"480 452 LINE",
"480 0 LINE",
"530 0 LINE",
"530 452 LINE",
"820 452 LINE",
"820 496 LINE",
"530 496 LINE",
"530 626 LINE SMOOTH",
"530 646 OFFCURVE",
"540 656 OFFCURVE",
"558 656 CURVE SMOOTH",
"666 656 LINE",
"666 700 LINE",
"544 700 LINE SMOOTH",
"504 700 OFFCURVE",
"480 676 OFFCURVE",
"480 634 CURVE SMOOTH",
"480 496 LINE",
"314 496 LINE"
);
}
);
width = 910;
},
{
components = (
{
name = j;
transform = "{1, 0, 0, 1, 692, 0}";
}
);
layerId = "5117E3E8-E17C-4812-BAF5-9E7064564A59";
paths = (
{
closed = 1;
nodes = (
"22 386 LINE",
"148 386 LINE",
"148 0 LINE",
"274 0 LINE",
"274 386 LINE",
"404 386 LINE",
"404 496 LINE",
"274 496 LINE",
"274 560 LINE SMOOTH",
"274 580 OFFCURVE",
"284 590 OFFCURVE",
"302 590 CURVE SMOOTH",
"378 590 LINE",
"378 700 LINE",
"248 700 LINE SMOOTH",
"190 700 OFFCURVE",
"148 656 OFFCURVE",
"148 598 CURVE SMOOTH",
"148 496 LINE",
"22 496 LINE"
);
},
{
closed = 1;
nodes = (
"328 386 LINE",
"454 386 LINE",
"454 0 LINE",
"580 0 LINE",
"580 386 LINE",
"886 386 LINE",
"886 496 LINE",
"580 496 LINE",
"580 560 LINE SMOOTH",
"580 580 OFFCURVE",
"590 590 OFFCURVE",
"608 590 CURVE SMOOTH",
"670 590 LINE",
"670 700 LINE",
"554 700 LINE SMOOTH",
"496 700 OFFCURVE",
"454 656 OFFCURVE",
"454 598 CURVE SMOOTH",
"454 496 LINE",
"328 496 LINE"
);
}
);
width = 946;
}
);
leftKerningGroup = t;
leftMetricsKey = f;
note = fi;
rightKerningGroup = i;
rightMetricsKey = i;
},
{
glyphname = f_i.liga;
lastChange = "2017-12-13 13:20:58 +0000";
layers = (
{
components = (
{
name = i;
transform = "{1, 0, 0, 1, 374, 0}";
}
);
layerId = "CCC6267B-7D5D-4B2E-A229-3A2D752D6A18";
paths = (
{
closed = 1;
nodes = (
"14 414 LINE",
"150 414 LINE",
"150 0 LINE",
"244 0 LINE",
"244 414 LINE",
"538 414 LINE",
"538 496 LINE",
"244 496 LINE",
"244 590 LINE SMOOTH",
"244 610 OFFCURVE",
"252 618 OFFCURVE",
"270 618 CURVE SMOOTH",
"348 618 LINE",
"348 700 LINE",
"234 700 LINE SMOOTH",
"184 700 OFFCURVE",
"150 666 OFFCURVE",
"150 614 CURVE SMOOTH",
"150 496 LINE",
"14 496 LINE"
);
}
);
width = 608;
},
{
components = (
{
name = i;
transform = "{1, 0, 0, 1, 398, 0}";
}
);
layerId = "A285862E-BE3D-4D67-A40D-0E28E121AD88";
paths = (
{
closed = 1;
nodes = (
"24 452 LINE",
"190 452 LINE",
"190 0 LINE",
"240 0 LINE",
"240 452 LINE",
"530 452 LINE",
"530 496 LINE",
"240 496 LINE",
"240 626 LINE SMOOTH",
"240 646 OFFCURVE",
"250 656 OFFCURVE",
"268 656 CURVE SMOOTH",
"376 656 LINE",
"376 700 LINE",
"254 700 LINE SMOOTH",
"214 700 OFFCURVE",
"190 676 OFFCURVE",
"190 634 CURVE SMOOTH",
"190 496 LINE",
"24 496 LINE"
);
}
);
width = 612;
},
{
components = (
{
name = i;
transform = "{1, 0, 0, 1, 394, 0}";
}
);
layerId = "5117E3E8-E17C-4812-BAF5-9E7064564A59";
paths = (
{
closed = 1;
nodes = (
"22 386 LINE",
"148 386 LINE",
"148 0 LINE",
"274 0 LINE",
"274 386 LINE",
"580 386 LINE",
"580 496 LINE",
"274 496 LINE",
"274 560 LINE SMOOTH",
"274 580 OFFCURVE",
"284 590 OFFCURVE",
"302 590 CURVE SMOOTH",
"364 590 LINE",
"364 700 LINE",
"248 700 LINE SMOOTH",
"190 700 OFFCURVE",
"148 656 OFFCURVE",
"148 598 CURVE SMOOTH",
"148 496 LINE",
"22 496 LINE"
);
}
);
width = 640;
}
);
leftKerningGroup = t;
leftMetricsKey = f;
note = fi;
rightKerningGroup = i;
rightMetricsKey = i;
},
{
glyphname = f_j.liga;
lastChange = "2018-01-06 13:25:44 +0000";
layers = (
{
components = (
{
name = j;
transform = "{1, 0, 0, 1, 374, 0}";
}
);
layerId = "CCC6267B-7D5D-4B2E-A229-3A2D752D6A18";
paths = (
{
closed = 1;
nodes = (
"14 414 LINE",
"150 414 LINE",
"150 0 LINE",
"244 0 LINE",
"244 414 LINE",
"538 414 LINE",
"538 496 LINE",
"244 496 LINE",
"244 590 LINE SMOOTH",
"244 610 OFFCURVE",
"252 618 OFFCURVE",
"270 618 CURVE SMOOTH",
"348 618 LINE",
"348 700 LINE",
"234 700 LINE SMOOTH",
"184 700 OFFCURVE",
"150 666 OFFCURVE",
"150 614 CURVE SMOOTH",
"150 496 LINE",
"14 496 LINE"
);
}
);
width = 608;
},
{
components = (
{
name = j;
transform = "{1, 0, 0, 1, 398, 0}";
}
);
layerId = "A285862E-BE3D-4D67-A40D-0E28E121AD88";
paths = (
{
closed = 1;
nodes = (
"24 452 LINE",
"190 452 LINE",
"190 0 LINE",
"240 0 LINE",
"240 452 LINE",
"530 452 LINE",
"530 496 LINE",
"240 496 LINE",
"240 626 LINE SMOOTH",
"240 646 OFFCURVE",
"250 656 OFFCURVE",
"268 656 CURVE SMOOTH",
"376 656 LINE",
"376 700 LINE",
"254 700 LINE SMOOTH",
"214 700 OFFCURVE",
"190 676 OFFCURVE",
"190 634 CURVE SMOOTH",
"190 496 LINE",
"24 496 LINE"
);
}
);
width = 620;
},
{
components = (
{
name = j;
transform = "{1, 0, 0, 1, 386, 0}";
}
);
layerId = "5117E3E8-E17C-4812-BAF5-9E7064564A59";
paths = (
{
closed = 1;
nodes = (
"22 386 LINE",
"148 386 LINE",
"148 0 LINE",
"274 0 LINE",
"274 386 LINE",
"580 386 LINE",
"580 496 LINE",
"274 496 LINE",
"274 560 LINE SMOOTH",
"274 580 OFFCURVE",
"284 590 OFFCURVE",
"302 590 CURVE SMOOTH",
"364 590 LINE",
"364 700 LINE",
"248 700 LINE SMOOTH",
"190 700 OFFCURVE",
"148 656 OFFCURVE",
"148 598 CURVE SMOOTH",
"148 496 LINE",
"22 496 LINE"
);
}
);
width = 640;
}
);
leftKerningGroup = t;
leftMetricsKey = f;
note = fi;
rightKerningGroup = i;
rightMetricsKey = i;
},
{
glyphname = f_l.liga;
lastChange = "2017-12-13 13:21:51 +0000";
layers = (
{
anchors = (
{
name = caron;
position = "{538, 700}";
}
);
layerId = "CCC6267B-7D5D-4B2E-A229-3A2D752D6A18";
paths = (
{
closed = 1;
nodes = (
"444 0 LINE",
"538 0 LINE",
"538 700 LINE",
"444 700 LINE"
);
},
{
closed = 1;
nodes = (
"14 414 LINE",
"150 414 LINE",
"150 0 LINE",
"244 0 LINE",
"244 414 LINE",
"370 414 LINE",
"370 496 LINE",
"244 496 LINE",
"244 590 LINE SMOOTH",
"244 610 OFFCURVE",
"252 618 OFFCURVE",
"270 618 CURVE SMOOTH",
"348 618 LINE",
"348 700 LINE",
"234 700 LINE SMOOTH",
"184 700 OFFCURVE",
"150 666 OFFCURVE",
"150 614 CURVE SMOOTH",
"150 496 LINE",
"14 496 LINE"
);
}
);
width = 608;
},
{
anchors = (
{
name = caron;
position = "{530, 700}";
}
);
layerId = "A285862E-BE3D-4D67-A40D-0E28E121AD88";
paths = (
{
closed = 1;
nodes = (
"480 0 LINE",
"530 0 LINE",
"530 700 LINE",
"480 700 LINE"
);
},
{
closed = 1;
nodes = (
"24 452 LINE",
"190 452 LINE",
"190 0 LINE",
"240 0 LINE",
"240 452 LINE",
"394 452 LINE",
"394 496 LINE",
"240 496 LINE",
"240 626 LINE SMOOTH",
"240 646 OFFCURVE",
"250 656 OFFCURVE",
"268 656 CURVE SMOOTH",
"372 656 LINE",
"372 700 LINE",
"254 700 LINE SMOOTH",
"214 700 OFFCURVE",
"190 676 OFFCURVE",
"190 634 CURVE SMOOTH",
"190 496 LINE",
"24 496 LINE"
);
}
);
width = 612;
},
{
anchors = (
{
name = caron;
position = "{574, 700}";
}
);
layerId = "5117E3E8-E17C-4812-BAF5-9E7064564A59";
paths = (
{
closed = 1;
nodes = (
"454 0 LINE",
"580 0 LINE",
"580 700 LINE",
"454 700 LINE"
);
},
{
closed = 1;
nodes = (
"22 386 LINE",
"148 386 LINE",
"148 0 LINE",
"274 0 LINE",
"274 386 LINE",
"390 386 LINE",
"390 496 LINE",
"274 496 LINE",
"274 560 LINE SMOOTH",
"274 580 OFFCURVE",
"284 590 OFFCURVE",
"302 590 CURVE SMOOTH",
"368 590 LINE",
"368 700 LINE",
"248 700 LINE SMOOTH",
"190 700 OFFCURVE",
"148 656 OFFCURVE",
"148 598 CURVE SMOOTH",
"148 496 LINE",
"22 496 LINE"
);
}
);
width = 640;
}
);
leftKerningGroup = t;
leftMetricsKey = f;
note = fl;
rightKerningGroup = l;
rightMetricsKey = l;
},
{
glyphname = pi;
lastChange = "2017-07-18 09:12:28 +0000";
layers = (
{
layerId = "CCC6267B-7D5D-4B2E-A229-3A2D752D6A18";
paths = (
{
closed = 1;
nodes = (
"234 408 LINE",
"388 408 LINE",
"388 84 LINE SMOOTH",
"388 35 OFFCURVE",
"423 0 OFFCURVE",
"471 0 CURVE SMOOTH",
"556 0 LINE",
"556 88 LINE",
"509 88 LINE SMOOTH",
"491 88 OFFCURVE",
"482 98 OFFCURVE",
"482 118 CURVE SMOOTH",
"482 408 LINE",
"556 408 LINE",
"556 496 LINE",
"66 496 LINE",
"66 408 LINE",
"140 408 LINE",
"140 0 LINE",
"234 0 LINE"
);
}
);
width = 620;
},
{
layerId = "A285862E-BE3D-4D67-A40D-0E28E121AD88";
paths = (
{
closed = 1;
nodes = (
"201 452 LINE",
"421 452 LINE",
"421 68 LINE SMOOTH",
"421 29 OFFCURVE",
"448 0 OFFCURVE",
"487 0 CURVE SMOOTH",
"540 0 LINE",
"540 44 LINE",
"498 44 LINE SMOOTH",
"480 44 OFFCURVE",
"471 54 OFFCURVE",
"471 74 CURVE SMOOTH",
"471 452 LINE",
"540 452 LINE",
"540 496 LINE",
"83 496 LINE",
"83 452 LINE",
"151 452 LINE",
"151 0 LINE",
"201 0 LINE"
);
}
);
width = 620;
},
{
layerId = "5117E3E8-E17C-4812-BAF5-9E7064564A59";
paths = (
{
closed = 1;
nodes = (
"258 376 LINE",
"364 376 LINE",
"364 96 LINE SMOOTH",
"364 40 OFFCURVE",
"404 0 OFFCURVE",
"460 0 CURVE SMOOTH",
"568 0 LINE",
"568 120 LINE",
"517 120 LINE SMOOTH",
"499 120 OFFCURVE",
"490 130 OFFCURVE",
"490 150 CURVE SMOOTH",
"490 376 LINE",
"568 376 LINE",
"568 496 LINE",
"54 496 LINE",
"54 376 LINE",
"132 376 LINE",
"132 0 LINE",
"258 0 LINE"
);
}
);
width = 620;
}
);
note = pi;
unicode = 03C0;
},
{
glyphname = zero;
lastChange = "2018-01-05 16:37:11 +0000";
layers = (
{
associatedMasterId = "CCC6267B-7D5D-4B2E-A229-3A2D752D6A18";
layerId = "67370F4D-032E-4BC9-835A-D0A59022E6FC";
name = original;
paths = (
{
closed = 1;
nodes = (
"58 272 LINE SMOOTH",
"58 85 OFFCURVE",
"149 -14 OFFCURVE",
"304 -14 CURVE SMOOTH",
"459 -14 OFFCURVE",
"550 85 OFFCURVE",
"550 272 CURVE SMOOTH",
"550 428 LINE SMOOTH",
"550 609 OFFCURVE",
"459 714 OFFCURVE",
"304 714 CURVE SMOOTH",
"149 714 OFFCURVE",
"58 609 OFFCURVE",
"58 428 CURVE SMOOTH"
);
},
{
closed = 1;
nodes = (
"142 544 OFFCURVE",
"192 638 OFFCURVE",
"304 638 CURVE SMOOTH",
"413 638 OFFCURVE",
"466 549 OFFCURVE",
"466 422 CURVE SMOOTH",
"466 278 LINE SMOOTH",
"466 141 OFFCURVE",
"412 62 OFFCURVE",
"304 62 CURVE SMOOTH",
"196 62 OFFCURVE",
"142 141 OFFCURVE",
"142 278 CURVE SMOOTH",
"142 422 LINE SMOOTH"
);
},
{
closed = 1;
nodes = (
"240 315 OFFCURVE",
"269 286 OFFCURVE",
"304 286 CURVE SMOOTH",
"339 286 OFFCURVE",
"368 315 OFFCURVE",
"368 350 CURVE SMOOTH",
"368 385 OFFCURVE",
"339 414 OFFCURVE",
"304 414 CURVE SMOOTH",
"269 414 OFFCURVE",
"240 385 OFFCURVE",
"240 350 CURVE SMOOTH"
);
}
);
width = 608;
},
{
associatedMasterId = "CCC6267B-7D5D-4B2E-A229-3A2D752D6A18";
layerId = "8120CEC9-621C-48D0-8FA6-5E166D0B00E4";
name = original;
paths = (
{
closed = 1;
nodes = (
"46 272 LINE SMOOTH",
"46 85 OFFCURVE",
"143 -14 OFFCURVE",
"304 -14 CURVE SMOOTH",
"465 -14 OFFCURVE",
"562 85 OFFCURVE",
"562 272 CURVE SMOOTH",
"562 428 LINE SMOOTH",
"562 609 OFFCURVE",
"465 714 OFFCURVE",
"304 714 CURVE SMOOTH",
"143 714 OFFCURVE",
"46 609 OFFCURVE",
"46 428 CURVE SMOOTH"
);
},
{
closed = 1;
nodes = (
"178 529 OFFCURVE",
"217 594 OFFCURVE",
"304 594 CURVE SMOOTH",
"388 594 OFFCURVE",
"430 533 OFFCURVE",
"430 436 CURVE SMOOTH",
"430 264 LINE SMOOTH",
"430 169 OFFCURVE",
"399 106 OFFCURVE",
"304 106 CURVE SMOOTH",
"212 106 OFFCURVE",
"178 165 OFFCURVE",
"178 264 CURVE SMOOTH",
"178 436 LINE SMOOTH"
);
},
{
closed = 1;
nodes = (
"220 305 OFFCURVE",
"259 266 OFFCURVE",
"304 266 CURVE SMOOTH",
"349 266 OFFCURVE",
"388 305 OFFCURVE",
"388 350 CURVE SMOOTH",
"388 395 OFFCURVE",
"349 434 OFFCURVE",
"304 434 CURVE SMOOTH",
"259 434 OFFCURVE",
"220 395 OFFCURVE",
"220 350 CURVE SMOOTH"
);
}
);
width = 608;
},
{
layerId = "CCC6267B-7D5D-4B2E-A229-3A2D752D6A18";
paths = (
{
closed = 1;
nodes = (
"48 272 LINE SMOOTH",
"48 92 OFFCURVE",
"148 -14 OFFCURVE",
"310 -14 CURVE SMOOTH",
"472 -14 OFFCURVE",
"572 92 OFFCURVE",
"572 272 CURVE SMOOTH",
"572 428 LINE SMOOTH",
"572 608 OFFCURVE",
"468 714 OFFCURVE",
"310 714 CURVE SMOOTH",
"148 714 OFFCURVE",
"48 608 OFFCURVE",
"48 428 CURVE SMOOTH"
);
},
{
closed = 1;
nodes = (
"148 554 OFFCURVE",
"202 622 OFFCURVE",
"310 622 CURVE SMOOTH",
"418 622 OFFCURVE",
"472 554 OFFCURVE",
"472 430 CURVE SMOOTH",
"472 270 LINE SMOOTH",
"472 146 OFFCURVE",
"418 78 OFFCURVE",
"310 78 CURVE SMOOTH",
"202 78 OFFCURVE",
"148 146 OFFCURVE",
"148 270 CURVE SMOOTH",
"148 430 LINE SMOOTH"
);
}
);
width = 620;
},
{
layerId = "A285862E-BE3D-4D67-A40D-0E28E121AD88";
paths = (
{
closed = 1;
nodes = (
"64 272 LINE SMOOTH",
"64 84 OFFCURVE",
"154 -14 OFFCURVE",
"312 -14 CURVE SMOOTH",
"470 -14 OFFCURVE",
"560 84 OFFCURVE",
"560 272 CURVE SMOOTH",
"560 428 LINE SMOOTH",
"560 616 OFFCURVE",
"470 714 OFFCURVE",
"312 714 CURVE SMOOTH",
"154 714 OFFCURVE",
"64 616 OFFCURVE",
"64 428 CURVE SMOOTH"
);
},
{
closed = 1;
nodes = (
"118 578 OFFCURVE",
"182 666 OFFCURVE",
"312 666 CURVE SMOOTH",
"442 666 OFFCURVE",
"506 578 OFFCURVE",
"506 432 CURVE SMOOTH",
"506 268 LINE SMOOTH",
"506 122 OFFCURVE",
"442 34 OFFCURVE",
"312 34 CURVE SMOOTH",
"182 34 OFFCURVE",
"118 122 OFFCURVE",
"118 268 CURVE SMOOTH",
"118 432 LINE SMOOTH"
);
}
);
width = 624;
},
{
layerId = "5117E3E8-E17C-4812-BAF5-9E7064564A59";
paths = (
{
closed = 1;
nodes = (
"34 268 LINE SMOOTH",
"34 84 OFFCURVE",
"142 -14 OFFCURVE",
"302 -14 CURVE SMOOTH",
"462 -14 OFFCURVE",
"570 84 OFFCURVE",
"570 268 CURVE SMOOTH",
"570 432 LINE SMOOTH",
"570 610 OFFCURVE",
"462 714 OFFCURVE",
"302 714 CURVE SMOOTH",
"142 714 OFFCURVE",
"34 610 OFFCURVE",
"34 432 CURVE SMOOTH"
);
},
{
closed = 1;
nodes = (
"166 529 OFFCURVE",
"216 594 OFFCURVE",
"302 594 CURVE SMOOTH",
"385 594 OFFCURVE",
"438 533 OFFCURVE",
"438 436 CURVE SMOOTH",
"438 264 LINE SMOOTH",
"438 169 OFFCURVE",
"396 106 OFFCURVE",
"302 106 CURVE SMOOTH",
"211 106 OFFCURVE",
"166 165 OFFCURVE",
"166 264 CURVE SMOOTH",
"166 436 LINE SMOOTH"
);
}
);
width = 604;
}
);
leftKerningGroup = zero;
leftMetricsKey = O;
note = zero;
rightKerningGroup = zero;
rightMetricsKey = O;
unicode = 0030;
},
